<?xml version="1.0" encoding="UTF-8" standalone="no"?><svg xmlns="http://www.w3.org/2000/svg" xmlns:xlink="http://www.w3.org/1999/xlink" contentStyleType="text/css" height="494px" preserveAspectRatio="none" style="width:1016px;height:494px;background:#FFFFFF;" version="1.1" viewBox="0 0 1016 494" width="1016px" zoomAndPan="magnify"><defs/><g><!--cluster game--><g id="cluster_game"><rect fill="none" height="481" rx="2.5" ry="2.5" style="stroke:#181818;stroke-width:1.0;" width="913.15" x="97" y="7"/><text fill="#000000" font-family="sans-serif" font-size="14" font-weight="bold" lengthAdjust="spacing" textLength="110" x="498.575" y="23.9659">Partie Classique</text></g><g id="elem_move_piece"><ellipse cx="224.9337" cy="211.9967" fill="#F1F1F1" rx="84.5837" ry="19.3167" style="stroke:#181818;stroke-width:0.5;"/><text fill="#000000" font-family="sans-serif" font-size="14" lengthAdjust="spacing" textLength="116" x="163.9337" y="216.7297">Déplacer la pièce</text></g><g id="elem_rotate_piece"><ellipse cx="563.0456" cy="221.0031" fill="#F1F1F1" rx="82.3656" ry="18.8731" style="stroke:#181818;stroke-width:0.5;"/><text fill="#000000" font-family="sans-serif" font-size="14" lengthAdjust="spacing" textLength="110" x="505.0456" y="225.7361">Tourner la pièce</text></g><g id="elem_change_malus_target"><ellipse cx="224.9273" cy="298.9955" fill="#F1F1F1" rx="111.9273" ry="24.7855" style="stroke:#181818;stroke-width:0.5;"/><text fill="#000000" font-family="sans-serif" font-size="14" lengthAdjust="spacing" textLength="183" x="130.4273" y="303.7284">Changer la cible des malus</text></g><g id="elem_choose_malus_target"><ellipse cx="563.0517" cy="298.9983" fill="#F1F1F1" rx="107.1917" ry="23.8383" style="stroke:#181818;stroke-width:0.5;"/><text fill="#000000" font-family="sans-serif" font-size="14" lengthAdjust="spacing" textLength="172" x="474.0517" y="303.7313">Choisir la cible des malus</text></g><g id="elem_lateral_movement"><ellipse cx="563.0479" cy="145.0036" fill="#F1F1F1" rx="97.9679" ry="21.9936" style="stroke:#181818;stroke-width:0.5;"/><text fill="#000000" font-family="sans-serif" font-size="14" lengthAdjust="spacing" textLength="150" x="485.0479" y="149.7365">Déplacer latéralement</text></g><g id="elem_increase_descent"><ellipse cx="563.0497" cy="67.0039" fill="#F1F1F1" rx="95.5197" ry="21.5039" style="stroke:#181818;stroke-width:0.5;"/><text fill="#000000" font-family="sans-serif" font-size="14" lengthAdjust="spacing" textLength="144" x="488.0497" y="71.7369">Accélérer la descente</text></g><g id="elem_move_right"><ellipse cx="891.1909" cy="182.9982" fill="#F1F1F1" rx="98.7909" ry="22.1582" style="stroke:#181818;stroke-width:0.5;"/><text fill="#000000" font-family="sans-serif" font-size="14" lengthAdjust="spacing" textLength="152" x="812.1909" y="187.7312">Déplacer vers la droite</text></g><g id="elem_move_left"><ellipse cx="891.1945" cy="103.0009" fill="#F1F1F1" rx="102.9545" ry="22.9909" style="stroke:#181818;stroke-width:0.5;"/><text fill="#000000" font-family="sans-serif" font-size="14" lengthAdjust="spacing" textLength="162" x="807.1945" y="107.7339">Déplacer vers la gauche</text></g><g id="elem_pause_menu"><ellipse cx="224.9266" cy="376.9953" fill="#F1F1F1" rx="73.4266" ry="17.0853" style="stroke:#181818;stroke-width:0.5;"/><text fill="#000000" font-family="sans-serif" font-size="14" lengthAdjust="spacing" textLength="84" x="179.9266" y="381.7283">Menu pause</text></g><g id="elem_resume_game"><ellipse cx="563.0463" cy="450.9953" fill="#F1F1F1" rx="90.7263" ry="20.5453" style="stroke:#181818;stroke-width:0.5;"/><text fill="#000000" font-family="sans-serif" font-size="14" lengthAdjust="spacing" textLength="132" x="494.0463" y="455.7282">Reprendre la partie</text></g><g id="elem_quit_game"><ellipse cx="563.0478" cy="376.9976" fill="#F1F1F1" rx="81.6378" ry="18.7276" style="stroke:#181818;stroke-width:0.5;"/><text fill="#000000" font-family="sans-serif" font-size="14" lengthAdjust="spacing" textLength="108" x="506.0478" y="381.7305">Quitter la partie</text></g><!--entity player--><g id="elem_player"><ellipse cx="28" cy="267.97" fill="#F1F1F1" rx="8" ry="8" style="stroke:#181818;stroke-width:0.5;"/><path d="M28,275.97 L28,302.97 M15,283.97 L41,283.97 M28,302.97 L15,317.97 M28,302.97 L41,317.97 " fill="none" style="stroke:#181818;stroke-width:0.5;"/><text fill="#000000" font-family="sans-serif" font-size="14" lengthAdjust="spacing" textLength="44" x="6" y="334.4359">Joueur</text></g><!--link player to move_piece--><g id="link_player_move_piece"><path d="M50.27,281.84 C61.34,273.52 75.37,263.86 89,257 C113.92,244.45 143.13,234.22 167.99,226.69 " fill="none" id="player-move_piece" style="stroke:#181818;stroke-width:1.0;"/></g><!--link player to pause_menu--><g id="link_player_pause_menu"><path d="M50.37,316.72 C61.35,325.09 75.28,334.61 89,341 C113.4,352.36 142,360.64 166.58,366.37 " fill="none" id="player-pause_menu" style="stroke:#181818;stroke-width:1.0;"/></g><!--link player to change_malus_target--><g id="link_player_change_malus_target"><path d="M50.23,299 C66.02,299 88.9,299 112.9,299 " fill="none" id="player-change_malus_target" style="stroke:#181818;stroke-width:1.0;"/></g><!--reverse link move_piece to lateral_movement--><g id="link_move_piece_lateral_movement"><path d="M296.01,198.03 C352.39,186.79 431.38,171.05 488.62,159.64 " fill="none" id="move_piece-backto-lateral_movement" style="stroke:#181818;stroke-width:1.0;stroke-dasharray:7.0,7.0;"/><polygon fill="#181818" points="291.42,198.94,301.026,201.1134,296.3245,197.9677,299.4703,193.2662,291.42,198.94" style="stroke:#181818;stroke-width:1.0;"/><text fill="#000000" font-family="sans-serif" font-size="13" lengthAdjust="spacing" textLength="56" x="368.35" y="168.397">«extend»</text></g><!--reverse link move_piece to increase_descent--><g id="link_move_piece_increase_descent"><path d="M267.37,191.38 C312.99,169.04 388.79,132.98 455.85,106 C473.44,98.93 492.85,91.64 510.22,85.32 " fill="none" id="move_piece-backto-increase_descent" style="stroke:#181818;stroke-width:1.0;stroke-dasharray:7.0,7.0;"/><polygon fill="#181818" points="263.04,193.51,272.8823,193.1506,267.5319,191.3139,269.3686,185.9636,263.04,193.51" style="stroke:#181818;stroke-width:1.0;"/><text fill="#000000" font-family="sans-serif" font-size="13" lengthAdjust="spacing" textLength="56" x="368.35" y="115.067">«extend»</text></g><!--reverse link move_piece to rotate_piece--><g id="link_move_piece_rotate_piece"><path d="M315.65,214.4 C367.07,215.78 431.09,217.49 480.99,218.83 " fill="none" id="move_piece-backto-rotate_piece" style="stroke:#181818;stroke-width:1.0;stroke-dasharray:7.0,7.0;"/><polygon fill="#181818" points="310.96,214.28,319.8542,218.51,315.9583,214.4085,320.0598,210.5127,310.96,214.28" style="stroke:#181818;stroke-width:1.0;"/><text fill="#000000" font-family="sans-serif" font-size="13" lengthAdjust="spacing" textLength="56" x="368.35" y="211.857">«extend»</text></g><!--reverse link lateral_movement to move_right--><g id="link_lateral_movement_move_right"><path d="M634.88,163.06 C655.8,167.73 678.82,172.21 700.24,175 C730.02,178.88 762.64,181.01 792.3,182.15 " fill="none" id="lateral_movement-backto-move_right" style="stroke:#181818;stroke-width:1.0;stroke-dasharray:7.0,7.0;"/><polygon fill="#181818" points="630.23,162.01,638.1115,167.9161,635.1041,163.1249,639.8953,160.1175,630.23,162.01" style="stroke:#181818;stroke-width:1.0;"/><text fill="#000000" font-family="sans-serif" font-size="13" lengthAdjust="spacing" textLength="56" x="701.24" y="170.897">«extend»</text></g><!--reverse link lateral_movement to move_left--><g id="link_lateral_movement_move_left"><path d="M655.26,133.25 C700.89,127.38 755.9,120.29 801.22,114.46 " fill="none" id="lateral_movement-backto-move_left" style="stroke:#181818;stroke-width:1.0;stroke-dasharray:7.0,7.0;"/><polygon fill="#181818" points="650.39,133.88,659.8297,136.6893,655.3485,133.237,658.8008,128.7558,650.39,133.88" style="stroke:#181818;stroke-width:1.0;"/><text fill="#000000" font-family="sans-serif" font-size="13" lengthAdjust="spacing" textLength="56" x="701.24" y="116.137">«extend»</text></g><!--reverse link pause_menu to resume_game--><g id="link_pause_menu_resume_game"><path d="M285.91,390.21 C345.22,403.26 435.72,423.19 496.79,436.63 " fill="none" id="pause_menu-backto-resume_game" style="stroke:#181818;stroke-width:1.0;stroke-dasharray:7.0,7.0;"/><polygon fill="#181818" points="281.04,389.13,288.958,394.9871,285.9209,390.2147,290.6934,387.1776,281.04,389.13" style="stroke:#181818;stroke-width:1.0;"/><text fill="#000000" font-family="sans-serif" font-size="13" lengthAdjust="spacing" textLength="56" x="368.35" y="405.467">«extend»</text></g><!--reverse link pause_menu to quit_game--><g id="link_pause_menu_quit_game"><path d="M304.83,377 C357.89,377 427.64,377 481.11,377 " fill="none" id="pause_menu-backto-quit_game" style="stroke:#181818;stroke-width:1.0;stroke-dasharray:7.0,7.0;"/><polygon fill="#181818" points="299.96,377,308.96,381,304.96,377,308.96,373,299.96,377" style="stroke:#181818;stroke-width:1.0;"/><text fill="#000000" font-family="sans-serif" font-size="13" lengthAdjust="spacing" textLength="56" x="368.35" y="372.897">«extend»</text></g><!--link change_malus_target to choose_malus_target--><g id="link_change_malus_target_choose_malus_target"><path d="M336.92,299 C372.98,299 413.02,299 449.21,299 " fill="none" id="change_malus_target-to-choose_malus_target" style="stroke:#181818;stroke-width:1.0;stroke-dasharray:7.0,7.0;"/><polygon fill="#181818" points="453.94,299,444.94,295,448.94,299,444.94,303,453.94,299" style="stroke:#181818;stroke-width:1.0;"/><text fill="#000000" font-family="sans-serif" font-size="13" lengthAdjust="spacing" textLength="57" x="367.85" y="294.897">«include»</text></g><!--SRC=[bLJRQXin47tVhnWsKDjG1_eQGY0afL18dBQ1FYwoDFQAoj965xkcz7-Qx_2FTIIji-krqz1zsfqzP-Rep8n6ju4fU0VtngxevSu871KZk9yzVho0xmZS12M02G5bmuB3yZsK5brOOKciqddJm9B5BwdJ2wnGXw9GkF3W3LYvh3q8QP5xQNJ1k3SMFfk0mG9pq2YsHLiKyJ_JIuLGFZ3h9SADOix9fq2f2PTI_og0dj7PsHbyCrmobRzRjHi4OVJ8GytM66lBLQEGv92GMZgO1m_ImoQTQ8x0w716mGAP3nRRL7H4pXof4DBnuD6cwhnclkYAVufYhjE1N8g-i6vtptGYZXOKWqRk_l0iVsNMM3KIEHxY7qsm-WXjZMV-9Fwc9fCodiivkIMGaZCLt5ud_QvIeFBCBh4lUzP4nR2W1YJ4CBMHJluZjJ7kPEh7sUti0XhKJFajh5B3axrp9a2JLNsOhwtPW0ObDQNVapZJYKAMhkda0enMMv0BM8prfCMchiuHDRKjDfPWmvwXNXkQ9j3J3ptbgMJLbkhP4Ni2oMDmOHupk7QIQ5XA_EbH2yhWQsod-0TkDyQAP62SgDTRxtVFbkNPIn8eWXIeOiaOF6HUSxvxLaJ9ZINVEM7oA4ZDBHAgQgElrLoZTObiZVIzcKlAto8jMU1rZnINjsVKGrpylDS7YUue0lbMIAiStwfZs5TiB5bfCKrvMkuyvUaQgPRx2NaXV0dI-tOfElWJHJFuTr7aQmEcq_vcTS6Ub2vuSZd67Ny2bzDp60zxDRc0oyiy3LTN9_333hs5xo_t07jKEZEwHlu7FlRm44w7xNpPY-bwCCXz17tnVv1rVCBN2PnFhs1yuiv8PB9C1O74_Wi0]--></g></svg>