<?xml version="1.0" encoding="UTF-8" standalone="no"?><svg xmlns="http://www.w3.org/2000/svg" xmlns:xlink="http://www.w3.org/1999/xlink" contentStyleType="text/css" height="410px" preserveAspectRatio="none" style="width:942px;height:410px;background:#FFFFFF;" version="1.1" viewBox="0 0 942 410" width="942px" zoomAndPan="magnify"><defs/><g><!--cluster game--><g id="cluster_game"><rect fill="none" height="397" rx="2.5" ry="2.5" style="stroke:#181818;stroke-width:1.0;" width="839.01" x="97" y="7"/><text fill="#000000" font-family="sans-serif" font-size="14" font-weight="bold" lengthAdjust="spacing" textLength="76" x="478.505" y="23.9659">Partie Duel</text></g><g id="elem_move_piece"><ellipse cx="197.5837" cy="180.9967" fill="#F1F1F1" rx="84.5837" ry="19.3167" style="stroke:#181818;stroke-width:0.5;"/><text fill="#000000" font-family="sans-serif" font-size="14" lengthAdjust="spacing" textLength="116" x="136.5837" y="185.7297">Déplacer la pièce</text></g><g id="elem_rotate_piece"><ellipse cx="498.1356" cy="143.0031" fill="#F1F1F1" rx="82.3656" ry="18.8731" style="stroke:#181818;stroke-width:0.5;"/><text fill="#000000" font-family="sans-serif" font-size="14" lengthAdjust="spacing" textLength="110" x="440.1356" y="147.7361">Tourner la pièce</text></g><g id="elem_lateral_movement"><ellipse cx="498.1379" cy="67.0036" fill="#F1F1F1" rx="97.9679" ry="21.9936" style="stroke:#181818;stroke-width:0.5;"/><text fill="#000000" font-family="sans-serif" font-size="14" lengthAdjust="spacing" textLength="150" x="420.1379" y="71.7365">Déplacer latéralement</text></g><g id="elem_increase_descent"><ellipse cx="498.1397" cy="218.0039" fill="#F1F1F1" rx="95.5197" ry="21.5039" style="stroke:#181818;stroke-width:0.5;"/><text fill="#000000" font-family="sans-serif" font-size="14" lengthAdjust="spacing" textLength="144" x="423.1397" y="222.7369">Accélérer la descente</text></g><g id="elem_move_right"><ellipse cx="817.0609" cy="147.9982" fill="#F1F1F1" rx="98.7909" ry="22.1582" style="stroke:#181818;stroke-width:0.5;"/><text fill="#000000" font-family="sans-serif" font-size="14" lengthAdjust="spacing" textLength="152" x="738.0609" y="152.7312">Déplacer vers la droite</text></g><g id="elem_move_left"><ellipse cx="817.0645" cy="68.0009" fill="#F1F1F1" rx="102.9545" ry="22.9909" style="stroke:#181818;stroke-width:0.5;"/><text fill="#000000" font-family="sans-serif" font-size="14" lengthAdjust="spacing" textLength="162" x="733.0645" y="72.7339">Déplacer vers la gauche</text></g><g id="elem_pause_menu"><ellipse cx="197.5766" cy="292.9953" fill="#F1F1F1" rx="73.4266" ry="17.0853" style="stroke:#181818;stroke-width:0.5;"/><text fill="#000000" font-family="sans-serif" font-size="14" lengthAdjust="spacing" textLength="84" x="152.5766" y="297.7283">Menu pause</text></g><g id="elem_resume_game"><ellipse cx="498.1363" cy="366.9953" fill="#F1F1F1" rx="90.7263" ry="20.5453" style="stroke:#181818;stroke-width:0.5;"/><text fill="#000000" font-family="sans-serif" font-size="14" lengthAdjust="spacing" textLength="132" x="429.1363" y="371.7282">Reprendre la partie</text></g><g id="elem_quit_game"><ellipse cx="498.1378" cy="292.9976" fill="#F1F1F1" rx="81.6378" ry="18.7276" style="stroke:#181818;stroke-width:0.5;"/><text fill="#000000" font-family="sans-serif" font-size="14" lengthAdjust="spacing" textLength="108" x="441.1378" y="297.7305">Quitter la partie</text></g><!--entity player--><g id="elem_player"><ellipse cx="28" cy="224.97" fill="#F1F1F1" rx="8" ry="8" style="stroke:#181818;stroke-width:0.5;"/><path d="M28,232.97 L28,259.97 M15,240.97 L41,240.97 M28,259.97 L15,274.97 M28,259.97 L41,274.97 " fill="none" style="stroke:#181818;stroke-width:0.5;"/><text fill="#000000" font-family="sans-serif" font-size="14" lengthAdjust="spacing" textLength="44" x="6" y="291.4359">Joueur</text></g><!--link player to move_piece--><g id="link_player_move_piece"><path d="M50.22,246.5 C77.18,234.44 124.19,213.4 157.66,198.42 " fill="none" id="player-move_piece" style="stroke:#181818;stroke-width:1.0;"/></g><!--link player to pause_menu--><g id="link_player_pause_menu"><path d="M50.22,260.69 C73.48,265.82 111.66,274.25 143.2,281.21 " fill="none" id="player-pause_menu" style="stroke:#181818;stroke-width:1.0;"/></g><!--reverse link move_piece to lateral_movement--><g id="link_move_piece_lateral_movement"><path d="M243.77,161.2 C264.5,152.3 289.47,141.84 312.17,133 C355.7,116.05 405.61,98.34 442.61,85.54 " fill="none" id="move_piece-backto-lateral_movement" style="stroke:#181818;stroke-width:1.0;stroke-dasharray:7.0,7.0;"/><polygon fill="#181818" points="239.43,163.07,249.2781,163.1902,244.0235,161.0952,246.1185,155.8406,239.43,163.07" style="stroke:#181818;stroke-width:1.0;"/><text fill="#000000" font-family="sans-serif" font-size="13" lengthAdjust="spacing" textLength="56" x="313.17" y="108.007">«extend»</text></g><!--reverse link move_piece to increase_descent--><g id="link_move_piece_increase_descent"><path d="M257.2,197.74 C274.74,202.13 294.11,206.36 312.17,209 C341.43,213.28 373.55,215.64 402.7,216.92 " fill="none" id="move_piece-backto-increase_descent" style="stroke:#181818;stroke-width:1.0;stroke-dasharray:7.0,7.0;"/><polygon fill="#181818" points="252.79,196.62,260.5343,202.7048,257.6373,197.8461,262.4961,194.9491,252.79,196.62" style="stroke:#181818;stroke-width:1.0;"/><text fill="#000000" font-family="sans-serif" font-size="13" lengthAdjust="spacing" textLength="56" x="313.17" y="204.897">«extend»</text></g><!--reverse link move_piece to rotate_piece--><g id="link_move_piece_rotate_piece"><path d="M278.74,170.8 C324.36,164.99 381.04,157.78 425.22,152.15 " fill="none" id="move_piece-backto-rotate_piece" style="stroke:#181818;stroke-width:1.0;stroke-dasharray:7.0,7.0;"/><polygon fill="#181818" points="273.88,171.42,283.3197,174.2293,278.8385,170.777,282.2908,166.2958,273.88,171.42" style="stroke:#181818;stroke-width:1.0;"/><text fill="#000000" font-family="sans-serif" font-size="13" lengthAdjust="spacing" textLength="56" x="313.17" y="155.617">«extend»</text></g><!--reverse link lateral_movement to move_right--><g id="link_lateral_movement_move_right"><path d="M570.18,85.16 C624.16,98.95 697.83,117.78 750.43,131.23 " fill="none" id="lateral_movement-backto-move_right" style="stroke:#181818;stroke-width:1.0;stroke-dasharray:7.0,7.0;"/><polygon fill="#181818" points="565.5,83.96,573.2275,90.0662,570.3439,85.1995,575.2107,82.3159,565.5,83.96" style="stroke:#181818;stroke-width:1.0;"/><text fill="#000000" font-family="sans-serif" font-size="13" lengthAdjust="spacing" textLength="56" x="627.1" y="96.137">«extend»</text></g><!--reverse link lateral_movement to move_left--><g id="link_lateral_movement_move_left"><path d="M602.53,67.33 C638.22,67.44 678.18,67.56 713.78,67.68 " fill="none" id="lateral_movement-backto-move_left" style="stroke:#181818;stroke-width:1.0;stroke-dasharray:7.0,7.0;"/><polygon fill="#181818" points="597.89,67.31,606.867,71.3614,602.8899,67.3386,606.9127,63.3615,597.89,67.31" style="stroke:#181818;stroke-width:1.0;"/><text fill="#000000" font-family="sans-serif" font-size="13" lengthAdjust="spacing" textLength="56" x="627.1" y="63.307">«extend»</text></g><!--reverse link pause_menu to resume_game--><g id="link_pause_menu_resume_game"><path d="M255.39,307.08 C306.92,319.85 382.7,338.64 435.64,351.76 " fill="none" id="pause_menu-backto-resume_game" style="stroke:#181818;stroke-width:1.0;stroke-dasharray:7.0,7.0;"/><polygon fill="#181818" points="250.7,305.92,258.4779,311.9619,255.5541,307.1192,260.3967,304.1954,250.7,305.92" style="stroke:#181818;stroke-width:1.0;"/><text fill="#000000" font-family="sans-serif" font-size="13" lengthAdjust="spacing" textLength="56" x="313.17" y="317.097">«extend»</text></g><!--reverse link pause_menu to quit_game--><g id="link_pause_menu_quit_game"><path d="M277.74,293 C320.51,293 373.22,293 416.26,293 " fill="none" id="pause_menu-backto-quit_game" style="stroke:#181818;stroke-width:1.0;stroke-dasharray:7.0,7.0;"/><polygon fill="#181818" points="272.75,293,281.75,297,277.75,293,281.75,289,272.75,293" style="stroke:#181818;stroke-width:1.0;"/><text fill="#000000" font-family="sans-serif" font-size="13" lengthAdjust="spacing" textLength="56" x="313.17" y="288.897">«extend»</text></g><!--SRC=[bLFRYXf147sVhoX6Y0ena5TP5XOCWS2kcqJ8uz1sbqwJjdlI5us4_4_y3dyirTsZCsgM9JxrbAUgJfrJDPm5fk0DF1cxeSUZ4JWiXl0qNtoOmZS4Re8Im8I0ic71OVaMIeikRB2ahD9vqy2QnI-fqmCsg4DHA5nvy0QiNDSUXBJ8lJIwODmR2vzCm621EMWKswCjYlW_qsk5K3upwoN2BA0g8oHL_LK0_OQ3mG2-6YwPojyjqHs2C7heeMPRZ6tbfb58J8X3BHqiWmVfOPU6MI8mciieM27pmM9RYgRZp1418HqF7ctgpclcYwxvnqZc8StYKlISDJiUQ1YE5XI3HXx_S4m5DcQBLIEHuoL-OOBLDsXhFFCdV6wxcC_cKsXGC-Nti4c2fXcMJ80cFdsOhwtPWGObDRfp4cSwfH3lBPKNOBJQWrp1QgJ7BJP9jqJKf4rKZs3Nmg3U6d8BzEGzqBO4boYdbbNRgYTL71pI8E32CbPmhLtaI8a_FMf15NoDxPPyn_tEM04hsf1esylw-kF1icnmea0Hf40LMyRWPUO3vyU3efIija372PFrbffR95JLHb_gkKNhKh8rqlUCJSnVIrgpmEjUKZoEdb3FyR3otLmKUgG8vAjBfn9VrIti2pQMfBIOLYaTJrwbTARL-hGXvuJFGNhVRbu7_q7H3FvT5FaiOJBfhsyNx54fHXrY37UJTp2wTcCyXRkxxFVz_J_mrnwyXk_Vo1NsfdNEwApw3tnqwH9UZBh1JrmwaQzAtq3F0by2_m80]--></g></svg>