<svg xmlns="http://www.w3.org/2000/svg" xmlns:xlink="http://www.w3.org/1999/xlink" contentStyleType="text/css" height="394px" preserveAspectRatio="none" style="width:903px;height:394px;background:#FFFFFF;" version="1.1" viewBox="0 0 903 394" width="903px" zoomAndPan="magnify"><defs/><g><!--cluster game--><g id="cluster_game"><rect fill="none" height="381" rx="2.5" ry="2.5" style="stroke:#181818;stroke-width:1;" width="801" x="96" y="7"/><text fill="#000000" font-family="sans-serif" font-size="14" font-weight="bold" lengthAdjust="spacing" textLength="96.4893" x="448.2554" y="22.1318">Partie Endless</text></g><g id="elem_move_piece"><ellipse cx="199.9946" cy="201.9989" fill="#F1F1F1" rx="87.9946" ry="19.9989" style="stroke:#181818;stroke-width:0.5;"/><text fill="#000000" font-family="sans-serif" font-size="14" lengthAdjust="spacing" textLength="137.7236" x="131.1328" y="205.0814">D&#233;placer le Tetromino</text></g><g id="elem_rotate_piece"><ellipse cx="490.4256" cy="211.8851" fill="#F1F1F1" rx="84.9256" ry="19.3851" style="stroke:#181818;stroke-width:0.5;"/><text fill="#000000" font-family="sans-serif" font-size="14" lengthAdjust="spacing" textLength="130.7168" x="425.0672" y="214.9676">Tourner le Tetromino</text></g><g id="elem_lateral_movement"><ellipse cx="490.6576" cy="136.9315" fill="#F1F1F1" rx="87.6576" ry="19.9315" style="stroke:#181818;stroke-width:0.5;"/><text fill="#000000" font-family="sans-serif" font-size="14" lengthAdjust="spacing" textLength="136.958" x="422.1786" y="140.014">D&#233;placer lat&#233;ralement</text></g><g id="elem_increase_descent"><ellipse cx="490.634" cy="62.2268" fill="#F1F1F1" rx="86.634" ry="19.7268" style="stroke:#181818;stroke-width:0.5;"/><text fill="#000000" font-family="sans-serif" font-size="14" lengthAdjust="spacing" textLength="134.627" x="423.3206" y="65.3093">Acc&#233;l&#233;rer la descente</text></g><g id="elem_move_right"><ellipse cx="787.026" cy="173.2052" fill="#F1F1F1" rx="89.026" ry="20.2052" style="stroke:#181818;stroke-width:0.5;"/><text fill="#000000" font-family="sans-serif" font-size="14" lengthAdjust="spacing" textLength="140.0615" x="716.9952" y="176.2877">D&#233;placer vers la droite</text></g><g id="elem_move_left"><ellipse cx="786.8831" cy="97.1766" fill="#F1F1F1" rx="93.8831" ry="21.1766" style="stroke:#181818;stroke-width:0.5;"/><text fill="#000000" font-family="sans-serif" font-size="14" lengthAdjust="spacing" textLength="150.9717" x="711.3972" y="100.2591">D&#233;placer vers la gauche</text></g><g id="elem_pause_menu"><ellipse cx="199.9394" cy="281.0879" fill="#F1F1F1" rx="63.4394" ry="15.0879" style="stroke:#181818;stroke-width:0.5;"/><text fill="#000000" font-family="sans-serif" font-size="14" lengthAdjust="spacing" textLength="77.0547" x="158.4121" y="284.9038">Menu pause</text></g><g id="elem_resume_game"><ellipse cx="490.7382" cy="352.9476" fill="#F1F1F1" rx="80.2382" ry="18.4476" style="stroke:#181818;stroke-width:0.5;"/><text fill="#000000" font-family="sans-serif" font-size="14" lengthAdjust="spacing" textLength="119.8477" x="430.8144" y="356.0302">Reprendre la partie</text></g><g id="elem_quit_game"><ellipse cx="490.2558" cy="282.9512" fill="#F1F1F1" rx="70.2558" ry="16.4512" style="stroke:#181818;stroke-width:0.5;"/><text fill="#000000" font-family="sans-serif" font-size="14" lengthAdjust="spacing" textLength="95.71" x="441.3302" y="286.3202">Quitter la partie</text></g><!--entity player--><g id="elem_player"><ellipse cx="27.4033" cy="212.5" fill="#F1F1F1" rx="8" ry="8" style="stroke:#181818;stroke-width:0.5;"/><path d="M27.4033,220.5 L27.4033,247.5 M14.4033,228.5 L40.4033,228.5 M27.4033,247.5 L14.4033,262.5 M27.4033,247.5 L40.4033,262.5 " fill="none" style="stroke:#181818;stroke-width:0.5;"/><text fill="#000000" font-family="sans-serif" font-size="14" lengthAdjust="spacing" textLength="42.8066" x="6" y="277.1318">Joueur</text></g><!--link player to move_piece--><g id="link_player_move_piece"><path d="M49.07,237.18 C71.03,232.02 106.9,223.61 138.04,216.3 " fill="none" id="player-move_piece" style="stroke:#181818;stroke-width:1;"/></g><!--link player to pause_menu--><g id="link_player_pause_menu"><path d="M49.07,246.7 C74.84,252.6 119.75,262.87 153.72,270.64 " fill="none" id="player-pause_menu" style="stroke:#181818;stroke-width:1;"/></g><!--reverse link move_piece to lateral_movement--><g id="link_move_piece_lateral_movement"><path d="M269.1031,186.6605 C317.6331,175.7205 378.86,161.93 427.37,151 " fill="none" id="move_piece-backto-lateral_movement" style="stroke:#181818;stroke-width:1;stroke-dasharray:7.0,7.0;"/><polygon fill="#181818" points="263.25,187.98,272.9093,189.9029,268.1276,186.8805,271.15,182.0987,263.25,187.98" style="stroke:#181818;stroke-width:1;"/><text fill="#000000" font-family="sans-serif" font-size="13" lengthAdjust="spacing" textLength="53.4917" x="319" y="161.1938">&#171;extend&#187;</text></g><!--reverse link move_piece to increase_descent--><g id="link_move_piece_increase_descent"><path d="M240.1538,180.7772 C263.4238,168.2572 289.8,154.27 318,140 C355.43,121.07 364.82,116.36 403,99 C417.72,92.31 433.99,85.26 448.41,79.13 " fill="none" id="move_piece-backto-increase_descent" style="stroke:#181818;stroke-width:1;stroke-dasharray:7.0,7.0;"/><polygon fill="#181818" points="234.87,183.62,244.6909,182.8783,239.2731,181.251,240.9004,175.8332,234.87,183.62" style="stroke:#181818;stroke-width:1;"/><text fill="#000000" font-family="sans-serif" font-size="13" lengthAdjust="spacing" textLength="53.4917" x="319" y="111.1938">&#171;extend&#187;</text></g><!--reverse link move_piece to rotate_piece--><g id="link_move_piece_rotate_piece"><path d="M293.1664,205.1968 C330.8564,206.4968 368.9,207.82 406.25,209.11 " fill="none" id="move_piece-backto-rotate_piece" style="stroke:#181818;stroke-width:1;stroke-dasharray:7.0,7.0;"/><polygon fill="#181818" points="287.17,204.99,296.0268,209.2979,292.167,205.1624,296.3025,201.3026,287.17,204.99" style="stroke:#181818;stroke-width:1;"/><text fill="#000000" font-family="sans-serif" font-size="13" lengthAdjust="spacing" textLength="53.4917" x="319" y="204.1938">&#171;extend&#187;</text></g><!--reverse link lateral_movement to move_right--><g id="link_lateral_movement_move_right"><path d="M550.7945,154.2691 C570.4345,159.4091 587.16,163.03 608,166 C637.09,170.15 669.1,172.18 697.86,173.1 " fill="none" id="lateral_movement-backto-move_right" style="stroke:#181818;stroke-width:1;stroke-dasharray:7.0,7.0;"/><polygon fill="#181818" points="544.99,152.75,552.684,158.8983,549.8271,154.0159,554.7095,151.159,544.99,152.75" style="stroke:#181818;stroke-width:1;"/><text fill="#000000" font-family="sans-serif" font-size="13" lengthAdjust="spacing" textLength="53.4917" x="609" y="163.1938">&#171;extend&#187;</text></g><!--reverse link lateral_movement to move_left--><g id="link_lateral_movement_move_left"><path d="M572.1456,126.0437 C614.9156,120.2437 662.63,113.76 706.22,107.84 " fill="none" id="lateral_movement-backto-move_left" style="stroke:#181818;stroke-width:1;stroke-dasharray:7.0,7.0;"/><polygon fill="#181818" points="566.2,126.85,575.6559,129.6043,571.1546,126.1781,574.5809,121.6769,566.2,126.85" style="stroke:#181818;stroke-width:1;"/><text fill="#000000" font-family="sans-serif" font-size="13" lengthAdjust="spacing" textLength="53.4917" x="609" y="112.1938">&#171;extend&#187;</text></g><!--reverse link pause_menu to resume_game--><g id="link_pause_menu_resume_game"><path d="M250.0115,293.2328 C301.0215,305.9628 380.09,325.69 435.42,339.5 " fill="none" id="pause_menu-backto-resume_game" style="stroke:#181818;stroke-width:1;stroke-dasharray:7.0,7.0;"/><polygon fill="#181818" points="244.19,291.78,251.9537,297.8402,249.0412,292.9907,253.8907,290.0782,244.19,291.78" style="stroke:#181818;stroke-width:1;"/><text fill="#000000" font-family="sans-serif" font-size="13" lengthAdjust="spacing" textLength="53.4917" x="319" y="308.1938">&#171;extend&#187;</text></g><!--reverse link pause_menu to quit_game--><g id="link_pause_menu_quit_game"><path d="M269.5999,281.4717 C315.6699,281.7917 372.31,282.19 419.94,282.52 " fill="none" id="pause_menu-backto-quit_game" style="stroke:#181818;stroke-width:1;stroke-dasharray:7.0,7.0;"/><polygon fill="#181818" points="263.6,281.43,272.572,285.4924,268.5999,281.4647,272.6276,277.4926,263.6,281.43" style="stroke:#181818;stroke-width:1;"/><text fill="#000000" font-family="sans-serif" font-size="13" lengthAdjust="spacing" textLength="53.4917" x="319" y="279.1938">&#171;extend&#187;</text></g><!--SRC=[bLBRIWCn47tFLmnRi1Mi7o1541H1y4h1noLcnpQuJTR9f2hY1_Kx-cCcsTMzL17tAPazvyp9cHcVcQ94vyPY35VNyxCZk4TGrfS5oAA0h9BUONO06Q7pAynW3pB7jeA5Z3TjqW5MQBmG9Juoi0NIYoL3eGaLQsk4L6m9Bgn7Jo0TLALyGn8Y_fTcKI9aDv9O8pHkieXAmky2mZSUZKPm7kydIT6bQd2cf0laq-qcI2ea259pPB8hRMmIMTarvfL6XNtAt7eoFn78ikGlIjiywa0gWlCFKSCrUMa76RuocYBOvYKsht_2jnTB1Jo6b_DI_-vOydP3iiGG8IS7eOAXaCUMiTXddYYrtPI1ahXGe5C1WucfZI8CgBof_jPpZUGIcQnkg2cdvFmlqa9wjUoGuj15dtGPjW7gpKdZZgSyhKWFTeSLXTW8esoL5g0UGLgrFCw_JxZrchb-TmV-7Aer-4E8UhLWEkrElYrsh8X9YzY7sVGG9iFazuzWDgjdUtpy0twOzr_uxcuDi3kjQqOxbd_WuqJwS35f7_xbfGrv8Bq3_Gvu8Fe9]--></g></svg>