<?xml version="1.0" encoding="UTF-8" standalone="no"?><svg xmlns="http://www.w3.org/2000/svg" xmlns:xlink="http://www.w3.org/1999/xlink" contentStyleType="text/css" height="492px" preserveAspectRatio="none" style="width:969px;height:492px;background:#FFFFFF;" version="1.1" viewBox="0 0 969 492" width="969px" zoomAndPan="magnify"><defs/><g><!--cluster game--><g id="cluster_game"><rect fill="none" height="479" rx="2.5" ry="2.5" style="stroke:#181818;stroke-width:1.0;" width="866.22" x="97" y="7"/><text fill="#000000" font-family="sans-serif" font-size="14" font-weight="bold" lengthAdjust="spacing" textLength="182" x="439.11" y="23.9659">Partie Compétition Royale</text></g><g id="elem_move_piece"><ellipse cx="204.5137" cy="178.9967" fill="#F1F1F1" rx="84.5837" ry="19.3167" style="stroke:#181818;stroke-width:0.5;"/><text fill="#000000" font-family="sans-serif" font-size="14" lengthAdjust="spacing" textLength="116" x="143.5137" y="183.7297">Déplacer la pièce</text></g><g id="elem_rotate_piece"><ellipse cx="518.6656" cy="221.0031" fill="#F1F1F1" rx="82.3656" ry="18.8731" style="stroke:#181818;stroke-width:0.5;"/><text fill="#000000" font-family="sans-serif" font-size="14" lengthAdjust="spacing" textLength="110" x="460.6656" y="225.7361">Tourner la pièce</text></g><g id="elem_throw_penalty"><ellipse cx="204.5097" cy="277.9979" fill="#F1F1F1" rx="86.0897" ry="19.6179" style="stroke:#181818;stroke-width:0.5;"/><text fill="#000000" font-family="sans-serif" font-size="14" lengthAdjust="spacing" textLength="120" x="141.5097" y="282.7309">Envoyer un malus</text></g><g id="elem_get_bonus"><ellipse cx="204.515" cy="353.003" fill="#F1F1F1" rx="91.515" ry="20.703" style="stroke:#181818;stroke-width:0.5;"/><text fill="#000000" font-family="sans-serif" font-size="14" lengthAdjust="spacing" textLength="134" x="134.515" y="357.736">S'octroyer un bonus</text></g><g id="elem_choose_target"><ellipse cx="518.6711" cy="297.9982" fill="#F1F1F1" rx="104.6411" ry="23.3282" style="stroke:#181818;stroke-width:0.5;"/><text fill="#000000" font-family="sans-serif" font-size="14" lengthAdjust="spacing" textLength="166" x="432.6711" y="302.7312">Choisir la cible du malus</text></g><g id="elem_lateral_movement"><ellipse cx="518.6679" cy="145.0036" fill="#F1F1F1" rx="97.9679" ry="21.9936" style="stroke:#181818;stroke-width:0.5;"/><text fill="#000000" font-family="sans-serif" font-size="14" lengthAdjust="spacing" textLength="150" x="440.6679" y="149.7365">Déplacer latéralement</text></g><g id="elem_increase_descent"><ellipse cx="518.6697" cy="67.0039" fill="#F1F1F1" rx="95.5197" ry="21.5039" style="stroke:#181818;stroke-width:0.5;"/><text fill="#000000" font-family="sans-serif" font-size="14" lengthAdjust="spacing" textLength="144" x="443.6697" y="71.7369">Accélérer la descente</text></g><g id="elem_move_right"><ellipse cx="844.2709" cy="182.9982" fill="#F1F1F1" rx="98.7909" ry="22.1582" style="stroke:#181818;stroke-width:0.5;"/><text fill="#000000" font-family="sans-serif" font-size="14" lengthAdjust="spacing" textLength="152" x="765.2709" y="187.7312">Déplacer vers la droite</text></g><g id="elem_move_left"><ellipse cx="844.2745" cy="103.0009" fill="#F1F1F1" rx="102.9545" ry="22.9909" style="stroke:#181818;stroke-width:0.5;"/><text fill="#000000" font-family="sans-serif" font-size="14" lengthAdjust="spacing" textLength="162" x="760.2745" y="107.7339">Déplacer vers la gauche</text></g><g id="elem_pause_menu"><ellipse cx="204.5066" cy="425.9953" fill="#F1F1F1" rx="73.4266" ry="17.0853" style="stroke:#181818;stroke-width:0.5;"/><text fill="#000000" font-family="sans-serif" font-size="14" lengthAdjust="spacing" textLength="84" x="159.5066" y="430.7283">Menu pause</text></g><g id="elem_resume_game"><ellipse cx="518.6663" cy="448.9953" fill="#F1F1F1" rx="90.7263" ry="20.5453" style="stroke:#181818;stroke-width:0.5;"/><text fill="#000000" font-family="sans-serif" font-size="14" lengthAdjust="spacing" textLength="132" x="449.6663" y="453.7282">Reprendre la partie</text></g><g id="elem_quit_game"><ellipse cx="518.6678" cy="374.9976" fill="#F1F1F1" rx="81.6378" ry="18.7276" style="stroke:#181818;stroke-width:0.5;"/><text fill="#000000" font-family="sans-serif" font-size="14" lengthAdjust="spacing" textLength="108" x="461.6678" y="379.7305">Quitter la partie</text></g><!--entity player--><g id="elem_player"><ellipse cx="28" cy="293.97" fill="#F1F1F1" rx="8" ry="8" style="stroke:#181818;stroke-width:0.5;"/><path d="M28,301.97 L28,328.97 M15,309.97 L41,309.97 M28,328.97 L15,343.97 M28,328.97 L41,343.97 " fill="none" style="stroke:#181818;stroke-width:0.5;"/><text fill="#000000" font-family="sans-serif" font-size="14" lengthAdjust="spacing" textLength="44" x="6" y="360.4359">Joueur</text></g><!--link player to move_piece--><g id="link_player_move_piece"><path d="M50.31,287.78 C60.59,272.03 73.95,254.29 89,241 C110.44,222.07 138.65,206.71 161.71,196.01 " fill="none" id="player-move_piece" style="stroke:#181818;stroke-width:1.0;"/></g><!--link player to pause_menu--><g id="link_player_pause_menu"><path d="M50.41,355.01 C60.8,367.68 74.22,381.63 89,391 C106.38,402.02 127.45,409.75 146.75,415.08 " fill="none" id="player-pause_menu" style="stroke:#181818;stroke-width:1.0;"/></g><!--link player to throw_penalty--><g id="link_player_throw_penalty"><path d="M50.26,318.03 C59.38,315.12 70.18,311.77 80,309 C100.64,303.18 123.37,297.32 143.65,292.28 " fill="none" id="player-throw_penalty" style="stroke:#181818;stroke-width:1.0;"/></g><!--link player to get_bonus--><g id="link_player_get_bonus"><path d="M50.4,328.43 C70.06,331.59 100.38,336.45 128.87,341.02 " fill="none" id="player-get_bonus" style="stroke:#181818;stroke-width:1.0;"/></g><!--reverse link move_piece to lateral_movement--><g id="link_move_piece_lateral_movement"><path d="M287.85,170.03 C331.54,165.27 385.24,159.42 429.74,154.58 " fill="none" id="move_piece-backto-lateral_movement" style="stroke:#181818;stroke-width:1.0;stroke-dasharray:7.0,7.0;"/><polygon fill="#181818" points="282.98,170.56,292.361,173.5594,287.9505,170.0172,291.4926,165.6067,282.98,170.56" style="stroke:#181818;stroke-width:1.0;"/><text fill="#000000" font-family="sans-serif" font-size="13" lengthAdjust="spacing" textLength="56" x="327.03" y="155.857">«extend»</text></g><!--reverse link move_piece to increase_descent--><g id="link_move_piece_increase_descent"><path d="M254.65,159.83 C276.45,151.43 302.46,141.56 326.03,133 C372.34,116.19 425.31,98.03 463.81,85.02 " fill="none" id="move_piece-backto-increase_descent" style="stroke:#181818;stroke-width:1.0;stroke-dasharray:7.0,7.0;"/><polygon fill="#181818" points="250.03,161.61,259.8668,162.0964,254.6938,159.8074,256.9827,154.6344,250.03,161.61" style="stroke:#181818;stroke-width:1.0;"/><text fill="#000000" font-family="sans-serif" font-size="13" lengthAdjust="spacing" textLength="56" x="327.03" y="108.377">«extend»</text></g><!--reverse link move_piece to rotate_piece--><g id="link_move_piece_rotate_piece"><path d="M284.63,189.64 C334.51,196.36 398.39,204.95 446.65,211.44 " fill="none" id="move_piece-backto-rotate_piece" style="stroke:#181818;stroke-width:1.0;stroke-dasharray:7.0,7.0;"/><polygon fill="#181818" points="279.81,189,288.1917,194.1718,284.7648,189.6711,289.2654,186.2442,279.81,189" style="stroke:#181818;stroke-width:1.0;"/><text fill="#000000" font-family="sans-serif" font-size="13" lengthAdjust="spacing" textLength="56" x="327.03" y="192.137">«extend»</text></g><!--reverse link lateral_movement to move_right--><g id="link_lateral_movement_move_right"><path d="M590.06,163.27 C610.34,167.86 632.59,172.26 653.31,175 C683.09,178.94 715.7,181.09 745.37,182.22 " fill="none" id="lateral_movement-backto-move_right" style="stroke:#181818;stroke-width:1.0;stroke-dasharray:7.0,7.0;"/><polygon fill="#181818" points="585.3,162.18,593.1815,168.0861,590.1741,163.2949,594.9653,160.2875,585.3,162.18" style="stroke:#181818;stroke-width:1.0;"/><text fill="#000000" font-family="sans-serif" font-size="13" lengthAdjust="spacing" textLength="56" x="654.31" y="170.897">«extend»</text></g><!--reverse link lateral_movement to move_left--><g id="link_lateral_movement_move_left"><path d="M610.55,133.2 C655.54,127.37 709.64,120.34 754.36,114.54 " fill="none" id="lateral_movement-backto-move_left" style="stroke:#181818;stroke-width:1.0;stroke-dasharray:7.0,7.0;"/><polygon fill="#181818" points="605.77,133.83,615.2097,136.6393,610.7285,133.187,614.1808,128.7058,605.77,133.83" style="stroke:#181818;stroke-width:1.0;"/><text fill="#000000" font-family="sans-serif" font-size="13" lengthAdjust="spacing" textLength="56" x="654.31" y="116.137">«extend»</text></g><!--reverse link pause_menu to resume_game--><g id="link_pause_menu_resume_game"><path d="M279.17,433.06 C294.64,434.45 310.87,435.83 326.03,437 C360.1,439.62 397.61,442.07 430.34,444.06 " fill="none" id="pause_menu-backto-resume_game" style="stroke:#181818;stroke-width:1.0;stroke-dasharray:7.0,7.0;"/><polygon fill="#181818" points="274.56,432.64,283.1696,437.4228,279.5403,433.0836,283.8794,429.4543,274.56,432.64" style="stroke:#181818;stroke-width:1.0;"/><text fill="#000000" font-family="sans-serif" font-size="13" lengthAdjust="spacing" textLength="56" x="327.03" y="432.897">«extend»</text></g><!--reverse link pause_menu to quit_game--><g id="link_pause_menu_quit_game"><path d="M272.04,415.13 C324.86,406.5 398.37,394.49 451.18,385.86 " fill="none" id="pause_menu-backto-quit_game" style="stroke:#181818;stroke-width:1.0;stroke-dasharray:7.0,7.0;"/><polygon fill="#181818" points="267.2,415.92,276.7246,418.4263,272.1354,415.1189,275.4428,410.5297,267.2,415.92" style="stroke:#181818;stroke-width:1.0;"/><text fill="#000000" font-family="sans-serif" font-size="13" lengthAdjust="spacing" textLength="56" x="327.03" y="393.347">«extend»</text></g><!--reverse link throw_penalty to choose_target--><g id="link_throw_penalty_choose_target"><path d="M294.05,283.67 C332.54,286.14 377.81,289.04 417.51,291.58 " fill="none" id="throw_penalty-backto-choose_target" style="stroke:#181818;stroke-width:1.0;stroke-dasharray:7.0,7.0;"/><polygon fill="#181818" points="289.45,283.38,298.1805,287.9383,294.4401,283.6946,298.6838,279.9541,289.45,283.38" style="stroke:#181818;stroke-width:1.0;"/><text fill="#000000" font-family="sans-serif" font-size="13" lengthAdjust="spacing" textLength="56" x="327.03" y="282.107">«extend»</text></g><!--SRC=[bLJRQjj047tNLmmEr3RKXRw6a1AIK2YaQPD07yrwDRQMo3lAxgnTK_e_zNVunpgxaYt9RWZLapGwP-RCTVX06rLEhcbP8HisAuGxod6O3U7h_TFjEVn0q1JA75IUmw1ImUFWFGmS-h340Ro3WMUgOA7Ybx7f1PPeGvQLE6TW0cSM1KDk76esP3EbcHnyeO31WV9GbMg3BilYVsKN9SBWct9i4AAitJRg8Wj9gGGHHWhoAmDvXcTdP_18sgYo_cvqhn5oiaE6GabEei8ign95c4WgZ8TPO30CwvJR3459cbJ271K7XuqhILOhBtfoutLWT2cwBXHdRV3FKSnLIiqdwu5rizjARXeTb0egi_kZQ_bBMk6qCgYnZt-YuEm9sX4hxkA7J_Stz-TGeLKbRs2PofjIcAaShCZfmhXmj0OBfR7e3oIjRAA8x9Lupu5ikG4pX_d8ZXjigjmCqKffOl44TbmNj2kIte6TV8IbAeDFYbF8QHCgEn6p_mCo1Gjay8L1QO84boQWOoLZz1AKbRuBPWueDLc8E2a5AbqqAWuQRXiDmRugeOT_799cjwVCo3OKaJ9DNpt5JoJzHlqSvHaU2eme1qzzdzS56MzIvxIPoGJdeID65qGUfwoSnEXvdwiuXcL4r7oi1S4d6AbojrLCiZP00IhbnvsXYoC4QIJ0XraKuPl1bp8Dy2UZpIKu5zYitpDkrkHoc4lHumAyFgcyspfLhqfIBnOKmpI6ZCO-yqhhtLQKkdfkS_HQCFNa6gkbOv9vOtqjvWgTJsH7XZihafI_HLge80rgIV7gP7tIdPmZg4zNkZVnRPfkL0_sW9MJiaczumAc2rGlOBfrqyL-iGw4xy4mD_lQmb_4MeD_Prbzss0owIvzQ-n8QOtzsMtjdG4TjTx6S37v0AFZBetFuUAYdeFBot_WZtlp5hvxXOwm9w5hHjl2_y37xlNXsQWjqbvBsv0ZroVGGpEEdVQAt81xUzed_0K0]--></g></svg>