<svg xmlns="http://www.w3.org/2000/svg" xmlns:xlink="http://www.w3.org/1999/xlink" contentStyleType="text/css" height="476px" preserveAspectRatio="none" style="width:987px;height:476px;background:#FFFFFF;" version="1.1" viewBox="0 0 987 476" width="987px" zoomAndPan="magnify"><defs/><g><!--cluster game--><g id="cluster_game"><rect fill="none" height="463" rx="2.5" ry="2.5" style="stroke:#181818;stroke-width:1;" width="885" x="96" y="7"/><text fill="#000000" font-family="sans-serif" font-size="14" font-weight="bold" lengthAdjust="spacing" textLength="108.9375" x="484.0313" y="22.1318">Partie Classique</text></g><g id="elem_move_piece"><ellipse cx="222.5608" cy="164.9122" fill="#F1F1F1" rx="90.0608" ry="20.4122" style="stroke:#181818;stroke-width:0.5;"/><text fill="#000000" font-family="sans-serif" font-size="14" lengthAdjust="spacing" textLength="142.3994" x="151.3611" y="167.9947">D&#233;placer un Tetromino</text></g><g id="elem_rotate_piece"><ellipse cx="555.9256" cy="211.8851" fill="#F1F1F1" rx="84.9256" ry="19.3851" style="stroke:#181818;stroke-width:0.5;"/><text fill="#000000" font-family="sans-serif" font-size="14" lengthAdjust="spacing" textLength="130.7168" x="490.5672" y="214.9676">Tourner le Tetromino</text></g><g id="elem_change_malus_target"><ellipse cx="222.5931" cy="263.0186" fill="#F1F1F1" rx="110.5931" ry="24.5186" style="stroke:#181818;stroke-width:0.5;"/><text fill="#000000" font-family="sans-serif" font-size="14" lengthAdjust="spacing" textLength="187.5645" x="128.8109" y="266.1011">Changer la cible des penalties</text></g><g id="elem_choose_malus_target"><ellipse cx="555.9097" cy="290.0819" fill="#F1F1F1" rx="105.9097" ry="23.5819" style="stroke:#181818;stroke-width:0.5;"/><text fill="#000000" font-family="sans-serif" font-size="14" lengthAdjust="spacing" textLength="177.4268" x="467.1963" y="293.1645">Choisir la cible des penalties</text></g><g id="elem_throw_penalty"><ellipse cx="222.5799" cy="340.816" fill="#F1F1F1" rx="79.5799" ry="18.316" style="stroke:#181818;stroke-width:0.5;"/><text fill="#000000" font-family="sans-serif" font-size="14" lengthAdjust="spacing" textLength="118.3027" x="163.4286" y="343.8985">envoyer un penalty</text></g><g id="elem_lateral_movement"><ellipse cx="556.1576" cy="136.9315" fill="#F1F1F1" rx="87.6576" ry="19.9315" style="stroke:#181818;stroke-width:0.5;"/><text fill="#000000" font-family="sans-serif" font-size="14" lengthAdjust="spacing" textLength="136.958" x="487.6786" y="140.014">D&#233;placer lat&#233;ralement</text></g><g id="elem_increase_descent"><ellipse cx="556.134" cy="62.2268" fill="#F1F1F1" rx="86.634" ry="19.7268" style="stroke:#181818;stroke-width:0.5;"/><text fill="#000000" font-family="sans-serif" font-size="14" lengthAdjust="spacing" textLength="134.627" x="488.8206" y="65.3093">Acc&#233;l&#233;rer la descente</text></g><g id="elem_move_right"><ellipse cx="871.026" cy="173.2052" fill="#F1F1F1" rx="89.026" ry="20.2052" style="stroke:#181818;stroke-width:0.5;"/><text fill="#000000" font-family="sans-serif" font-size="14" lengthAdjust="spacing" textLength="140.0615" x="800.9952" y="176.2877">D&#233;placer vers la droite</text></g><g id="elem_move_left"><ellipse cx="870.8831" cy="97.1766" fill="#F1F1F1" rx="93.8831" ry="21.1766" style="stroke:#181818;stroke-width:0.5;"/><text fill="#000000" font-family="sans-serif" font-size="14" lengthAdjust="spacing" textLength="150.9717" x="795.3972" y="100.2591">D&#233;placer vers la gauche</text></g><g id="elem_pause_menu"><ellipse cx="222.4394" cy="410.0879" fill="#F1F1F1" rx="63.4394" ry="15.0879" style="stroke:#181818;stroke-width:0.5;"/><text fill="#000000" font-family="sans-serif" font-size="14" lengthAdjust="spacing" textLength="77.0547" x="180.9121" y="413.9038">Menu pause</text></g><g id="elem_resume_game"><ellipse cx="556.2382" cy="434.9476" fill="#F1F1F1" rx="80.2382" ry="18.4476" style="stroke:#181818;stroke-width:0.5;"/><text fill="#000000" font-family="sans-serif" font-size="14" lengthAdjust="spacing" textLength="119.8477" x="496.3144" y="438.0302">Reprendre la partie</text></g><g id="elem_quit_game"><ellipse cx="555.7558" cy="364.9512" fill="#F1F1F1" rx="70.2558" ry="16.4512" style="stroke:#181818;stroke-width:0.5;"/><text fill="#000000" font-family="sans-serif" font-size="14" lengthAdjust="spacing" textLength="95.71" x="506.8302" y="368.3202">Quitter la partie</text></g><!--entity player--><g id="elem_player"><ellipse cx="27.4033" cy="282.5" fill="#F1F1F1" rx="8" ry="8" style="stroke:#181818;stroke-width:0.5;"/><path d="M27.4033,290.5 L27.4033,317.5 M14.4033,298.5 L40.4033,298.5 M27.4033,317.5 L14.4033,332.5 M27.4033,317.5 L40.4033,332.5 " fill="none" style="stroke:#181818;stroke-width:0.5;"/><text fill="#000000" font-family="sans-serif" font-size="14" lengthAdjust="spacing" textLength="42.8066" x="6" y="347.1318">Joueur</text></g><!--link player to move_piece--><g id="link_player_move_piece"><path d="M46.81,273.61 C56.91,255.7 70.88,235.25 88,221 C110.02,202.66 138.9,189.55 164.16,180.65 " fill="none" id="player-move_piece" style="stroke:#181818;stroke-width:1;"/></g><!--link player to pause_menu--><g id="link_player_pause_menu"><path d="M49,341.26 C59.33,353.99 72.87,368.02 88,377 C111.3,390.84 140.18,398.89 165.11,403.57 " fill="none" id="player-pause_menu" style="stroke:#181818;stroke-width:1;"/></g><!--link player to throw_penalty--><g id="link_player_throw_penalty"><path d="M49.15,315.1 C74.34,318.89 118.15,325.47 155.29,331.05 " fill="none" id="player-throw_penalty" style="stroke:#181818;stroke-width:1;"/></g><!--link player to change_malus_target--><g id="link_player_change_malus_target"><path d="M49.48,304.39 C58.5,301.27 69.2,297.74 79,295 C98.9,289.43 120.57,284.17 140.87,279.57 " fill="none" id="player-change_malus_target" style="stroke:#181818;stroke-width:1;"/></g><!--reverse link move_piece to lateral_movement--><g id="link_move_piece_lateral_movement"><path d="M313.1288,157.4261 C364.1488,153.1261 423.08,148.14 473.67,143.87 " fill="none" id="move_piece-backto-lateral_movement" style="stroke:#181818;stroke-width:1;stroke-dasharray:7.0,7.0;"/><polygon fill="#181818" points="307.15,157.93,316.4541,161.16,312.1323,157.5101,315.7823,153.1883,307.15,157.93" style="stroke:#181818;stroke-width:1;"/><text fill="#000000" font-family="sans-serif" font-size="13" lengthAdjust="spacing" textLength="53.4917" x="365" y="146.1938">&#171;extend&#187;</text></g><!--reverse link move_piece to increase_descent--><g id="link_move_piece_increase_descent"><path d="M282.1196,146.789 C344.8196,127.299 442.82,96.85 504.47,77.7 " fill="none" id="move_piece-backto-increase_descent" style="stroke:#181818;stroke-width:1;stroke-dasharray:7.0,7.0;"/><polygon fill="#181818" points="276.39,148.57,286.1717,149.7182,281.1646,147.0858,283.797,142.0788,276.39,148.57" style="stroke:#181818;stroke-width:1;"/><text fill="#000000" font-family="sans-serif" font-size="13" lengthAdjust="spacing" textLength="53.4917" x="365" y="102.1938">&#171;extend&#187;</text></g><!--reverse link move_piece to rotate_piece--><g id="link_move_piece_rotate_piece"><path d="M305.4905,176.623 C360.7405,184.463 429.06,194.14 483.28,201.83 " fill="none" id="move_piece-backto-rotate_piece" style="stroke:#181818;stroke-width:1;stroke-dasharray:7.0,7.0;"/><polygon fill="#181818" points="299.55,175.78,307.8988,181.0048,304.5004,176.4825,309.0227,173.0841,299.55,175.78" style="stroke:#181818;stroke-width:1;"/><text fill="#000000" font-family="sans-serif" font-size="13" lengthAdjust="spacing" textLength="53.4917" x="365" y="183.1938">&#171;extend&#187;</text></g><!--reverse link lateral_movement to move_right--><g id="link_lateral_movement_move_right"><path d="M620.9483,153.1105 C644.6383,158.5405 666.55,162.79 692,166 C721.15,169.68 753.18,171.59 781.93,172.54 " fill="none" id="lateral_movement-backto-move_right" style="stroke:#181818;stroke-width:1;stroke-dasharray:7.0,7.0;"/><polygon fill="#181818" points="615.1,151.77,622.9788,157.6796,619.9736,152.8871,624.7662,149.8819,615.1,151.77" style="stroke:#181818;stroke-width:1;"/><text fill="#000000" font-family="sans-serif" font-size="13" lengthAdjust="spacing" textLength="53.4917" x="693" y="163.1938">&#171;extend&#187;</text></g><!--reverse link lateral_movement to move_left--><g id="link_lateral_movement_move_left"><path d="M638.7215,126.5587 C685.9415,120.5187 740.71,113.52 788.9,107.36 " fill="none" id="lateral_movement-backto-move_left" style="stroke:#181818;stroke-width:1;stroke-dasharray:7.0,7.0;"/><polygon fill="#181818" points="632.77,127.32,642.2048,130.1458,637.7296,126.6856,641.1898,122.2104,632.77,127.32" style="stroke:#181818;stroke-width:1;"/><text fill="#000000" font-family="sans-serif" font-size="13" lengthAdjust="spacing" textLength="53.4917" x="693" y="111.1938">&#171;extend&#187;</text></g><!--reverse link pause_menu to resume_game--><g id="link_pause_menu_resume_game"><path d="M288.1672,415.8131 C313.0772,417.9931 336.46,419.96 363,422 C400.98,424.92 443.2,427.82 478.37,430.13 " fill="none" id="pause_menu-backto-resume_game" style="stroke:#181818;stroke-width:1;stroke-dasharray:7.0,7.0;"/><polygon fill="#181818" points="282.19,415.29,290.807,420.0594,287.171,415.7259,291.5045,412.0899,282.19,415.29" style="stroke:#181818;stroke-width:1;"/><text fill="#000000" font-family="sans-serif" font-size="13" lengthAdjust="spacing" textLength="53.4917" x="365" y="419.1938">&#171;extend&#187;</text></g><!--reverse link pause_menu to quit_game--><g id="link_pause_menu_quit_game"><path d="M283.8155,401.813 C343.4155,393.723 432.85,381.58 494.7,373.18 " fill="none" id="pause_menu-backto-quit_game" style="stroke:#181818;stroke-width:1;stroke-dasharray:7.0,7.0;"/><polygon fill="#181818" points="277.87,402.62,287.3262,405.3731,282.8246,401.9475,286.2502,397.4458,277.87,402.62" style="stroke:#181818;stroke-width:1;"/><text fill="#000000" font-family="sans-serif" font-size="13" lengthAdjust="spacing" textLength="53.4917" x="365" y="381.1938">&#171;extend&#187;</text></g><!--link change_malus_target to choose_malus_target--><g id="link_change_malus_target_choose_malus_target"><path d="M326.57,271.39 C367.91,274.76 409.3698,278.1431 450.2698,281.4731 " fill="none" id="change_malus_target-to-choose_malus_target" style="stroke:#181818;stroke-width:1;stroke-dasharray:7.0,7.0;"/><polygon fill="#181818" points="456.25,281.96,447.6043,277.2428,451.2665,281.5543,446.9551,285.2165,456.25,281.96" style="stroke:#181818;stroke-width:1;"/><text fill="#000000" font-family="sans-serif" font-size="13" lengthAdjust="spacing" textLength="55.6563" x="364" y="272.1938">&#171;include&#187;</text></g><!--SRC=[bLJRQXin47tVhnWsKDjGvmD228Ia50g9qzRGnqMMnbvHhRJHnQuf_Q1yHtwi8sdZtNKSGlAqdfmpbtDcDBaDJC4dk3UseOyx8t1IJE1-iVno0RyGk0bA01C2ofO5X-LdA2swq619hD9vqyA6nLzIfmzeK8UYKBZsu0rOkQaz26cHUsbqmRWt5hwPWC42Sz0gjaTR5F7_J6yKGld0h9S8Duev9ny3fIPSIlst0FgRd9sTmK_39LFvTzVj3a4OFV5Giot6sh9f5L8xr4Wj7Qo21-bXboPQ8J0QpYXO8_F1OfUAHkJCKHT2EXuysbITrymNVV6liPdhD91BqGFhzlc99k9e8MXOehUcaTga78tPOjLAv3YcB4smcWWq-fXWZMV-9EMc9gaYXKQGAo8A92LHCqN2kPUE2LAHfy5LdjaD3WTOjB5tM9CL2N6StaWdtqblZ3kPVhcuNLnqw3qqoVuazee9q2JS4EPhQtQWGKbzAB47pdIYaC1RKa20qMeFSWthgPvrsEJn2b6JYT5cWes7GBqr- -n3bpSrdYfMNMIWI7G7ajJWmYgcSDrQqUQK-CUZ5ZIwhx5RwT-utnahaePnlTxQ0yNyyvDbUH5J2nH12bInP0oEcTUSFpyfecH_INfEc7m4KdEBXAgww5irjsXT8biZEshQljJvUwGD2xmUaE8b3uHwYAz0Fl9HeZkAG7uYqbt7h-erx0UsbgIq64krwTBpigStfTgyBCY1y3r8xxCM0_WZHJFuNr7aDmJcy-6DzS51Atrml0Tz_EJTJFkyCxYSdyFqsCFP1LnUvYsvkZg1FtRkFVpmze-mhqfdHc_m1_3Hsp6SXktrUcccz-OezolemPUZhDCJkixWV7u5qnDFIIAJP2e89FP_]--></g></svg>