<?xml version="1.0" encoding="UTF-8" standalone="no"?><svg xmlns="http://www.w3.org/2000/svg" xmlns:xlink="http://www.w3.org/1999/xlink" contentStyleType="text/css" height="390px" preserveAspectRatio="none" style="width:907px;height:390px;background:#FFFFFF;" version="1.1" viewBox="0 0 907 390" width="907px" zoomAndPan="magnify"><defs/><g><!--cluster matchmaking--><g id="cluster_matchmaking"><rect fill="none" height="377" rx="2.5" ry="2.5" style="stroke:#181818;stroke-width:1.0;" width="622.47" x="147" y="7"/><text fill="#000000" font-family="sans-serif" font-size="14" font-weight="bold" lengthAdjust="spacing" textLength="96" x="410.235" y="23.9659">Matchmaking</text></g><!--entity server--><g id="elem_server"><path d="M824.9594,155.0622 C828.5233,149.1189 833.0095,149.862 836.222,155.4068 C839.3548,150.4199 842.8806,149.556 846.8745,154.4813 C849.9006,148.7029 855.2475,147.9209 859.5234,153.029 C863.1024,149.399 866.1179,149.3541 868.5653,154.2316 C872.6154,149.2908 876.6768,148.975 879.8969,155.0828 C883.6219,149.9259 887.8579,149.1802 891.6573,155.0031 C899.6161,159.4656 899.5463,165.7698 893.3598,171.6767 C899.7187,178.251 900.1398,184.9114 890.7047,189.0755 C889.2575,195.0475 884.62,195.253 880.6583,191.7385 C877.9902,197.1826 874.7022,198.2096 870.0748,193.8548 C868.3338,199.7733 865.5985,202.5261 859.566,198.3005 C853.9926,202.058 848.7742,201.8545 847.2962,193.9803 C843.3808,198.1713 839.3802,196.6809 837.2828,191.9419 C831.9064,197.7583 827.7484,196.1116 825.1362,189.286 C816.2523,184.4608 816.5283,178.3117 824.835,173.1653 C816.211,167.1156 816.8402,160.9969 824.9594,155.0622 " fill="#F1F1F1" style="stroke:#181818;stroke-width:0.5;"/><text fill="#000000" font-family="sans-serif" font-size="14" lengthAdjust="spacing" textLength="52" x="831.47" y="176.4359">Serveur</text></g><g id="elem_play_game"><ellipse cx="245.001" cy="65.0002" fill="#F1F1F1" rx="82.001" ry="18.8002" style="stroke:#181818;stroke-width:0.5;"/><text fill="#000000" font-family="sans-serif" font-size="14" lengthAdjust="spacing" textLength="109" x="187.501" y="69.7332">Jouer une partie</text></g><g id="elem_select_gamemode"><ellipse cx="599.7417" cy="341.9963" fill="#F1F1F1" rx="116.7317" ry="25.7463" style="stroke:#181818;stroke-width:0.5;"/><text fill="#000000" font-family="sans-serif" font-size="14" lengthAdjust="spacing" textLength="194" x="499.7417" y="346.7293">Sélectionner un mode de jeu</text></g><g id="elem_start_game"><ellipse cx="599.7413" cy="65.0023" fill="#F1F1F1" rx="85.7113" ry="19.5423" style="stroke:#181818;stroke-width:0.5;"/><text fill="#000000" font-family="sans-serif" font-size="14" lengthAdjust="spacing" textLength="119" x="537.2413" y="69.7352">Lancer une partie</text></g><g id="elem_create_queue"><ellipse cx="599.741" cy="260.0022" fill="#F1F1F1" rx="94.711" ry="21.3422" style="stroke:#181818;stroke-width:0.5;"/><text fill="#000000" font-family="sans-serif" font-size="14" lengthAdjust="spacing" textLength="142" x="525.741" y="264.7352">Créer la file d'attente</text></g><g id="elem_add_players_to_queue"><ellipse cx="599.7362" cy="170.9972" fill="#F1F1F1" rx="153.7362" ry="33.1472" style="stroke:#181818;stroke-width:0.5;"/><text fill="#000000" font-family="sans-serif" font-size="14" lengthAdjust="spacing" textLength="274" x="462.7362" y="174.4292">Ajouter des joueurs dans la file d'attente</text></g><!--entity user--><g id="elem_user"><ellipse cx="41" cy="33.97" fill="#F1F1F1" rx="8" ry="8" style="stroke:#181818;stroke-width:0.5;"/><path d="M41,41.97 L41,68.97 M28,49.97 L54,49.97 M41,68.97 L28,83.97 M41,68.97 L54,83.97 " fill="none" style="stroke:#181818;stroke-width:0.5;"/><text fill="#000000" font-family="sans-serif" font-size="14" lengthAdjust="spacing" textLength="70" x="6" y="100.4359">Utilisateur</text></g><!--link play_game to start_game--><g id="link_play_game_start_game"><path d="M327.37,65 C381.15,65 451.72,65 507.42,65 " fill="none" id="play_game-to-start_game" style="stroke:#181818;stroke-width:1.0;stroke-dasharray:7.0,7.0;"/><polygon fill="#181818" points="512.27,65,503.27,61,507.27,65,503.27,69,512.27,65" style="stroke:#181818;stroke-width:1.0;"/><text fill="#000000" font-family="sans-serif" font-size="13" lengthAdjust="spacing" textLength="57" x="358" y="60.897">«include»</text></g><!--reverse link select_gamemode to start_game--><g id="link_select_gamemode_start_game"><path d="M488.16,329.31 C448.34,318.36 408.44,298.25 388.54,261.5 C362.52,213.45 340.93,215.53 446,120 C469.7,98.45 502.43,85.21 531.61,77.14 " fill="none" id="select_gamemode-backto-start_game" style="stroke:#181818;stroke-width:1.0;stroke-dasharray:7.0,7.0;"/><polygon fill="#181818" points="492.56,330.47,484.8923,324.2889,487.7284,329.1835,482.8338,332.0196,492.56,330.47" style="stroke:#181818;stroke-width:1.0;"/><text fill="#000000" font-family="sans-serif" font-size="13" lengthAdjust="spacing" textLength="57" x="358" y="257.397">«include»</text></g><!--link create_queue to start_game--><g id="link_create_queue_start_game"><path d="M508.82,253.54 C462.58,244.75 411.51,225.04 389.04,181.5 C358.33,121.98 448.62,91.32 520.46,76.72 " fill="none" id="create_queue-to-start_game" style="stroke:#181818;stroke-width:1.0;stroke-dasharray:7.0,7.0;"/><polygon fill="#181818" points="524.99,75.82,515.384,73.6466,520.0855,76.7923,516.9397,81.4938,524.99,75.82" style="stroke:#181818;stroke-width:1.0;"/><text fill="#000000" font-family="sans-serif" font-size="13" lengthAdjust="spacing" textLength="56" x="358.5" y="177.397">«extend»</text></g><!--link add_players_to_queue to start_game--><g id="link_add_players_to_queue_start_game"><path d="M599.74,137.46 C599.74,122.42 599.74,104.95 599.74,90.93 " fill="none" id="add_players_to_queue-to-start_game" style="stroke:#181818;stroke-width:1.0;stroke-dasharray:7.0,7.0;"/><polygon fill="#181818" points="599.74,86.26,595.74,95.26,599.74,91.26,603.74,95.26,599.74,86.26" style="stroke:#181818;stroke-width:1.0;"/><text fill="#000000" font-family="sans-serif" font-size="13" lengthAdjust="spacing" textLength="56" x="559.24" y="116.597">«extend»</text></g><!--link create_queue to server--><g id="link_create_queue_server"><path d="M681.77,248.92 C712.49,243.1 747.32,234.49 777.47,222 C793.61,215.32 810.06,205.31 823.74,195.93 " fill="none" id="create_queue-server" style="stroke:#181818;stroke-width:1.0;"/></g><!--link add_players_to_queue to server--><g id="link_add_players_to_queue_server"><path d="M753.93,171 C776.91,171 798.75,171 816.32,171 " fill="none" id="add_players_to_queue-server" style="stroke:#181818;stroke-width:1.0;"/></g><!--link start_game to server--><g id="link_start_game_server"><path d="M660.35,79.21 C695.34,88.61 739.92,102.44 777.47,120 C792.85,127.19 808.78,136.96 822.26,146.02 " fill="none" id="start_game-server" style="stroke:#181818;stroke-width:1.0;"/></g><!--link user to play_game--><g id="link_user_play_game"><path d="M76.27,65 C100.02,65 132.68,65 162.87,65 " fill="none" id="user-play_game" style="stroke:#181818;stroke-width:1.0;"/></g><!--SRC=[TLB1Ri8m3BtdAonsu5G-026aQJjDGnpOpbMKc3OiJLZYmAQ93-8x-B4vXQr5bAY7n7xl-TcrnJK1UGYcgWcq2QZ8U2Ua8X_WdOmrKHAc0392YXY463-yBP-NKuYrJrR37a5g3HjlNCRi3Eun03yQIQfkv8TnbI1V8TKS_n70HrcVD8nM67OiFSgycE-idjFPX7ILHHWjEf4MrXEzQEN3nfIC37_nYOiaXx2LWGosdAsLtsKb6nItXDNfQCyjkvO8ZTS8_6qmNNpbV4lFgG69L-dKRT58VBzNzIcSZaon4jQ6kzHZIOIEpamLa2TUVYPCGzp7ZK_4P8sHXywW445B5- -eyRyfym0mn9ByHJKB7iH1YF_HmAIOzpnFOJOpJjcaSJuNNHmcbXScGw_7SXS_Ap9XSjLK1kCNMzJ3s27BLnpHLuEY-5kU8M8ltIlL1KLUwlpkjWH-0G00]--></g></svg>