<svg xmlns="http://www.w3.org/2000/svg" xmlns:xlink="http://www.w3.org/1999/xlink" contentStyleType="text/css" height="684px" preserveAspectRatio="none" style="width:848px;height:684px;background:#FFFFFF;" version="1.1" viewBox="0 0 848 684" width="848px" zoomAndPan="magnify"><defs/><g><rect fill="#FFFFFF" height="577.4775" style="stroke:#181818;stroke-width:1;" width="10" x="19.3379" y="91.0986"/><rect fill="#FFFFFF" height="474.5801" style="stroke:#181818;stroke-width:1;" width="10" x="148.7642" y="112.0474"/><rect fill="#FFFFFF" height="554.4775" style="stroke:#181818;stroke-width:1;" width="10" x="370.6294" y="91.0986"/><rect fill="#FFFFFF" height="241.3413" style="stroke:#181818;stroke-width:1;" width="10" x="635.8301" y="419.2349"/><rect fill="#FFFFFF" height="14" style="stroke:#181818;stroke-width:1;" width="10" x="750.4951" y="374.2861"/><rect fill="#FFFFFF" height="45" style="stroke:#181818;stroke-width:1;" width="10" x="750.4951" y="615.5762"/><rect fill="none" height="324.1875" style="stroke:#000000;stroke-width:1.5;" width="733.5513" x="93.6987" y="336.3887"/><rect fill="none" height="219.3413" style="stroke:#000000;stroke-width:1.5;" width="713.5513" x="103.6987" y="434.2349"/><line style="stroke:#181818;stroke-width:0.5;stroke-dasharray:5.0,5.0;" x1="24" x2="24" y1="81.0986" y2="677.5762"/><line style="stroke:#181818;stroke-width:0.5;stroke-dasharray:5.0,5.0;" x1="153.6987" x2="153.6987" y1="81.0986" y2="677.5762"/><line style="stroke:#181818;stroke-width:0.5;stroke-dasharray:5.0,5.0;" x1="374.9365" x2="374.9365" y1="81.0986" y2="677.5762"/><line style="stroke:#181818;stroke-width:0.5;stroke-dasharray:5.0,5.0;" x1="639.9199" x2="639.9199" y1="81.0986" y2="677.5762"/><line style="stroke:#181818;stroke-width:0.5;stroke-dasharray:5.0,5.0;" x1="754.7402" x2="754.7402" y1="81.0986" y2="677.5762"/><text fill="#000000" font-family="sans-serif" font-size="14" lengthAdjust="spacing" textLength="32.6758" x="5" y="78.1318">Actor</text><ellipse cx="24.3379" cy="13.5" fill="#E2E2F0" rx="8" ry="8" style="stroke:#181818;stroke-width:0.5;"/><path d="M24.3379,21.5 L24.3379,48.5 M11.3379,29.5 L37.3379,29.5 M24.3379,48.5 L11.3379,63.5 M24.3379,48.5 L37.3379,63.5 " fill="none" style="stroke:#181818;stroke-width:0.5;"/><rect fill="#E2E2F0" height="30.0986" rx="2.5" ry="2.5" style="stroke:#181818;stroke-width:0.5;" width="80.1309" x="113.6987" y="50"/><text fill="#000000" font-family="sans-serif" font-size="14" lengthAdjust="spacing" textLength="66.1309" x="120.6987" y="70.1318">RegisterUI</text><rect fill="#E2E2F0" height="30.0986" rx="2.5" ry="2.5" style="stroke:#181818;stroke-width:0.5;" width="121.3857" x="314.9365" y="50"/><text fill="#000000" font-family="sans-serif" font-size="14" lengthAdjust="spacing" textLength="107.3857" x="321.9365" y="70.1318">RegisterManager</text><rect fill="#E2E2F0" height="30.0986" rx="2.5" ry="2.5" style="stroke:#181818;stroke-width:0.5;" width="105.8203" x="587.9199" y="50"/><text fill="#000000" font-family="sans-serif" font-size="14" lengthAdjust="spacing" textLength="91.8203" x="594.9199" y="70.1318">AccountServer</text><rect fill="#E2E2F0" height="30.0986" rx="2.5" ry="2.5" style="stroke:#181818;stroke-width:0.5;" width="103.5098" x="703.7402" y="50"/><text fill="#000000" font-family="sans-serif" font-size="14" lengthAdjust="spacing" textLength="89.5098" x="710.7402" y="70.1318">LoginManager</text><rect fill="#FFFFFF" height="577.4775" style="stroke:#181818;stroke-width:1;" width="10" x="19.3379" y="91.0986"/><rect fill="#FFFFFF" height="474.5801" style="stroke:#181818;stroke-width:1;" width="10" x="148.7642" y="112.0474"/><rect fill="#FFFFFF" height="554.4775" style="stroke:#181818;stroke-width:1;" width="10" x="370.6294" y="91.0986"/><rect fill="#FFFFFF" height="241.3413" style="stroke:#181818;stroke-width:1;" width="10" x="635.8301" y="419.2349"/><rect fill="#FFFFFF" height="14" style="stroke:#181818;stroke-width:1;" width="10" x="750.4951" y="374.2861"/><rect fill="#FFFFFF" height="45" style="stroke:#181818;stroke-width:1;" width="10" x="750.4951" y="615.5762"/><polygon fill="#181818" points="136.7642,108.0474,146.7642,112.0474,136.7642,116.0474" style="stroke:#181818;stroke-width:1;"/><line style="stroke:#181818;stroke-width:1;" x1="29.3379" x2="142.7642" y1="112.0474" y2="112.0474"/><text fill="#000000" font-family="sans-serif" font-size="13" lengthAdjust="spacing" textLength="100.4263" x="36.3379" y="107.2925">registerRequest()</text><polygon fill="#181818" points="169.7642,136.9961,159.7642,140.9961,169.7642,144.9961" style="stroke:#181818;stroke-width:1;"/><line style="stroke:#181818;stroke-width:1;" x1="163.7642" x2="369.6294" y1="140.9961" y2="140.9961"/><text fill="#000000" font-family="sans-serif" font-size="13" lengthAdjust="spacing" textLength="187.8652" x="175.7642" y="136.2412">getCredentials(name, password)</text><line style="stroke:#181818;stroke-width:1;" x1="368.6294" x2="358.6294" y1="169.9448" y2="165.9448"/><line style="stroke:#181818;stroke-width:1;" x1="368.6294" x2="358.6294" y1="169.9448" y2="173.9448"/><line style="stroke:#181818;stroke-width:1;stroke-dasharray:2.0,2.0;" x1="158.7642" x2="369.6294" y1="169.9448" y2="169.9448"/><text fill="#000000" font-family="sans-serif" font-size="13" lengthAdjust="spacing" textLength="93.9453" x="165.7642" y="165.1899">sendCredentials</text><line style="stroke:#181818;stroke-width:1;" x1="380.6294" x2="422.6294" y1="198.8936" y2="198.8936"/><line style="stroke:#181818;stroke-width:1;" x1="422.6294" x2="422.6294" y1="198.8936" y2="211.8936"/><line style="stroke:#181818;stroke-width:1;" x1="381.6294" x2="422.6294" y1="211.8936" y2="211.8936"/><polygon fill="#181818" points="391.6294,207.8936,381.6294,211.8936,391.6294,215.8936" style="stroke:#181818;stroke-width:1;"/><text fill="#000000" font-family="sans-serif" font-size="13" lengthAdjust="spacing" textLength="231.2007" x="387.6294" y="194.1387">checkCrentialsValidity(name, password)</text><line style="stroke:#181818;stroke-width:1;" x1="159.7642" x2="169.7642" y1="264.791" y2="260.791"/><line style="stroke:#181818;stroke-width:1;" x1="159.7642" x2="169.7642" y1="264.791" y2="268.791"/><line style="stroke:#181818;stroke-width:1;stroke-dasharray:2.0,2.0;" x1="158.7642" x2="369.6294" y1="264.791" y2="264.791"/><text fill="#000000" font-family="sans-serif" font-size="13" lengthAdjust="spacing" textLength="109.8398" x="175.7642" y="260.0361">invalidCreadnetials</text><line style="stroke:#181818;stroke-width:1;" x1="158.7642" x2="200.7642" y1="293.7397" y2="293.7397"/><line style="stroke:#181818;stroke-width:1;" x1="200.7642" x2="200.7642" y1="293.7397" y2="306.7397"/><line style="stroke:#181818;stroke-width:1;" x1="159.7642" x2="200.7642" y1="306.7397" y2="306.7397"/><polygon fill="#181818" points="169.7642,302.7397,159.7642,306.7397,169.7642,310.7397" style="stroke:#181818;stroke-width:1;"/><text fill="#000000" font-family="sans-serif" font-size="13" lengthAdjust="spacing" textLength="78.0127" x="165.7642" y="288.9849">displayError()</text><path d="M93.6987,336.3887 L153.8696,336.3887 L153.8696,343.3374 L143.8696,353.3374 L93.6987,353.3374 L93.6987,336.3887 " fill="#EEEEEE" style="stroke:#000000;stroke-width:1.5;"/><rect fill="none" height="324.1875" style="stroke:#000000;stroke-width:1.5;" width="733.5513" x="93.6987" y="336.3887"/><text fill="#000000" font-family="sans-serif" font-size="13" font-weight="bold" lengthAdjust="spacing" textLength="15.1709" x="108.6987" y="349.5825">alt</text><text fill="#000000" font-family="sans-serif" font-size="11" font-weight="bold" lengthAdjust="spacing" textLength="105.1606" x="168.8696" y="348.7065">[already_registered]</text><polygon fill="#181818" points="738.4951,370.2861,748.4951,374.2861,738.4951,378.2861" style="stroke:#181818;stroke-width:1;"/><line style="stroke:#181818;stroke-width:1;" x1="380.6294" x2="744.4951" y1="374.2861" y2="374.2861"/><text fill="#000000" font-family="sans-serif" font-size="13" lengthAdjust="spacing" textLength="196.5488" x="387.6294" y="369.5313">&#171;start&#187;  LoginManager(username)</text><polygon fill="#181818" points="835.25,384.2861,845.25,388.2861,835.25,392.2861" style="stroke:#181818;stroke-width:1;"/><line style="stroke:#181818;stroke-width:1;" x1="380.6294" x2="841.25" y1="388.2861" y2="388.2861"/><line style="stroke:#000000;stroke-width:1;stroke-dasharray:2.0,2.0;" x1="93.6987" x2="827.25" y1="397.2861" y2="397.2861"/><polygon fill="#181818" points="623.8301,415.2349,633.8301,419.2349,623.8301,423.2349" style="stroke:#181818;stroke-width:1;"/><line style="stroke:#181818;stroke-width:1;" x1="380.6294" x2="629.8301" y1="419.2349" y2="419.2349"/><text fill="#000000" font-family="sans-serif" font-size="13" lengthAdjust="spacing" textLength="138.0044" x="387.6294" y="414.48">attemptCreateAccount()</text><path d="M103.6987,434.2349 L163.8696,434.2349 L163.8696,441.1836 L153.8696,451.1836 L103.6987,451.1836 L103.6987,434.2349 " fill="#EEEEEE" style="stroke:#000000;stroke-width:1.5;"/><rect fill="none" height="219.3413" style="stroke:#000000;stroke-width:1.5;" width="713.5513" x="103.6987" y="434.2349"/><text fill="#000000" font-family="sans-serif" font-size="13" font-weight="bold" lengthAdjust="spacing" textLength="15.1709" x="118.6987" y="447.4287">alt</text><text fill="#000000" font-family="sans-serif" font-size="11" font-weight="bold" lengthAdjust="spacing" textLength="83.73" x="178.8696" y="446.5527">[Creation failed]</text><line style="stroke:#181818;stroke-width:1;" x1="381.6294" x2="391.6294" y1="472.1323" y2="468.1323"/><line style="stroke:#181818;stroke-width:1;" x1="381.6294" x2="391.6294" y1="472.1323" y2="476.1323"/><line style="stroke:#181818;stroke-width:1;stroke-dasharray:2.0,2.0;" x1="380.6294" x2="634.8301" y1="472.1323" y2="472.1323"/><text fill="#000000" font-family="sans-serif" font-size="13" lengthAdjust="spacing" textLength="81.6563" x="397.6294" y="467.3774">creationFailed</text><line style="stroke:#181818;stroke-width:1;" x1="158.7642" x2="200.7642" y1="501.0811" y2="501.0811"/><line style="stroke:#181818;stroke-width:1;" x1="200.7642" x2="200.7642" y1="501.0811" y2="514.0811"/><line style="stroke:#181818;stroke-width:1;" x1="159.7642" x2="200.7642" y1="514.0811" y2="514.0811"/><polygon fill="#181818" points="169.7642,510.0811,159.7642,514.0811,169.7642,518.0811" style="stroke:#181818;stroke-width:1;"/><text fill="#000000" font-family="sans-serif" font-size="13" lengthAdjust="spacing" textLength="78.0127" x="165.7642" y="496.3262">displayError()</text><line style="stroke:#000000;stroke-width:1;stroke-dasharray:2.0,2.0;" x1="103.6987" x2="817.25" y1="523.0811" y2="523.0811"/><text fill="#000000" font-family="sans-serif" font-size="11" font-weight="bold" lengthAdjust="spacing" textLength="28.7354" x="108.6987" y="533.3989">[else]</text><line style="stroke:#181818;stroke-width:1;" x1="381.6294" x2="391.6294" y1="557.6787" y2="553.6787"/><line style="stroke:#181818;stroke-width:1;" x1="381.6294" x2="391.6294" y1="557.6787" y2="561.6787"/><line style="stroke:#181818;stroke-width:1;stroke-dasharray:2.0,2.0;" x1="380.6294" x2="634.8301" y1="557.6787" y2="557.6787"/><text fill="#000000" font-family="sans-serif" font-size="13" lengthAdjust="spacing" textLength="96.8398" x="397.6294" y="552.9238">creationSucceed</text><line style="stroke:#181818;stroke-width:1;" x1="154.7642" x2="164.7642" y1="586.6274" y2="582.6274"/><line style="stroke:#181818;stroke-width:1;" x1="154.7642" x2="164.7642" y1="586.6274" y2="590.6274"/><line style="stroke:#181818;stroke-width:1;stroke-dasharray:2.0,2.0;" x1="153.7642" x2="369.6294" y1="586.6274" y2="586.6274"/><text fill="#000000" font-family="sans-serif" font-size="13" lengthAdjust="spacing" textLength="57.0908" x="170.7642" y="581.8726">&#171;destroy&#187;</text><polygon fill="#181818" points="738.4951,611.5762,748.4951,615.5762,738.4951,619.5762" style="stroke:#181818;stroke-width:1;"/><line style="stroke:#181818;stroke-width:1;" x1="380.6294" x2="744.4951" y1="615.5762" y2="615.5762"/><text fill="#000000" font-family="sans-serif" font-size="13" lengthAdjust="spacing" textLength="39.7427" x="387.6294" y="610.8213">&#171;start&#187;</text><!--SRC=[dLDDQyCm3BtdL_ZOml87HWYKiS5WkxHiro5iBJDpdCnMElBl9wTfPwVkeBi8REazVJp9VshRWuDMU1eDidLQqj2QeW19dHERO0iE8Irr3vR45Xlj2TtBO_Rx6Imqc48sKdQ3fHsw_SBpr3NQ7Y6SKU-1S4vwUYwfYyaloZggHTmADp-s-3MWfzNwd85hZY1LkQHcbWRfpg52IngCNrbeyKRquFrtvzGwXfTbNMS8F5eLCHJBY387aXyeFnbrmBo2qKhJU9OT30bjzy7zPuguicaslo1G5bDKQ6KHhhJl3OptpdMEvuZ6emXcAW1CO1dVZlD6bUinLfOPgyeJwyvr9PxLuD65BYEnaft8C1SAyx5JcJb4idzS311XsmUTcMDsnkkIxcleUGhLdHNle0qtd39Us0GvWnuEc7_CMroNQ3T8YJavplQXgXIVYEl6kex76Tt9DPfUq2v3V3fXFfABEaR_QViJIlm0]--></g></svg>