<svg xmlns="http://www.w3.org/2000/svg" xmlns:xlink="http://www.w3.org/1999/xlink" contentStyleType="text/css" height="615px" preserveAspectRatio="none" style="width:921px;height:615px;background:#FFFFFF;" version="1.1" viewBox="0 0 921 615" width="921px" zoomAndPan="magnify"><defs/><g><rect fill="#FFFFFF" height="508.5801" style="stroke:#181818;stroke-width:1;" width="10" x="19.3379" y="91.0986"/><rect fill="#FFFFFF" height="487.6313" style="stroke:#181818;stroke-width:1;" width="10" x="253.5513" y="112.0474"/><rect fill="#FFFFFF" height="458.6826" style="stroke:#181818;stroke-width:1;" width="10" x="458.1274" y="140.9961"/><rect fill="#FFFFFF" height="167.3926" style="stroke:#181818;stroke-width:1;" width="10" x="716.1699" y="321.3887"/><rect fill="#FFFFFF" height="30" style="stroke:#181818;stroke-width:1;" width="10" x="832.3799" y="546.6787"/><rect fill="none" height="393.7339" style="stroke:#000000;stroke-width:1.5;" width="706.7559" x="207.4238" y="197.9448"/><rect fill="none" height="248.29" style="stroke:#000000;stroke-width:1.5;" width="686.7559" x="217.4238" y="336.3887"/><line style="stroke:#181818;stroke-width:0.5;stroke-dasharray:5.0,5.0;" x1="24" x2="24" y1="81.0986" y2="608.6787"/><line style="stroke:#181818;stroke-width:0.5;stroke-dasharray:5.0,5.0;" x1="258.4238" x2="258.4238" y1="81.0986" y2="608.6787"/><line style="stroke:#181818;stroke-width:0.5;stroke-dasharray:5.0,5.0;" x1="462.3726" x2="462.3726" y1="81.0986" y2="608.6787"/><line style="stroke:#181818;stroke-width:0.5;stroke-dasharray:5.0,5.0;" x1="720.7598" x2="720.7598" y1="81.0986" y2="608.6787"/><line style="stroke:#181818;stroke-width:0.5;stroke-dasharray:5.0,5.0;" x1="836.5801" x2="836.5801" y1="81.0986" y2="608.6787"/><text fill="#000000" font-family="sans-serif" font-size="14" lengthAdjust="spacing" textLength="32.6758" x="5" y="78.1318">Actor</text><ellipse cx="24.3379" cy="13.5" fill="#E2E2F0" rx="8" ry="8" style="stroke:#181818;stroke-width:0.5;"/><path d="M24.3379,21.5 L24.3379,48.5 M11.3379,29.5 L37.3379,29.5 M24.3379,48.5 L11.3379,63.5 M24.3379,48.5 L37.3379,63.5 " fill="none" style="stroke:#181818;stroke-width:0.5;"/><rect fill="#E2E2F0" height="30.0986" rx="2.5" ry="2.5" style="stroke:#181818;stroke-width:0.5;" width="62.2549" x="227.4238" y="50"/><text fill="#000000" font-family="sans-serif" font-size="14" lengthAdjust="spacing" textLength="48.2549" x="234.4238" y="70.1318">LoginUI</text><rect fill="#E2E2F0" height="30.0986" rx="2.5" ry="2.5" style="stroke:#181818;stroke-width:0.5;" width="103.5098" x="411.3726" y="50"/><text fill="#000000" font-family="sans-serif" font-size="14" lengthAdjust="spacing" textLength="89.5098" x="418.3726" y="70.1318">LoginManager</text><rect fill="#E2E2F0" height="30.0986" rx="2.5" ry="2.5" style="stroke:#181818;stroke-width:0.5;" width="98.8203" x="671.7598" y="50"/><text fill="#000000" font-family="sans-serif" font-size="14" lengthAdjust="spacing" textLength="84.8203" x="678.7598" y="70.1318">AcountServer</text><rect fill="#E2E2F0" height="30.0986" rx="2.5" ry="2.5" style="stroke:#181818;stroke-width:0.5;" width="113.5996" x="780.5801" y="50"/><text fill="#000000" font-family="sans-serif" font-size="14" lengthAdjust="spacing" textLength="99.5996" x="787.5801" y="70.1318">MainUIManager</text><rect fill="#FFFFFF" height="508.5801" style="stroke:#181818;stroke-width:1;" width="10" x="19.3379" y="91.0986"/><rect fill="#FFFFFF" height="487.6313" style="stroke:#181818;stroke-width:1;" width="10" x="253.5513" y="112.0474"/><rect fill="#FFFFFF" height="458.6826" style="stroke:#181818;stroke-width:1;" width="10" x="458.1274" y="140.9961"/><rect fill="#FFFFFF" height="167.3926" style="stroke:#181818;stroke-width:1;" width="10" x="716.1699" y="321.3887"/><rect fill="#FFFFFF" height="30" style="stroke:#181818;stroke-width:1;" width="10" x="832.3799" y="546.6787"/><polygon fill="#181818" points="241.5513,108.0474,251.5513,112.0474,241.5513,116.0474" style="stroke:#181818;stroke-width:1;"/><line style="stroke:#181818;stroke-width:1;" x1="29.3379" x2="247.5513" y1="112.0474" y2="112.0474"/><text fill="#000000" font-family="sans-serif" font-size="13" lengthAdjust="spacing" textLength="205.2134" x="36.3379" y="107.2925">loginRequest(username, password)</text><polygon fill="#181818" points="446.1274,136.9961,456.1274,140.9961,446.1274,144.9961" style="stroke:#181818;stroke-width:1;"/><line style="stroke:#181818;stroke-width:1;" x1="263.5513" x2="452.1274" y1="140.9961" y2="140.9961"/><text fill="#000000" font-family="sans-serif" font-size="13" lengthAdjust="spacing" textLength="175.5762" x="270.5513" y="136.2412">tryLogin(username, password)</text><line style="stroke:#181818;stroke-width:1;" x1="468.1274" x2="510.1274" y1="169.9448" y2="169.9448"/><line style="stroke:#181818;stroke-width:1;" x1="510.1274" x2="510.1274" y1="169.9448" y2="182.9448"/><line style="stroke:#181818;stroke-width:1;" x1="469.1274" x2="510.1274" y1="182.9448" y2="182.9448"/><polygon fill="#181818" points="479.1274,178.9448,469.1274,182.9448,479.1274,186.9448" style="stroke:#181818;stroke-width:1;"/><text fill="#000000" font-family="sans-serif" font-size="13" lengthAdjust="spacing" textLength="150.2808" x="475.1274" y="165.1899">checkCredentialsValidity()</text><path d="M207.4238,197.9448 L267.5947,197.9448 L267.5947,204.8936 L257.5947,214.8936 L207.4238,214.8936 L207.4238,197.9448 " fill="#EEEEEE" style="stroke:#000000;stroke-width:1.5;"/><rect fill="none" height="393.7339" style="stroke:#000000;stroke-width:1.5;" width="706.7559" x="207.4238" y="197.9448"/><text fill="#000000" font-family="sans-serif" font-size="13" font-weight="bold" lengthAdjust="spacing" textLength="15.1709" x="222.4238" y="211.1387">alt</text><text fill="#000000" font-family="sans-serif" font-size="11" font-weight="bold" lengthAdjust="spacing" textLength="95.3638" x="282.5947" y="210.2627">[invalidUsername]</text><polygon fill="#181818" points="274.5513,231.8423,264.5513,235.8423,274.5513,239.8423" style="stroke:#181818;stroke-width:1;"/><line style="stroke:#181818;stroke-width:1;stroke-dasharray:2.0,2.0;" x1="268.5513" x2="457.1274" y1="235.8423" y2="235.8423"/><text fill="#000000" font-family="sans-serif" font-size="13" lengthAdjust="spacing" textLength="96.8208" x="280.5513" y="231.0874">invalidUsername</text><line style="stroke:#181818;stroke-width:1;" x1="263.5513" x2="305.5513" y1="264.791" y2="264.791"/><line style="stroke:#181818;stroke-width:1;" x1="305.5513" x2="305.5513" y1="264.791" y2="277.791"/><line style="stroke:#181818;stroke-width:1;" x1="264.5513" x2="305.5513" y1="277.791" y2="277.791"/><polygon fill="#181818" points="274.5513,273.791,264.5513,277.791,274.5513,281.791" style="stroke:#181818;stroke-width:1;"/><text fill="#000000" font-family="sans-serif" font-size="13" lengthAdjust="spacing" textLength="78.0127" x="270.5513" y="260.0361">displayError()</text><line style="stroke:#000000;stroke-width:1;stroke-dasharray:2.0,2.0;" x1="207.4238" x2="914.1797" y1="286.791" y2="286.791"/><text fill="#000000" font-family="sans-serif" font-size="11" font-weight="bold" lengthAdjust="spacing" textLength="28.7354" x="212.4238" y="297.1089">[else]</text><polygon fill="#181818" points="704.1699,317.3887,714.1699,321.3887,704.1699,325.3887" style="stroke:#181818;stroke-width:1;"/><line style="stroke:#181818;stroke-width:1;" x1="468.1274" x2="710.1699" y1="321.3887" y2="321.3887"/><text fill="#000000" font-family="sans-serif" font-size="13" lengthAdjust="spacing" textLength="229.0425" x="475.1274" y="316.6338">checkCredentials(username, password)</text><path d="M217.4238,336.3887 L277.5947,336.3887 L277.5947,343.3374 L267.5947,353.3374 L217.4238,353.3374 L217.4238,336.3887 " fill="#EEEEEE" style="stroke:#000000;stroke-width:1.5;"/><rect fill="none" height="248.29" style="stroke:#000000;stroke-width:1.5;" width="686.7559" x="217.4238" y="336.3887"/><text fill="#000000" font-family="sans-serif" font-size="13" font-weight="bold" lengthAdjust="spacing" textLength="15.1709" x="232.4238" y="349.5825">alt</text><text fill="#000000" font-family="sans-serif" font-size="11" font-weight="bold" lengthAdjust="spacing" textLength="102.0776" x="292.5947" y="348.7065">[InvalidCredentials]</text><polygon fill="#181818" points="479.1274,370.2861,469.1274,374.2861,479.1274,378.2861" style="stroke:#181818;stroke-width:1;"/><line style="stroke:#181818;stroke-width:1;stroke-dasharray:2.0,2.0;" x1="473.1274" x2="715.1699" y1="374.2861" y2="374.2861"/><text fill="#000000" font-family="sans-serif" font-size="13" lengthAdjust="spacing" textLength="103.3335" x="485.1274" y="369.5313">InvalidCredentials</text><polygon fill="#181818" points="274.5513,399.2349,264.5513,403.2349,274.5513,407.2349" style="stroke:#181818;stroke-width:1;"/><line style="stroke:#181818;stroke-width:1;stroke-dasharray:2.0,2.0;" x1="268.5513" x2="457.1274" y1="403.2349" y2="403.2349"/><text fill="#000000" font-family="sans-serif" font-size="13" lengthAdjust="spacing" textLength="103.3335" x="280.5513" y="398.48">InvalidCredentials</text><line style="stroke:#181818;stroke-width:1;" x1="263.5513" x2="305.5513" y1="432.1836" y2="432.1836"/><line style="stroke:#181818;stroke-width:1;" x1="305.5513" x2="305.5513" y1="432.1836" y2="445.1836"/><line style="stroke:#181818;stroke-width:1;" x1="264.5513" x2="305.5513" y1="445.1836" y2="445.1836"/><polygon fill="#181818" points="274.5513,441.1836,264.5513,445.1836,274.5513,449.1836" style="stroke:#181818;stroke-width:1;"/><text fill="#000000" font-family="sans-serif" font-size="13" lengthAdjust="spacing" textLength="78.0127" x="270.5513" y="427.4287">displayError()</text><line style="stroke:#000000;stroke-width:1;stroke-dasharray:2.0,2.0;" x1="217.4238" x2="904.1797" y1="454.1836" y2="454.1836"/><text fill="#000000" font-family="sans-serif" font-size="11" font-weight="bold" lengthAdjust="spacing" textLength="28.7354" x="222.4238" y="464.5015">[else]</text><polygon fill="#181818" points="479.1274,484.7813,469.1274,488.7813,479.1274,492.7813" style="stroke:#181818;stroke-width:1;"/><line style="stroke:#181818;stroke-width:1;stroke-dasharray:2.0,2.0;" x1="473.1274" x2="720.1699" y1="488.7813" y2="488.7813"/><text fill="#000000" font-family="sans-serif" font-size="13" lengthAdjust="spacing" textLength="81.6499" x="485.1274" y="484.0264">validCrendials</text><polygon fill="#181818" points="274.5513,513.73,264.5513,517.73,274.5513,521.73" style="stroke:#181818;stroke-width:1;"/><line style="stroke:#181818;stroke-width:1;stroke-dasharray:2.0,2.0;" x1="268.5513" x2="457.1274" y1="517.73" y2="517.73"/><text fill="#000000" font-family="sans-serif" font-size="13" lengthAdjust="spacing" textLength="57.0908" x="280.5513" y="512.9751">&#171;destroy&#187;</text><polygon fill="#181818" points="820.3799,542.6787,830.3799,546.6787,820.3799,550.6787" style="stroke:#181818;stroke-width:1;"/><line style="stroke:#181818;stroke-width:1;" x1="468.1274" x2="826.3799" y1="546.6787" y2="546.6787"/><text fill="#000000" font-family="sans-serif" font-size="13" lengthAdjust="spacing" textLength="50.5908" x="475.1274" y="541.9238">&#171;create&#187;</text><!--SRC=[ZLJ1Ri8m3BtdAtm3fF434wg4fXsGneM9tRt4G4H9kYImzU_d1b8QMiPwIAdpthFz7EBtsbJey00-r2NnwhGCnqCfK0RhODwiWX51IrsX2V1cjzgi5_tO4WrkAGVFfJsQy4xkTBEnn4OaKSIekxUYhVQ1NBihHd97Sl_YI9496al_WQLMEjJZ2Jm3Q-jD3M57SBh4mMxYjznnRvArF6WJ8qTFpk21-ffTBNsXNtU1VhYeA9CrDLgOcBGZn38NChOXPS7OS4S4sEXFL52Xzz_MATXm0CqPhSqMK4OqEy7Dw1C6EWy6nFarBT9OE7VP_5hHrv5y6ATsdrhnoLKZZJ9nfqLta4qRhewHVyWaae21HsIGLEqrp_tn2Ym3snKjNgVHDPAvOcR03Hok-DXZ1wcqhqgiNvspZdDHwGdYCf2Yo4VMBthGf4QdCxFEmOaxtDp0-Mazp39E-xxrkItr3tyUiHwurE1kdFfFhIcdKLb6HVVjUT37RARuY3jR5yKTU97VCv4J_vU1EfosWFnI6gZmvjQAJXZL771-YLy0]--></g></svg>