<svg xmlns="http://www.w3.org/2000/svg" xmlns:xlink="http://www.w3.org/1999/xlink" contentStyleType="text/css" height="540px" preserveAspectRatio="none" style="width:1012px;height:540px;background:#FFFFFF;" version="1.1" viewBox="0 0 1012 540" width="1012px" zoomAndPan="magnify"><defs/><g><!--cluster game--><g id="cluster_game"><rect fill="none" height="527" rx="2.5" ry="2.5" style="stroke:#181818;stroke-width:1;" width="910" x="96" y="7"/><text fill="#000000" font-family="sans-serif" font-size="14" font-weight="bold" lengthAdjust="spacing" textLength="174.2549" x="463.8726" y="22.1318">Partie Comp&#233;tition Royale</text></g><g id="elem_move_piece"><ellipse cx="224.9946" cy="174.9989" fill="#F1F1F1" rx="87.9946" ry="19.9989" style="stroke:#181818;stroke-width:0.5;"/><text fill="#000000" font-family="sans-serif" font-size="14" lengthAdjust="spacing" textLength="137.7236" x="156.1328" y="178.0814">D&#233;placer le Tetromino</text></g><g id="elem_rotate_piece"><ellipse cx="540.4256" cy="211.8851" fill="#F1F1F1" rx="84.9256" ry="19.3851" style="stroke:#181818;stroke-width:0.5;"/><text fill="#000000" font-family="sans-serif" font-size="14" lengthAdjust="spacing" textLength="130.7168" x="475.0672" y="214.9676">Tourner le Tetromino</text></g><g id="elem_use_energy"><ellipse cx="224.9047" cy="346.9809" fill="#F1F1F1" rx="112.9047" ry="24.9809" style="stroke:#181818;stroke-width:0.5;"/><text fill="#000000" font-family="sans-serif" font-size="14" lengthAdjust="spacing" textLength="192.541" x="128.6342" y="350.0635">Consommer sa barre d'&#233;nergie</text></g><g id="elem_throw_penalty"><ellipse cx="540.7411" cy="358.9482" fill="#F1F1F1" rx="80.2411" ry="18.4482" style="stroke:#181818;stroke-width:0.5;"/><text fill="#000000" font-family="sans-serif" font-size="14" lengthAdjust="spacing" textLength="119.8545" x="480.8139" y="362.0307">Envoyer un penalty</text></g><g id="elem_choose_penalty"><ellipse cx="866.3264" cy="443.0653" fill="#F1F1F1" rx="123.3264" ry="27.0653" style="stroke:#181818;stroke-width:0.5;"/><text fill="#000000" font-family="sans-serif" font-size="14" lengthAdjust="spacing" textLength="214.792" x="758.9304" y="446.1478">Choisir un des penalties &#224; envoyer</text></g><g id="elem_choose_target"><ellipse cx="866.7388" cy="358.9478" fill="#F1F1F1" rx="97.7388" ry="21.9478" style="stroke:#181818;stroke-width:0.5;"/><text fill="#000000" font-family="sans-serif" font-size="14" lengthAdjust="spacing" textLength="159.5303" x="786.9737" y="362.0303">Choisir la cible du penalty</text></g><g id="elem_get_bonus"><ellipse cx="540.5517" cy="285.8103" fill="#F1F1F1" rx="82.0517" ry="18.8103" style="stroke:#181818;stroke-width:0.5;"/><text fill="#000000" font-family="sans-serif" font-size="14" lengthAdjust="spacing" textLength="124.0791" x="478.5121" y="288.8929">S'octroyer un bonus</text></g><g id="elem_choose_bonus"><ellipse cx="866.5779" cy="276.1156" fill="#F1F1F1" rx="118.5779" ry="26.1156" style="stroke:#181818;stroke-width:0.5;"/><text fill="#000000" font-family="sans-serif" font-size="14" lengthAdjust="spacing" textLength="204.6885" x="764.2337" y="279.1981">Choisir un des bonus &#224; appliquer</text></g><g id="elem_lateral_movement"><ellipse cx="540.6576" cy="136.9315" fill="#F1F1F1" rx="87.6576" ry="19.9315" style="stroke:#181818;stroke-width:0.5;"/><text fill="#000000" font-family="sans-serif" font-size="14" lengthAdjust="spacing" textLength="136.958" x="472.1786" y="140.014">D&#233;placer lat&#233;ralement</text></g><g id="elem_increase_descent"><ellipse cx="540.634" cy="62.2268" fill="#F1F1F1" rx="86.634" ry="19.7268" style="stroke:#181818;stroke-width:0.5;"/><text fill="#000000" font-family="sans-serif" font-size="14" lengthAdjust="spacing" textLength="134.627" x="473.3206" y="65.3093">Acc&#233;l&#233;rer la descente</text></g><g id="elem_move_right"><ellipse cx="866.526" cy="194.2052" fill="#F1F1F1" rx="89.026" ry="20.2052" style="stroke:#181818;stroke-width:0.5;"/><text fill="#000000" font-family="sans-serif" font-size="14" lengthAdjust="spacing" textLength="140.0615" x="796.4952" y="197.2877">D&#233;placer vers la droite</text></g><g id="elem_move_left"><ellipse cx="866.3831" cy="118.1766" fill="#F1F1F1" rx="93.8831" ry="21.1766" style="stroke:#181818;stroke-width:0.5;"/><text fill="#000000" font-family="sans-serif" font-size="14" lengthAdjust="spacing" textLength="150.9717" x="790.8972" y="121.2591">D&#233;placer vers la gauche</text></g><g id="elem_pause_menu"><ellipse cx="224.9394" cy="427.0879" fill="#F1F1F1" rx="63.4394" ry="15.0879" style="stroke:#181818;stroke-width:0.5;"/><text fill="#000000" font-family="sans-serif" font-size="14" lengthAdjust="spacing" textLength="77.0547" x="183.4121" y="430.9038">Menu pause</text></g><g id="elem_resume_game"><ellipse cx="540.7382" cy="498.9476" fill="#F1F1F1" rx="80.2382" ry="18.4476" style="stroke:#181818;stroke-width:0.5;"/><text fill="#000000" font-family="sans-serif" font-size="14" lengthAdjust="spacing" textLength="119.8477" x="480.8144" y="502.0302">Reprendre la partie</text></g><g id="elem_quit_game"><ellipse cx="540.2558" cy="428.9512" fill="#F1F1F1" rx="70.2558" ry="16.4512" style="stroke:#181818;stroke-width:0.5;"/><text fill="#000000" font-family="sans-serif" font-size="14" lengthAdjust="spacing" textLength="95.71" x="491.3302" y="432.3202">Quitter la partie</text></g><!--entity player--><g id="elem_player"><ellipse cx="27.4033" cy="317.5" fill="#F1F1F1" rx="8" ry="8" style="stroke:#181818;stroke-width:0.5;"/><path d="M27.4033,325.5 L27.4033,352.5 M14.4033,333.5 L40.4033,333.5 M27.4033,352.5 L14.4033,367.5 M27.4033,352.5 L40.4033,367.5 " fill="none" style="stroke:#181818;stroke-width:0.5;"/><text fill="#000000" font-family="sans-serif" font-size="14" lengthAdjust="spacing" textLength="42.8066" x="6" y="382.1318">Joueur</text></g><!--link player to move_piece--><g id="link_player_move_piece"><path d="M49.05,328.92 C86.11,296.32 163.81,227.96 201.94,194.41 " fill="none" id="player-move_piece" style="stroke:#181818;stroke-width:1;"/></g><!--link player to pause_menu--><g id="link_player_pause_menu"><path d="M49.16,364.24 C60.13,372.69 74.18,382.43 88,389 C115.57,402.1 148.49,411.44 175.03,417.59 " fill="none" id="player-pause_menu" style="stroke:#181818;stroke-width:1;"/></g><!--link player to use_energy--><g id="link_player_use_energy"><path d="M49.05,347 C64.74,347 87.7,347 111.87,347 " fill="none" id="player-use_energy" style="stroke:#181818;stroke-width:1;"/></g><!--reverse link move_piece to lateral_movement--><g id="link_move_piece_lateral_movement"><path d="M309.0464,164.9381 C357.7264,159.0381 414.41,152.16 462.98,146.28 " fill="none" id="move_piece-backto-lateral_movement" style="stroke:#181818;stroke-width:1;stroke-dasharray:7.0,7.0;"/><polygon fill="#181818" points="303.09,165.66,312.5059,168.5481,308.0537,165.0584,311.5433,160.6062,303.09,165.66" style="stroke:#181818;stroke-width:1;"/><text fill="#000000" font-family="sans-serif" font-size="13" lengthAdjust="spacing" textLength="53.4917" x="369" y="149.1938">&#171;extend&#187;</text></g><!--reverse link move_piece to increase_descent--><g id="link_move_piece_increase_descent"><path d="M278.5748,156.0463 C338.1948,134.5663 434.75,99.76 493.78,78.48 " fill="none" id="move_piece-backto-increase_descent" style="stroke:#181818;stroke-width:1;stroke-dasharray:7.0,7.0;"/><polygon fill="#181818" points="272.93,158.08,282.753,158.7926,277.634,156.3852,280.0414,151.2662,272.93,158.08" style="stroke:#181818;stroke-width:1;"/><text fill="#000000" font-family="sans-serif" font-size="13" lengthAdjust="spacing" textLength="53.4917" x="369" y="103.1938">&#171;extend&#187;</text></g><!--reverse link move_piece to rotate_piece--><g id="link_move_piece_rotate_piece"><path d="M296.3337,189.5742 C320.5537,194.1942 342.5,197.86 368,201 C396.72,204.54 428.3,206.97 456.45,208.64 " fill="none" id="move_piece-backto-rotate_piece" style="stroke:#181818;stroke-width:1;stroke-dasharray:7.0,7.0;"/><polygon fill="#181818" points="290.44,188.45,298.5311,194.0655,295.3514,189.3869,300.0301,186.2072,290.44,188.45" style="stroke:#181818;stroke-width:1;"/><text fill="#000000" font-family="sans-serif" font-size="13" lengthAdjust="spacing" textLength="53.4917" x="369" y="198.1938">&#171;extend&#187;</text></g><!--reverse link lateral_movement to move_right--><g id="link_lateral_movement_move_right"><path d="M616.1192,150.1299 C670.7292,159.7399 740.89,172.08 795.77,181.73 " fill="none" id="lateral_movement-backto-move_right" style="stroke:#181818;stroke-width:1;stroke-dasharray:7.0,7.0;"/><polygon fill="#181818" points="610.21,149.09,618.3806,154.5893,615.1343,149.9566,619.7671,146.7103,610.21,149.09" style="stroke:#181818;stroke-width:1;"/><text fill="#000000" font-family="sans-serif" font-size="13" lengthAdjust="spacing" textLength="53.4917" x="659" y="156.1938">&#171;extend&#187;</text></g><!--reverse link lateral_movement to move_left--><g id="link_lateral_movement_move_left"><path d="M631.3497,131.7287 C677.3797,129.0287 728.49,126.03 775.46,123.28 " fill="none" id="lateral_movement-backto-move_left" style="stroke:#181818;stroke-width:1;stroke-dasharray:7.0,7.0;"/><polygon fill="#181818" points="625.36,132.08,634.5788,135.5461,630.3514,131.7872,634.1103,127.5599,625.36,132.08" style="stroke:#181818;stroke-width:1;"/><text fill="#000000" font-family="sans-serif" font-size="13" lengthAdjust="spacing" textLength="53.4917" x="659" y="125.1938">&#171;extend&#187;</text></g><!--reverse link pause_menu to resume_game--><g id="link_pause_menu_resume_game"><path d="M277.0978,438.7328 C333.0578,451.5828 422.47,472.12 483.12,486.05 " fill="none" id="pause_menu-backto-resume_game" style="stroke:#181818;stroke-width:1;stroke-dasharray:7.0,7.0;"/><polygon fill="#181818" points="271.25,437.39,279.1265,443.3028,276.1232,438.509,280.9169,435.5057,271.25,437.39" style="stroke:#181818;stroke-width:1;"/><text fill="#000000" font-family="sans-serif" font-size="13" lengthAdjust="spacing" textLength="53.4917" x="369" y="458.1938">&#171;extend&#187;</text></g><!--reverse link pause_menu to quit_game--><g id="link_pause_menu_quit_game"><path d="M294.6899,427.4378 C347.0399,427.7678 415.61,428.21 469.83,428.56 " fill="none" id="pause_menu-backto-quit_game" style="stroke:#181818;stroke-width:1;stroke-dasharray:7.0,7.0;"/><polygon fill="#181818" points="288.69,427.4,297.6646,431.4567,293.6899,427.4315,297.715,423.4568,288.69,427.4" style="stroke:#181818;stroke-width:1;"/><text fill="#000000" font-family="sans-serif" font-size="13" lengthAdjust="spacing" textLength="53.4917" x="369" y="425.1938">&#171;extend&#187;</text></g><!--reverse link use_energy to throw_penalty--><g id="link_use_energy_throw_penalty"><path d="M342.5256,351.4596 C383.7756,353.0396 423.72,354.57 461.45,356.01 " fill="none" id="use_energy-backto-throw_penalty" style="stroke:#181818;stroke-width:1;stroke-dasharray:7.0,7.0;"/><polygon fill="#181818" points="336.53,351.23,345.3703,355.5715,341.5263,351.4214,345.6765,347.5774,336.53,351.23" style="stroke:#181818;stroke-width:1;"/><text fill="#000000" font-family="sans-serif" font-size="13" lengthAdjust="spacing" textLength="53.4917" x="369" y="350.1938">&#171;extend&#187;</text></g><!--reverse link throw_penalty to choose_penalty--><g id="link_throw_penalty_choose_penalty"><path d="M600.4482,374.285 C652.5082,387.775 726.68,407.01 786.26,422.46 " fill="none" id="throw_penalty-backto-choose_penalty" style="stroke:#181818;stroke-width:1;stroke-dasharray:7.0,7.0;"/><polygon fill="#181818" points="594.64,372.78,602.3489,378.9097,599.4801,374.0342,604.3556,371.1654,594.64,372.78" style="stroke:#181818;stroke-width:1;"/><text fill="#000000" font-family="sans-serif" font-size="13" lengthAdjust="spacing" textLength="53.4917" x="659" y="389.1938">&#171;extend&#187;</text></g><!--reverse link throw_penalty to choose_target--><g id="link_throw_penalty_choose_target"><path d="M626.76,359 C671.44,359 721.6,359 768.85,359 " fill="none" id="throw_penalty-backto-choose_target" style="stroke:#181818;stroke-width:1;stroke-dasharray:7.0,7.0;"/><polygon fill="#181818" points="620.76,359,629.76,363,625.76,359,629.76,355,620.76,359" style="stroke:#181818;stroke-width:1;"/><text fill="#000000" font-family="sans-serif" font-size="13" lengthAdjust="spacing" textLength="53.4917" x="659" y="356.1938">&#171;extend&#187;</text></g><!--reverse link use_energy to get_bonus--><g id="link_use_energy_get_bonus"><path d="M316.3095,329.424 C368.7295,319.224 429.07,307.49 476.81,298.2 " fill="none" id="use_energy-backto-get_bonus" style="stroke:#181818;stroke-width:1;stroke-dasharray:7.0,7.0;"/><polygon fill="#181818" points="310.42,330.57,320.0183,332.7774,315.328,329.615,318.4903,324.9246,310.42,330.57" style="stroke:#181818;stroke-width:1;"/><text fill="#000000" font-family="sans-serif" font-size="13" lengthAdjust="spacing" textLength="53.4917" x="369" y="307.1938">&#171;extend&#187;</text></g><!--reverse link get_bonus to choose_bonus--><g id="link_get_bonus_choose_bonus"><path d="M628.0071,283.3338 C666.3271,282.1438 706.89,280.9 748.98,279.6 " fill="none" id="get_bonus-backto-choose_bonus" style="stroke:#181818;stroke-width:1;stroke-dasharray:7.0,7.0;"/><polygon fill="#181818" points="622.01,283.52,631.1298,287.2387,627.0076,283.3648,630.8815,279.2426,622.01,283.52" style="stroke:#181818;stroke-width:1;"/><text fill="#000000" font-family="sans-serif" font-size="13" lengthAdjust="spacing" textLength="53.4917" x="659" y="278.1938">&#171;extend&#187;</text></g><!--SRC=[bLJRQjj047tNLmmAr0dK_O0G0Y49XKAQDZ7qqQnNOskfjAlipjerfV_ILt-7VwopkqhaLMxKJzBud9ap5vt9dTcAPdffsWv9aLeZt9WA9yK4ljxEha_X1u8qlgb0L1MKdV0EouzGMdI-nH8-GEd8TB0IuKtf-00jQbyK3Iu9o81LgvgWKXObAQCB8SbO-68yUWl2GTU8BTgY2FyBlMeGoc_2aa88ilQxeCjeY4gv23DYaTy5y6zoT7G4zqOgqQJtNlS6eJ9wGb0BxebLgBPha8Mnf5evM7W2HR29lIqG1BTf6bYY86-nJyNDIk5OJwMSz8GsLfUre68e_Zc8kOYjkHXzObtjTzoRH0lSqmp9cbPf4tEqPetpJg74d38ptkgN2DQGe4TAAZwxlRezvMwisSmxrAAXBV1WLqZWQeNSbrg6lj2IuCqyUA5vb8nP0dADrHPu3XQ5hB7ALLnoAwPjMOSJi13MyZ0d-rqWgRG1XivJaiZCwTTwRNYZu3NqkY8dKpegM1lbL6HKw7gMugVzNzOQi_MZDuOhlvcZuPRLWWTO-QnypoLXUK95phsV6CdJxaKlZFOk7HhIFBwzAJSYWbJHTOrwyBdOn1_k9QmUuXx1-KL8wFgRvNMK-8jGLroTQko_d9-utHXRmPAN6sxtrICJjDzPaQuyAk08Sc0UIePWphoGShzhc1AveHF9cBHVfILV1gllew_LNADraMoDwgdnjAFozqWhuVds1b8mZD5YRjX98BbEj8hmD8_sai7kiBCyDhvJJjj5yqXVJRIfUV2BdF3TAwBKzm7yWQC9_ASeaYt1T7huiGx10ob3yF2pA8u7tWcSJJ_1yNWV9wTmTfOsVdx-0dwyXVVmXoOnmZuhdHZ3ilu37_QKmulZOHoFMeRHZr8_WpwDVPnq66UFp2nab3R_B-5plyW8y2OZkSIxUfxyOQHbY6TPNu3-0m00]--></g></svg>