<svg xmlns="http://www.w3.org/2000/svg" xmlns:xlink="http://www.w3.org/1999/xlink" contentStyleType="text/css" height="558px" preserveAspectRatio="none" style="width:1445px;height:558px;background:#FFFFFF;" version="1.1" viewBox="0 0 1445 558" width="1445px" zoomAndPan="magnify"><defs/><g><!--cluster main_menu--><g id="cluster_main_menu"><rect fill="none" height="545" rx="2.5" ry="2.5" style="stroke:#181818;stroke-width:1;" width="1324" x="115" y="7"/><text fill="#000000" font-family="sans-serif" font-size="14" font-weight="bold" lengthAdjust="spacing" textLength="99.5723" x="727.2139" y="22.1318">Menu Principal</text></g><g id="elem_play_game"><ellipse cx="238.9417" cy="133.8883" fill="#F1F1F1" rx="72.4417" ry="16.8883" style="stroke:#181818;stroke-width:0.5;"/><text fill="#000000" font-family="sans-serif" font-size="14" lengthAdjust="spacing" textLength="101.1787" x="188.3201" y="136.9799">Jouer une partie</text></g><g id="elem_join_friend_game"><ellipse cx="239.2024" cy="209.9405" fill="#F1F1F1" rx="107.7024" ry="23.9405" style="stroke:#181818;stroke-width:0.5;"/><text fill="#000000" font-family="sans-serif" font-size="14" lengthAdjust="spacing" textLength="181.3164" x="148.5442" y="213.023">Rejoindre partie sur invitation</text></g><g id="elem_invite_friend"><ellipse cx="600.8883" cy="134.0777" fill="#F1F1F1" rx="65.8883" ry="15.5777" style="stroke:#181818;stroke-width:0.5;"/><text fill="#000000" font-family="sans-serif" font-size="14" lengthAdjust="spacing" textLength="84.0342" x="555.8712" y="137.8936">Inviter un ami</text></g><g id="elem_choose_gamemode"><ellipse cx="600.7586" cy="63.0517" fill="#F1F1F1" rx="90.7586" ry="20.5517" style="stroke:#181818;stroke-width:0.5;"/><text fill="#000000" font-family="sans-serif" font-size="14" lengthAdjust="spacing" textLength="143.9717" x="528.7728" y="66.1342">Choisir un mode de jeu</text></g><g id="elem_manage_profile"><ellipse cx="239.0595" cy="286.0119" fill="#F1F1F1" rx="70.5595" ry="16.5119" style="stroke:#181818;stroke-width:0.5;"/><text fill="#000000" font-family="sans-serif" font-size="14" lengthAdjust="spacing" textLength="96.4824" x="189.8982" y="289.3424">G&#233;rer son profil</text></g><g id="elem_manage_friendlist"><ellipse cx="239.2019" cy="356.2404" fill="#F1F1F1" rx="81.7019" ry="18.7404" style="stroke:#181818;stroke-width:0.5;"/><text fill="#000000" font-family="sans-serif" font-size="14" lengthAdjust="spacing" textLength="123.2656" x="177.5691" y="359.3229">G&#233;rer la liste d'amis</text></g><g id="elem_chat_with_friend"><ellipse cx="239.0654" cy="434.0131" fill="#F1F1F1" rx="108.0654" ry="24.0131" style="stroke:#181818;stroke-width:0.5;"/><text fill="#000000" font-family="sans-serif" font-size="14" lengthAdjust="spacing" textLength="182.1025" x="148.0141" y="437.0956">Envoyer un mesage &#224; un ami</text></g><g id="elem_choose_friend_to_chat"><ellipse cx="601.1302" cy="505.826" fill="#F1F1F1" rx="137.1302" ry="29.826" style="stroke:#181818;stroke-width:0.5;"/><text fill="#000000" font-family="sans-serif" font-size="14" lengthAdjust="spacing" textLength="243.8994" x="479.1805" y="508.9086">Choisir l'ami a qui envoyer un message</text></g><g id="elem_choose_friend"><ellipse cx="1325.7295" cy="134.9459" fill="#F1F1F1" rx="97.7295" ry="21.9459" style="stroke:#181818;stroke-width:0.5;"/><text fill="#000000" font-family="sans-serif" font-size="14" lengthAdjust="spacing" textLength="159.5098" x="1245.9747" y="138.0284">Choisir un ou des ami(es)</text></g><g id="elem_change_password"><ellipse cx="601.0573" cy="281.0115" fill="#F1F1F1" rx="100.5573" ry="22.5115" style="stroke:#181818;stroke-width:0.5;"/><text fill="#000000" font-family="sans-serif" font-size="14" lengthAdjust="spacing" textLength="165.7373" x="518.1886" y="284.094">Modifier son mot-de-passe</text></g><g id="elem_change_nickname"><ellipse cx="600.9123" cy="203.9825" fill="#F1F1F1" rx="82.9123" ry="18.9825" style="stroke:#181818;stroke-width:0.5;"/><text fill="#000000" font-family="sans-serif" font-size="14" lengthAdjust="spacing" textLength="126.0752" x="537.8747" y="207.065">Modifier son pseudo</text></g><g id="elem_add_friend"><ellipse cx="601.1677" cy="425.0335" fill="#F1F1F1" rx="68.1677" ry="16.0335" style="stroke:#181818;stroke-width:0.5;"/><text fill="#000000" font-family="sans-serif" font-size="14" lengthAdjust="spacing" textLength="90.2686" x="553.8624" y="428.6677">Ajouter un ami</text></g><g id="elem_remove_friend"><ellipse cx="600.785" cy="356.157" fill="#F1F1F1" rx="76.285" ry="17.657" style="stroke:#181818;stroke-width:0.5;"/><text fill="#000000" font-family="sans-serif" font-size="14" lengthAdjust="spacing" textLength="110.4893" x="545.5404" y="359.2395">Supprimer un ami</text></g><g id="elem_invite_friend_as_player"><ellipse cx="981.7537" cy="182.7507" fill="#F1F1F1" rx="116.7537" ry="25.7507" style="stroke:#181818;stroke-width:0.5;"/><text fill="#000000" font-family="sans-serif" font-size="14" lengthAdjust="spacing" textLength="200.792" x="881.3577" y="185.8333">Inviter un ami en tant que joueur</text></g><g id="elem_invite_friend_as_viewer"><ellipse cx="982.0019" cy="94.2004" fill="#F1F1F1" rx="129.0019" ry="28.2004" style="stroke:#181818;stroke-width:0.5;"/><text fill="#000000" font-family="sans-serif" font-size="14" lengthAdjust="spacing" textLength="226.8027" x="868.6005" y="97.2829">Inviter un ami en tant qu'observateur</text></g><g id="elem_view_ranking"><ellipse cx="238.812" cy="512.8624" fill="#F1F1F1" rx="87.312" ry="19.8624" style="stroke:#181818;stroke-width:0.5;"/><text fill="#000000" font-family="sans-serif" font-size="14" lengthAdjust="spacing" textLength="136.1719" x="170.7261" y="515.9449">Regarder Classement</text></g><!--entity user--><g id="elem_user"><ellipse cx="37.1206" cy="299.5" fill="#F1F1F1" rx="8" ry="8" style="stroke:#181818;stroke-width:0.5;"/><path d="M37.1206,307.5 L37.1206,334.5 M24.1206,315.5 L50.1206,315.5 M37.1206,334.5 L24.1206,349.5 M37.1206,334.5 L50.1206,349.5 " fill="none" style="stroke:#181818;stroke-width:0.5;"/><text fill="#000000" font-family="sans-serif" font-size="14" lengthAdjust="spacing" textLength="62.2412" x="6" y="364.1318">Utilisateur</text></g><!--reverse link play_game to invite_friend--><g id="link_play_game_invite_friend"><path d="M317.55,134 C382.66,134 471.94,134 534.93,134 " fill="none" id="play_game-backto-invite_friend" style="stroke:#181818;stroke-width:1;stroke-dasharray:7.0,7.0;"/><polygon fill="#181818" points="311.55,134,320.55,138,316.55,134,320.55,130,311.55,134" style="stroke:#181818;stroke-width:1;"/><text fill="#000000" font-family="sans-serif" font-size="13" lengthAdjust="spacing" textLength="53.4917" x="379" y="131.1938">&#171;extend&#187;</text></g><!--link play_game to choose_gamemode--><g id="link_play_game_choose_gamemode"><path d="M295.07,123.14 C358.69,110.59 457.5133,91.1005 526.1433,77.5705 " fill="none" id="play_game-to-choose_gamemode" style="stroke:#181818;stroke-width:1;stroke-dasharray:7.0,7.0;"/><polygon fill="#181818" points="532.03,76.41,522.4263,74.2263,527.1244,77.3771,523.9736,82.0753,532.03,76.41" style="stroke:#181818;stroke-width:1;"/><text fill="#000000" font-family="sans-serif" font-size="13" lengthAdjust="spacing" textLength="55.6563" x="378" y="94.1938">&#171;include&#187;</text></g><!--reverse link manage_friendlist to add_friend--><g id="link_manage_friendlist_add_friend"><path d="M307.7828,368.9893 C377.1328,382.2793 482.49,402.48 547.68,414.97 " fill="none" id="manage_friendlist-backto-add_friend" style="stroke:#181818;stroke-width:1;stroke-dasharray:7.0,7.0;"/><polygon fill="#181818" points="301.89,367.86,309.9763,373.4824,306.8006,368.8011,311.482,365.6254,301.89,367.86" style="stroke:#181818;stroke-width:1;"/><text fill="#000000" font-family="sans-serif" font-size="13" lengthAdjust="spacing" textLength="53.4917" x="379" y="380.1938">&#171;extend&#187;</text></g><!--reverse link manage_friendlist to remove_friend--><g id="link_manage_friendlist_remove_friend"><path d="M326.79,356 C387.74,356 464.75,356 524.4,356 " fill="none" id="manage_friendlist-backto-remove_friend" style="stroke:#181818;stroke-width:1;stroke-dasharray:7.0,7.0;"/><polygon fill="#181818" points="320.79,356,329.79,360,325.79,356,329.79,352,320.79,356" style="stroke:#181818;stroke-width:1;"/><text fill="#000000" font-family="sans-serif" font-size="13" lengthAdjust="spacing" textLength="53.4917" x="379" y="353.1938">&#171;extend&#187;</text></g><!--reverse link manage_profile to change_password--><g id="link_manage_profile_change_password"><path d="M315.4094,284.956 C369.6594,284.196 439.78,283.23 500.51,282.38 " fill="none" id="manage_profile-backto-change_password" style="stroke:#181818;stroke-width:1;stroke-dasharray:7.0,7.0;"/><polygon fill="#181818" points="309.41,285.04,318.4651,288.9135,314.4095,284.97,318.3531,280.9143,309.41,285.04" style="stroke:#181818;stroke-width:1;"/><text fill="#000000" font-family="sans-serif" font-size="13" lengthAdjust="spacing" textLength="53.4917" x="379" y="281.1938">&#171;extend&#187;</text></g><!--reverse link manage_profile to change_nickname--><g id="link_manage_profile_change_nickname"><path d="M295.9101,273.2671 C361.7901,258.2571 471.55,233.26 541.42,217.34 " fill="none" id="manage_profile-backto-change_nickname" style="stroke:#181818;stroke-width:1;stroke-dasharray:7.0,7.0;"/><polygon fill="#181818" points="290.06,274.6,299.7237,276.5007,294.9351,273.4893,297.9465,268.7006,290.06,274.6" style="stroke:#181818;stroke-width:1;"/><text fill="#000000" font-family="sans-serif" font-size="13" lengthAdjust="spacing" textLength="53.4917" x="379" y="240.1938">&#171;extend&#187;</text></g><!--reverse link invite_friend to invite_friend_as_player--><g id="link_invite_friend_invite_friend_as_player"><path d="M665.1004,142.1597 C723.6204,149.7297 809.83,160.87 880.56,170.01 " fill="none" id="invite_friend-backto-invite_friend_as_player" style="stroke:#181818;stroke-width:1;stroke-dasharray:7.0,7.0;"/><polygon fill="#181818" points="659.15,141.39,667.5625,146.5115,664.1087,142.0314,668.5888,138.5776,659.15,141.39" style="stroke:#181818;stroke-width:1;"/><text fill="#000000" font-family="sans-serif" font-size="13" lengthAdjust="spacing" textLength="53.4917" x="769" y="153.1938">&#171;extend&#187;</text></g><!--reverse link invite_friend to invite_friend_as_viewer--><g id="link_invite_friend_invite_friend_as_viewer"><path d="M667.6068,127.0795 C722.1168,121.3195 798.29,113.28 865.61,106.18 " fill="none" id="invite_friend-backto-invite_friend_as_viewer" style="stroke:#181818;stroke-width:1;stroke-dasharray:7.0,7.0;"/><polygon fill="#181818" points="661.64,127.71,671.0105,130.7421,666.6123,127.1846,670.1698,122.7864,661.64,127.71" style="stroke:#181818;stroke-width:1;"/><text fill="#000000" font-family="sans-serif" font-size="13" lengthAdjust="spacing" textLength="53.4917" x="769" y="109.1938">&#171;extend&#187;</text></g><!--link chat_with_friend to choose_friend_to_chat--><g id="link_chat_with_friend_choose_friend_to_chat"><path d="M319.9,449.98 C372.82,460.56 436.7965,473.3635 493.5065,484.7035 " fill="none" id="chat_with_friend-to-choose_friend_to_chat" style="stroke:#181818;stroke-width:1;stroke-dasharray:7.0,7.0;"/><polygon fill="#181818" points="499.39,485.88,491.349,480.1929,494.4871,484.8996,489.7804,488.0376,499.39,485.88" style="stroke:#181818;stroke-width:1;"/><text fill="#000000" font-family="sans-serif" font-size="13" lengthAdjust="spacing" textLength="55.6563" x="378" y="459.1938">&#171;include&#187;</text></g><!--link invite_friend_as_player to choose_friend--><g id="link_invite_friend_as_player_choose_friend"><path d="M1081.32,169.18 C1132.35,162.01 1188.0384,154.1851 1236.4884,147.3751 " fill="none" id="invite_friend_as_player-to-choose_friend" style="stroke:#181818;stroke-width:1;stroke-dasharray:7.0,7.0;"/><polygon fill="#181818" points="1242.43,146.54,1232.9609,143.8316,1237.4787,147.2359,1234.0744,151.7538,1242.43,146.54" style="stroke:#181818;stroke-width:1;"/><text fill="#000000" font-family="sans-serif" font-size="13" lengthAdjust="spacing" textLength="55.6563" x="1142" y="151.1938">&#171;include&#187;</text></g><!--link invite_friend_as_viewer to choose_friend--><g id="link_invite_friend_as_viewer_choose_friend"><path d="M1095.29,107.48 C1142.05,113.09 1189.4928,118.795 1232.9828,124.015 " fill="none" id="invite_friend_as_viewer-to-choose_friend" style="stroke:#181818;stroke-width:1;stroke-dasharray:7.0,7.0;"/><polygon fill="#181818" points="1238.94,124.73,1230.4808,119.686,1233.9756,124.1341,1229.5274,127.6289,1238.94,124.73" style="stroke:#181818;stroke-width:1;"/><text fill="#000000" font-family="sans-serif" font-size="13" lengthAdjust="spacing" textLength="55.6563" x="1142" y="111.1938">&#171;include&#187;</text></g><!--link user to play_game--><g id="link_user_play_game"><path d="M44.42,290.75 C52.59,253.99 70.33,199.51 107,168 C124.55,152.92 147.99,144.41 170.19,139.64 " fill="none" id="user-play_game" style="stroke:#181818;stroke-width:1;"/></g><!--link user to join_friend_game--><g id="link_user_join_friend_game"><path d="M65.19,290.94 C76.74,277.05 91.19,262.25 107,252 C123.63,241.22 143.25,233.01 162.17,226.84 " fill="none" id="user-join_friend_game" style="stroke:#181818;stroke-width:1;"/></g><!--link user to manage_profile--><g id="link_user_manage_profile"><path d="M68.21,322.44 C77.74,320.37 88.31,318.09 98,316 C127.28,309.69 160.02,302.67 186.46,297.01 " fill="none" id="user-manage_profile" style="stroke:#181818;stroke-width:1;"/></g><!--link user to manage_friendlist--><g id="link_user_manage_friendlist"><path d="M68.38,333.1 C94.82,336.67 134.16,341.98 168.3,346.59 " fill="none" id="user-manage_friendlist" style="stroke:#181818;stroke-width:1;"/></g><!--link user to chat_with_friend--><g id="link_user_chat_with_friend"><path d="M68,361.61 C79.37,372.48 92.96,383.87 107,392 C124.67,402.24 145.15,410.32 164.59,416.55 " fill="none" id="user-chat_with_friend" style="stroke:#181818;stroke-width:1;"/></g><!--link user to view_ranking--><g id="link_user_view_ranking"><path d="M46.57,367.05 C55.96,400.16 74.25,447.09 107,475 C122.86,488.52 143.3,497.23 163.29,502.85 " fill="none" id="user-view_ranking" style="stroke:#181818;stroke-width:1;"/></g><!--SRC=[bLLBRjim4Dtp58DaONlX72080XHf6xH0u299WUu4LgIbIIHIvSTfKFGktVOSkLY7b6IBajocXXSsDU_DyBsPqIBNTQqLU2jpRYLijO6QArx8R6jGAb6XTS2L04j_ibfQIyyOg-JMWTDWi2WT23GoTwWLuxaZXiyE2SUTz0Qu3UI6iH32LL59EBcHoiCdWoh7XbSd8QRcg8YUpdymeC_YzFGKhdajux- -l9EFsai3Nabek74e8xQf-7DMJ69lvOD69KmV2vRAGRL3nqEj4HeYkflEC7m8mJ4Vy1eZ8E9xSTfAGvMWcy1fK_nLgT5YnDTQIA3lW_IH9o-rjZBc38_OuT9tEaTUfKJNBxyDrM79gSReBVQQHQFQ4pcBg3W41odrWcvWXx23lododThfv_RIP3T5mikleG9voLtsXAuSYZ2vSXNo0OTl7a4cZ85oA46dljDPO6P75TIUzBEXZAMqgob39-5Dl5qdqn5VRhJ0BNQ2rjgjXLmttDg-BcfJafKEdhGHVu4sLdgXXo25-QFg-wYlfQql6Z5Vpvi7xKTzneMOrVVEDut1EWqsr4Exj2dRreNtRUhDNDQqkyabeFbqv1XrAOsPDzE6pxZDmhJHFB-EQg6_ql3luYgOfzkXV0hhOT__jrmzeYh6irnm8oZ3LHLyeaNX8br0PwP3_6HikTy5AxXOdy4ooRSwXuiB-TtHpylB9FPiVGdBqKp6QDfHbHSoX4_cfajni6h4VmoGs3MFwTgt0umwyZyWVJ-c4BQutxpTdCDzYHPigNqbuAkaQQrqWJcluClcbesacv7pq0qhI4jw5RHrVWHbo_5-ISr9jyN88dQylYd7sDwZzVqJoi8B3jRhmOkeFvcyN_PFHijxT3nOplsJoTxTFqc6WFq1]--></g></svg>