<svg xmlns="http://www.w3.org/2000/svg" xmlns:xlink="http://www.w3.org/1999/xlink" contentStyleType="text/css" height="394px" preserveAspectRatio="none" style="width:907px;height:394px;background:#FFFFFF;" version="1.1" viewBox="0 0 907 394" width="907px" zoomAndPan="magnify"><defs/><g><!--cluster game--><g id="cluster_game"><rect fill="none" height="381" rx="2.5" ry="2.5" style="stroke:#181818;stroke-width:1;" width="805" x="96" y="7"/><text fill="#000000" font-family="sans-serif" font-size="14" font-weight="bold" lengthAdjust="spacing" textLength="73.1377" x="461.9312" y="22.1318">Partie Duel</text></g><g id="elem_move_piece"><ellipse cx="202.0608" cy="137.9122" fill="#F1F1F1" rx="90.0608" ry="20.4122" style="stroke:#181818;stroke-width:0.5;"/><text fill="#000000" font-family="sans-serif" font-size="14" lengthAdjust="spacing" textLength="142.3994" x="130.8611" y="140.9947">D&#233;placer un Tetromino</text></g><g id="elem_rotate_piece"><ellipse cx="494.4256" cy="211.8851" fill="#F1F1F1" rx="84.9256" ry="19.3851" style="stroke:#181818;stroke-width:0.5;"/><text fill="#000000" font-family="sans-serif" font-size="14" lengthAdjust="spacing" textLength="130.7168" x="429.0672" y="214.9676">Tourner le Tetromino</text></g><g id="elem_throw_penalty"><ellipse cx="201.9073" cy="212.0815" fill="#F1F1F1" rx="80.9073" ry="18.5815" style="stroke:#181818;stroke-width:0.5;"/><text fill="#000000" font-family="sans-serif" font-size="14" lengthAdjust="spacing" textLength="121.4131" x="141.2008" y="215.164">envoyer n penalties</text></g><g id="elem_lateral_movement"><ellipse cx="494.6576" cy="136.9315" fill="#F1F1F1" rx="87.6576" ry="19.9315" style="stroke:#181818;stroke-width:0.5;"/><text fill="#000000" font-family="sans-serif" font-size="14" lengthAdjust="spacing" textLength="136.958" x="426.1786" y="140.014">D&#233;placer lat&#233;ralement</text></g><g id="elem_increase_descent"><ellipse cx="494.634" cy="62.2268" fill="#F1F1F1" rx="86.634" ry="19.7268" style="stroke:#181818;stroke-width:0.5;"/><text fill="#000000" font-family="sans-serif" font-size="14" lengthAdjust="spacing" textLength="134.627" x="427.3206" y="65.3093">Acc&#233;l&#233;rer la descente</text></g><g id="elem_move_right"><ellipse cx="791.026" cy="173.2052" fill="#F1F1F1" rx="89.026" ry="20.2052" style="stroke:#181818;stroke-width:0.5;"/><text fill="#000000" font-family="sans-serif" font-size="14" lengthAdjust="spacing" textLength="140.0615" x="720.9952" y="176.2877">D&#233;placer vers la droite</text></g><g id="elem_move_left"><ellipse cx="790.8831" cy="97.1766" fill="#F1F1F1" rx="93.8831" ry="21.1766" style="stroke:#181818;stroke-width:0.5;"/><text fill="#000000" font-family="sans-serif" font-size="14" lengthAdjust="spacing" textLength="150.9717" x="715.3972" y="100.2591">D&#233;placer vers la gauche</text></g><g id="elem_pause_menu"><ellipse cx="201.9394" cy="281.0879" fill="#F1F1F1" rx="63.4394" ry="15.0879" style="stroke:#181818;stroke-width:0.5;"/><text fill="#000000" font-family="sans-serif" font-size="14" lengthAdjust="spacing" textLength="77.0547" x="160.4121" y="284.9038">Menu pause</text></g><g id="elem_resume_game"><ellipse cx="494.7382" cy="352.9476" fill="#F1F1F1" rx="80.2382" ry="18.4476" style="stroke:#181818;stroke-width:0.5;"/><text fill="#000000" font-family="sans-serif" font-size="14" lengthAdjust="spacing" textLength="119.8477" x="434.8144" y="356.0302">Reprendre la partie</text></g><g id="elem_quit_game"><ellipse cx="494.2558" cy="282.9512" fill="#F1F1F1" rx="70.2558" ry="16.4512" style="stroke:#181818;stroke-width:0.5;"/><text fill="#000000" font-family="sans-serif" font-size="14" lengthAdjust="spacing" textLength="95.71" x="445.3302" y="286.3202">Quitter la partie</text></g><!--entity player--><g id="elem_player"><ellipse cx="27.4033" cy="182.5" fill="#F1F1F1" rx="8" ry="8" style="stroke:#181818;stroke-width:0.5;"/><path d="M27.4033,190.5 L27.4033,217.5 M14.4033,198.5 L40.4033,198.5 M27.4033,217.5 L14.4033,232.5 M27.4033,217.5 L40.4033,232.5 " fill="none" style="stroke:#181818;stroke-width:0.5;"/><text fill="#000000" font-family="sans-serif" font-size="14" lengthAdjust="spacing" textLength="42.8066" x="6" y="247.1318">Joueur</text></g><!--link player to move_piece--><g id="link_player_move_piece"><path d="M49.08,198.01 C60.27,190.8 74.53,182.25 88,176 C106.21,167.55 126.85,160.05 145.45,153.99 " fill="none" id="player-move_piece" style="stroke:#181818;stroke-width:1;"/></g><!--link player to pause_menu--><g id="link_player_pause_menu"><path d="M49.26,226.39 C60.37,233.62 74.52,242.07 88,248 C109.61,257.5 134.72,265.14 155.78,270.67 " fill="none" id="player-pause_menu" style="stroke:#181818;stroke-width:1;"/></g><!--link player to throw_penalty--><g id="link_player_throw_penalty"><path d="M49.31,212 C67.23,212 94.3,212 120.63,212 " fill="none" id="player-throw_penalty" style="stroke:#181818;stroke-width:1;"/></g><!--reverse link move_piece to lateral_movement--><g id="link_move_piece_lateral_movement"><path d="M298.13,137.6702 C334.49,137.5502 370.4,137.42 406.53,137.3 " fill="none" id="move_piece-backto-lateral_movement" style="stroke:#181818;stroke-width:1;stroke-dasharray:7.0,7.0;"/><polygon fill="#181818" points="292.13,137.69,301.1432,141.6603,297.13,137.6735,301.1167,133.6603,292.13,137.69" style="stroke:#181818;stroke-width:1;"/><text fill="#000000" font-family="sans-serif" font-size="13" lengthAdjust="spacing" textLength="53.4917" x="323" y="135.1938">&#171;extend&#187;</text></g><!--reverse link move_piece to increase_descent--><g id="link_move_piece_increase_descent"><path d="M267.5947,121.1017 C318.8247,107.7017 386.81,89.91 437.27,76.71 " fill="none" id="move_piece-backto-increase_descent" style="stroke:#181818;stroke-width:1;stroke-dasharray:7.0,7.0;"/><polygon fill="#181818" points="261.79,122.62,271.5093,124.2123,266.6273,121.3547,269.4849,116.4727,261.79,122.62" style="stroke:#181818;stroke-width:1;"/><text fill="#000000" font-family="sans-serif" font-size="13" lengthAdjust="spacing" textLength="53.4917" x="323" y="91.1938">&#171;extend&#187;</text></g><!--reverse link move_piece to rotate_piece--><g id="link_move_piece_rotate_piece"><path d="M268.6543,154.7212 C319.6443,167.7112 386.6,184.77 436.7,197.53 " fill="none" id="move_piece-backto-rotate_piece" style="stroke:#181818;stroke-width:1;stroke-dasharray:7.0,7.0;"/><polygon fill="#181818" points="262.84,153.24,270.574,159.338,267.6852,154.4744,272.5489,151.5856,262.84,153.24" style="stroke:#181818;stroke-width:1;"/><text fill="#000000" font-family="sans-serif" font-size="13" lengthAdjust="spacing" textLength="53.4917" x="323" y="166.1938">&#171;extend&#187;</text></g><!--reverse link lateral_movement to move_right--><g id="link_lateral_movement_move_right"><path d="M554.7945,154.2691 C574.4345,159.4091 591.16,163.03 612,166 C641.09,170.15 673.1,172.18 701.86,173.1 " fill="none" id="lateral_movement-backto-move_right" style="stroke:#181818;stroke-width:1;stroke-dasharray:7.0,7.0;"/><polygon fill="#181818" points="548.99,152.75,556.684,158.8983,553.8271,154.0159,558.7095,151.159,548.99,152.75" style="stroke:#181818;stroke-width:1;"/><text fill="#000000" font-family="sans-serif" font-size="13" lengthAdjust="spacing" textLength="53.4917" x="613" y="163.1938">&#171;extend&#187;</text></g><!--reverse link lateral_movement to move_left--><g id="link_lateral_movement_move_left"><path d="M576.1456,126.0437 C618.9156,120.2437 666.63,113.76 710.22,107.84 " fill="none" id="lateral_movement-backto-move_left" style="stroke:#181818;stroke-width:1;stroke-dasharray:7.0,7.0;"/><polygon fill="#181818" points="570.2,126.85,579.6559,129.6043,575.1546,126.1781,578.5809,121.6769,570.2,126.85" style="stroke:#181818;stroke-width:1;"/><text fill="#000000" font-family="sans-serif" font-size="13" lengthAdjust="spacing" textLength="53.4917" x="613" y="112.1938">&#171;extend&#187;</text></g><!--reverse link pause_menu to resume_game--><g id="link_pause_menu_resume_game"><path d="M252.3138,293.2235 C303.7538,305.9735 383.59,325.76 439.3,339.57 " fill="none" id="pause_menu-backto-resume_game" style="stroke:#181818;stroke-width:1;stroke-dasharray:7.0,7.0;"/><polygon fill="#181818" points="246.49,291.78,254.2633,297.8278,251.3431,292.9829,256.188,290.0627,246.49,291.78" style="stroke:#181818;stroke-width:1;"/><text fill="#000000" font-family="sans-serif" font-size="13" lengthAdjust="spacing" textLength="53.4917" x="323" y="308.1938">&#171;extend&#187;</text></g><!--reverse link pause_menu to quit_game--><g id="link_pause_menu_quit_game"><path d="M271.6799,281.4713 C318.2099,281.7913 375.68,282.19 423.81,282.52 " fill="none" id="pause_menu-backto-quit_game" style="stroke:#181818;stroke-width:1;stroke-dasharray:7.0,7.0;"/><polygon fill="#181818" points="265.68,281.43,274.6523,285.4918,270.6799,281.4644,274.7073,277.492,265.68,281.43" style="stroke:#181818;stroke-width:1;"/><text fill="#000000" font-family="sans-serif" font-size="13" lengthAdjust="spacing" textLength="53.4917" x="323" y="279.1938">&#171;extend&#187;</text></g><!--SRC=[bLDjYXf14Fq_foX6Y0en1n1PM3040hjk4Y4_XxQxT9hqT4_wGoCX1_8SNYpLFQCpercM-AkdVA_grQkgyJ8m1U_WsTYA7az6u3WRm_Dg_N4Etn6u2Ke04mBocWM7-Nl8BRfGOKwit7bJmux5BwdJ0ohK8SiKRZru0rRkIWz2MkHU6fqnxes5poPWiC0Sr8eTqMPP_9_fdKB8NvZr4c4PKEKHahB-pe1-uz5e1DyCbqmrtwtG0u8mUkoXP7kCPMLLAoGbfA6K3ZR1W_HmICri41ZrPHHiaVbWiKr5tN7cI82GZWUFDbNd9VDPL_nJ5FEOUd4fUcKjpoTgXgE5e66DtffAQfDoL6QFHIsHuv2oDi5g8b3NGu8rdlaBfIc-NYrNSwXHC-MFK2LRKoSR9a2JgZxCbzOSG8EI6jsLn9bE55A_f_G2Z5P7a5lOJlIqnIO3DuYQ78eU4coe6VNUqCGeUPDMeakIKycYBTKpBFOEgH5mOHDpk7PeD9SSVtdKWZBu4jjT-O77Wx42jhGdSNYlkQoOFvyiQyQS9504AL34aZ4uP3voVZufeYGk27ISC9YOKdEBX2hQw6irzsXT8biZMsgQRLB-5cd70Yzxf7WYFQDUudarrpD8z4GHQ6ul7Kny5VUmhrXRij9YB5Md4sfMAHrhiRjio9Nm9KZl6ozwy9yKRS1_igmvJfZD-XlS1NjIkk1m3oOTSGgBsGUOt0vfEeV5ebc3XuT_u6z7ynQ-VpetsBlI3QERu7_Wu_26y6pI-N7Hqdb_a_eEUlLz2FmB]--></g></svg>