<svg xmlns="http://www.w3.org/2000/svg" xmlns:xlink="http://www.w3.org/1999/xlink" contentStyleType="text/css" height="501px" preserveAspectRatio="none" style="width:1078px;height:501px;background:#FFFFFF;" version="1.1" viewBox="0 0 1078 501" width="1078px" zoomAndPan="magnify"><defs/><g><!--class RegisterManager--><g id="elem_RegisterManager"><rect codeLine="6" fill="#F1F1F1" height="154.0469" id="RegisterManager" rx="2.5" ry="2.5" style="stroke:#181818;stroke-width:0.5;" width="211.835" x="263.28" y="7"/><ellipse cx="305.3696" cy="27.1328" fill="#ADD1B2" rx="11" ry="11" style="stroke:#181818;stroke-width:1.0;"/><path d="M308.3384,32.7734 Q307.7603,33.0703 307.1196,33.2109 Q306.479,33.3672 305.7759,33.3672 Q303.2759,33.3672 301.9478,31.7266 Q300.6353,30.0703 300.6353,26.9453 Q300.6353,23.8203 301.9478,22.1641 Q303.2759,20.5078 305.7759,20.5078 Q306.479,20.5078 307.1196,20.6641 Q307.7759,20.8203 308.3384,21.1172 L308.3384,23.8359 Q307.7134,23.2578 307.1196,22.9922 Q306.5259,22.7109 305.9009,22.7109 Q304.5571,22.7109 303.8696,23.7891 Q303.1821,24.8516 303.1821,26.9453 Q303.1821,29.0391 303.8696,30.1172 Q304.5571,31.1797 305.9009,31.1797 Q306.5259,31.1797 307.1196,30.9141 Q307.7134,30.6328 308.3384,30.0547 L308.3384,32.7734 Z " fill="#000000"/><text fill="#000000" font-family="sans-serif" font-size="12" font-style="italic" lengthAdjust="spacing" textLength="49.5527" x="360.4311" y="23.1387">&#171;Client&#187;</text><text fill="#000000" font-family="sans-serif" font-size="14" lengthAdjust="spacing" textLength="119.6357" x="325.3896" y="38.9639">RegisterManager</text><line style="stroke:#181818;stroke-width:0.5;" x1="264.28" x2="474.115" y1="47.2656" y2="47.2656"/><rect fill="none" height="6" style="stroke:#C82930;stroke-width:1.0;" width="6" x="271.28" y="57.9141"/><text fill="#000000" font-family="sans-serif" font-size="14" lengthAdjust="spacing" textLength="170.8574" x="283.28" y="64.2607">credentials : Credentials</text><rect fill="none" height="6" style="stroke:#C82930;stroke-width:1.0;" width="6" x="271.28" y="74.2109"/><text fill="#000000" font-family="sans-serif" font-size="14" lengthAdjust="spacing" textLength="154.9365" x="283.28" y="80.5576">registerUI : RegisterUI</text><line style="stroke:#181818;stroke-width:0.5;" x1="264.28" x2="474.115" y1="87.8594" y2="87.8594"/><rect fill="#F24D5C" height="6" style="stroke:#C82930;stroke-width:1.0;" width="6" x="271.28" y="98.5078"/><text fill="#000000" font-family="sans-serif" font-size="14" lengthAdjust="spacing" textLength="164.958" x="283.28" y="104.8545">get_username() : string</text><rect fill="#F24D5C" height="6" style="stroke:#C82930;stroke-width:1.0;" width="6" x="271.28" y="114.8047"/><text fill="#000000" font-family="sans-serif" font-size="14" lengthAdjust="spacing" textLength="161.4307" x="283.28" y="121.1514">get_password() : string</text><rect fill="#F24D5C" height="6" style="stroke:#C82930;stroke-width:1.0;" width="6" x="271.28" y="131.1016"/><text fill="#000000" font-family="sans-serif" font-size="14" lengthAdjust="spacing" textLength="185.835" x="283.28" y="137.4482">already_registered() : bool</text><ellipse cx="274.28" cy="150.3984" fill="#84BE84" rx="3" ry="3" style="stroke:#038048;stroke-width:1.0;"/><text fill="#000000" font-family="sans-serif" font-size="14" lengthAdjust="spacing" textLength="77.6699" x="283.28" y="153.7451">run() : void</text></g><!--class RegisterUI--><g id="elem_RegisterUI"><rect codeLine="15" fill="#F1F1F1" height="194.6719" id="RegisterUI" rx="2.5" ry="2.5" style="stroke:#181818;stroke-width:0.5;" width="298.3984" x="7" y="300.05"/><ellipse cx="115.6265" cy="316.05" fill="#ADD1B2" rx="11" ry="11" style="stroke:#181818;stroke-width:1.0;"/><path d="M118.5952,321.6906 Q118.0171,321.9875 117.3765,322.1281 Q116.7358,322.2844 116.0327,322.2844 Q113.5327,322.2844 112.2046,320.6438 Q110.8921,318.9875 110.8921,315.8625 Q110.8921,312.7375 112.2046,311.0813 Q113.5327,309.425 116.0327,309.425 Q116.7358,309.425 117.3765,309.5813 Q118.0327,309.7375 118.5952,310.0344 L118.5952,312.7531 Q117.9702,312.175 117.3765,311.9094 Q116.7827,311.6281 116.1577,311.6281 Q114.814,311.6281 114.1265,312.7063 Q113.439,313.7688 113.439,315.8625 Q113.439,317.9563 114.1265,319.0344 Q114.814,320.0969 116.1577,320.0969 Q116.7827,320.0969 117.3765,319.8313 Q117.9702,319.55 118.5952,318.9719 L118.5952,321.6906 Z " fill="#000000"/><text fill="#000000" font-family="sans-serif" font-size="14" lengthAdjust="spacing" textLength="72.6455" x="136.1265" y="320.8967">RegisterUI</text><line style="stroke:#181818;stroke-width:0.5;" x1="8" x2="304.3984" y1="332.05" y2="332.05"/><rect fill="none" height="6" style="stroke:#C82930;stroke-width:1.0;" width="6" x="15" y="342.6984"/><text fill="#000000" font-family="sans-serif" font-size="14" lengthAdjust="spacing" textLength="167.0566" x="27" y="349.0451">username_input : string</text><rect fill="none" height="6" style="stroke:#C82930;stroke-width:1.0;" width="6" x="15" y="358.9953"/><text fill="#000000" font-family="sans-serif" font-size="14" lengthAdjust="spacing" textLength="163.5293" x="27" y="365.342">password_input : string</text><line style="stroke:#181818;stroke-width:0.5;" x1="8" x2="304.3984" y1="372.6438" y2="372.6438"/><ellipse cx="18" cy="386.2922" fill="#84BE84" rx="3" ry="3" style="stroke:#038048;stroke-width:1.0;"/><text fill="#000000" font-family="sans-serif" font-size="14" lengthAdjust="spacing" textLength="83.5693" x="27" y="389.6389">RegisterUI()</text><ellipse cx="18" cy="402.5891" fill="#84BE84" rx="3" ry="3" style="stroke:#038048;stroke-width:1.0;"/><text fill="#000000" font-family="sans-serif" font-size="14" lengthAdjust="spacing" textLength="105.7725" x="27" y="405.9357">Display() : void</text><ellipse cx="18" cy="418.8859" fill="#84BE84" rx="3" ry="3" style="stroke:#038048;stroke-width:1.0;"/><text fill="#000000" font-family="sans-serif" font-size="14" lengthAdjust="spacing" textLength="140.4512" x="27" y="422.2326">ErrorDisplay() : void</text><ellipse cx="18" cy="435.1828" fill="#84BE84" rx="3" ry="3" style="stroke:#038048;stroke-width:1.0;"/><text fill="#000000" font-family="sans-serif" font-size="14" lengthAdjust="spacing" textLength="164.958" x="27" y="438.5295">get_username() : string</text><ellipse cx="18" cy="451.4797" fill="#84BE84" rx="3" ry="3" style="stroke:#038048;stroke-width:1.0;"/><text fill="#000000" font-family="sans-serif" font-size="14" lengthAdjust="spacing" textLength="161.4307" x="27" y="454.8264">get_password() : string</text><ellipse cx="18" cy="467.7766" fill="#84BE84" rx="3" ry="3" style="stroke:#038048;stroke-width:1.0;"/><text fill="#000000" font-family="sans-serif" font-size="14" lengthAdjust="spacing" textLength="272.3984" x="27" y="471.1232">set_username(username: string) : void</text><ellipse cx="18" cy="484.0734" fill="#84BE84" rx="3" ry="3" style="stroke:#038048;stroke-width:1.0;"/><text fill="#000000" font-family="sans-serif" font-size="14" lengthAdjust="spacing" textLength="265.3438" x="27" y="487.4201">set_password(password: string) : void</text></g><!--class LoginManager--><g id="elem_LoginManager"><rect codeLine="27" fill="#F1F1F1" height="121.4531" id="LoginManager" rx="2.5" ry="2.5" style="stroke:#181818;stroke-width:0.5;" width="284.959" x="561.72" y="23.3"/><ellipse cx="650.2591" cy="43.4328" fill="#ADD1B2" rx="11" ry="11" style="stroke:#181818;stroke-width:1.0;"/><path d="M653.2278,49.0734 Q652.6497,49.3703 652.0091,49.5109 Q651.3684,49.6672 650.6653,49.6672 Q648.1653,49.6672 646.8372,48.0266 Q645.5247,46.3703 645.5247,43.2453 Q645.5247,40.1203 646.8372,38.4641 Q648.1653,36.8078 650.6653,36.8078 Q651.3684,36.8078 652.0091,36.9641 Q652.6653,37.1203 653.2278,37.4172 L653.2278,40.1359 Q652.6028,39.5578 652.0091,39.2922 Q651.4153,39.0109 650.7903,39.0109 Q649.4466,39.0109 648.7591,40.0891 Q648.0716,41.1516 648.0716,43.2453 Q648.0716,45.3391 648.7591,46.4172 Q649.4466,47.4797 650.7903,47.4797 Q651.4153,47.4797 652.0091,47.2141 Q652.6028,46.9328 653.2278,46.3547 L653.2278,49.0734 Z " fill="#000000"/><text fill="#000000" font-family="sans-serif" font-size="12" font-style="italic" lengthAdjust="spacing" textLength="49.5527" x="695.6731" y="39.4387">&#171;Client&#187;</text><text fill="#000000" font-family="sans-serif" font-size="14" lengthAdjust="spacing" textLength="99.3809" x="670.7591" y="55.2639">LoginManager</text><line style="stroke:#181818;stroke-width:0.5;" x1="562.72" x2="845.679" y1="63.5656" y2="63.5656"/><rect fill="none" height="6" style="stroke:#C82930;stroke-width:1.0;" width="6" x="569.72" y="74.2141"/><text fill="#000000" font-family="sans-serif" font-size="14" lengthAdjust="spacing" textLength="114.4883" x="581.72" y="80.5607">loginUI : LoginUI</text><rect fill="none" height="6" style="stroke:#C82930;stroke-width:1.0;" width="6" x="569.72" y="90.5109"/><text fill="#000000" font-family="sans-serif" font-size="14" lengthAdjust="spacing" textLength="170.8574" x="581.72" y="96.8576">credentials : Credentials</text><line style="stroke:#181818;stroke-width:0.5;" x1="562.72" x2="845.679" y1="104.1594" y2="104.1594"/><ellipse cx="572.72" cy="117.8078" fill="#84BE84" rx="3" ry="3" style="stroke:#038048;stroke-width:1.0;"/><text fill="#000000" font-family="sans-serif" font-size="14" lengthAdjust="spacing" textLength="258.959" x="581.72" y="121.1545">LoginManager(username="") : string</text><ellipse cx="572.72" cy="134.1047" fill="#84BE84" rx="3" ry="3" style="stroke:#038048;stroke-width:1.0;"/><text fill="#000000" font-family="sans-serif" font-size="14" lengthAdjust="spacing" textLength="111.9932" x="581.72" y="137.4514">tryLogin() : bool</text></g><!--class LoginUI--><g id="elem_LoginUI"><rect codeLine="37" fill="#F1F1F1" height="194.6719" id="LoginUI" rx="2.5" ry="2.5" style="stroke:#181818;stroke-width:0.5;" width="298.3984" x="773" y="300.05"/><ellipse cx="891.7539" cy="316.05" fill="#ADD1B2" rx="11" ry="11" style="stroke:#181818;stroke-width:1.0;"/><path d="M894.7227,321.6906 Q894.1445,321.9875 893.5039,322.1281 Q892.8633,322.2844 892.1602,322.2844 Q889.6602,322.2844 888.332,320.6438 Q887.0195,318.9875 887.0195,315.8625 Q887.0195,312.7375 888.332,311.0813 Q889.6602,309.425 892.1602,309.425 Q892.8633,309.425 893.5039,309.5813 Q894.1602,309.7375 894.7227,310.0344 L894.7227,312.7531 Q894.0977,312.175 893.5039,311.9094 Q892.9102,311.6281 892.2852,311.6281 Q890.9414,311.6281 890.2539,312.7063 Q889.5664,313.7688 889.5664,315.8625 Q889.5664,317.9563 890.2539,319.0344 Q890.9414,320.0969 892.2852,320.0969 Q892.9102,320.0969 893.5039,319.8313 Q894.0977,319.55 894.7227,318.9719 L894.7227,321.6906 Z " fill="#000000"/><text fill="#000000" font-family="sans-serif" font-size="14" lengthAdjust="spacing" textLength="52.3906" x="912.2539" y="320.8967">LoginUI</text><line style="stroke:#181818;stroke-width:0.5;" x1="774" x2="1070.3984" y1="332.05" y2="332.05"/><rect fill="none" height="6" style="stroke:#C82930;stroke-width:1.0;" width="6" x="781" y="342.6984"/><text fill="#000000" font-family="sans-serif" font-size="14" lengthAdjust="spacing" textLength="167.0566" x="793" y="349.0451">username_input : string</text><rect fill="none" height="6" style="stroke:#C82930;stroke-width:1.0;" width="6" x="781" y="358.9953"/><text fill="#000000" font-family="sans-serif" font-size="14" lengthAdjust="spacing" textLength="163.5293" x="793" y="365.342">password_input : string</text><line style="stroke:#181818;stroke-width:0.5;" x1="774" x2="1070.3984" y1="372.6438" y2="372.6438"/><ellipse cx="784" cy="386.2922" fill="#84BE84" rx="3" ry="3" style="stroke:#038048;stroke-width:1.0;"/><text fill="#000000" font-family="sans-serif" font-size="14" lengthAdjust="spacing" textLength="63.3145" x="793" y="389.6389">LoginUI()</text><ellipse cx="784" cy="402.5891" fill="#84BE84" rx="3" ry="3" style="stroke:#038048;stroke-width:1.0;"/><text fill="#000000" font-family="sans-serif" font-size="14" lengthAdjust="spacing" textLength="105.7725" x="793" y="405.9357">Display() : void</text><ellipse cx="784" cy="418.8859" fill="#84BE84" rx="3" ry="3" style="stroke:#038048;stroke-width:1.0;"/><text fill="#000000" font-family="sans-serif" font-size="14" lengthAdjust="spacing" textLength="140.4512" x="793" y="422.2326">ErrorDisplay() : void</text><ellipse cx="784" cy="435.1828" fill="#84BE84" rx="3" ry="3" style="stroke:#038048;stroke-width:1.0;"/><text fill="#000000" font-family="sans-serif" font-size="14" lengthAdjust="spacing" textLength="164.958" x="793" y="438.5295">get_username() : string</text><ellipse cx="784" cy="451.4797" fill="#84BE84" rx="3" ry="3" style="stroke:#038048;stroke-width:1.0;"/><text fill="#000000" font-family="sans-serif" font-size="14" lengthAdjust="spacing" textLength="161.4307" x="793" y="454.8264">get_password() : string</text><ellipse cx="784" cy="467.7766" fill="#84BE84" rx="3" ry="3" style="stroke:#038048;stroke-width:1.0;"/><text fill="#000000" font-family="sans-serif" font-size="14" lengthAdjust="spacing" textLength="272.3984" x="793" y="471.1232">set_username(username: string) : void</text><ellipse cx="784" cy="484.0734" fill="#84BE84" rx="3" ry="3" style="stroke:#038048;stroke-width:1.0;"/><text fill="#000000" font-family="sans-serif" font-size="14" lengthAdjust="spacing" textLength="265.3438" x="793" y="487.4201">set_password(password: string) : void</text></g><!--class AccountServer--><g id="elem_AccountServer"><rect codeLine="49" fill="#F1F1F1" height="105.1563" id="AccountServer" rx="2.5" ry="2.5" style="stroke:#181818;stroke-width:0.5;" width="398.3125" x="340.04" y="344.81"/><ellipse cx="483.6049" cy="364.9428" fill="#ADD1B2" rx="11" ry="11" style="stroke:#181818;stroke-width:1.0;"/><path d="M486.5737,370.5834 Q485.9956,370.8803 485.3549,371.0209 Q484.7143,371.1772 484.0112,371.1772 Q481.5112,371.1772 480.1831,369.5366 Q478.8706,367.8803 478.8706,364.7553 Q478.8706,361.6303 480.1831,359.9741 Q481.5112,358.3178 484.0112,358.3178 Q484.7143,358.3178 485.3549,358.4741 Q486.0112,358.6303 486.5737,358.9272 L486.5737,361.6459 Q485.9487,361.0678 485.3549,360.8022 Q484.7612,360.5209 484.1362,360.5209 Q482.7924,360.5209 482.1049,361.5991 Q481.4174,362.6616 481.4174,364.7553 Q481.4174,366.8491 482.1049,367.9272 Q482.7924,368.9897 484.1362,368.9897 Q484.7612,368.9897 485.3549,368.7241 Q485.9487,368.4428 486.5737,367.8647 L486.5737,370.5834 Z " fill="#000000"/><text fill="#000000" font-family="sans-serif" font-size="12" font-style="italic" lengthAdjust="spacing" textLength="54.1641" x="528.3642" y="360.9487">&#171;Server&#187;</text><text fill="#000000" font-family="sans-serif" font-size="14" lengthAdjust="spacing" textLength="102.6826" x="504.1049" y="376.7739">AccountServer</text><line style="stroke:#181818;stroke-width:0.5;" x1="341.04" x2="737.3525" y1="385.0756" y2="385.0756"/><rect fill="none" height="6" style="stroke:#C82930;stroke-width:1.0;" width="6" x="348.04" y="395.7241"/><text fill="#000000" font-family="sans-serif" font-size="14" lengthAdjust="spacing" textLength="210.2871" x="360.04" y="402.0707">accountsDatabase : Database</text><line style="stroke:#181818;stroke-width:0.5;" x1="341.04" x2="737.3525" y1="409.3725" y2="409.3725"/><ellipse cx="351.04" cy="423.0209" fill="#84BE84" rx="3" ry="3" style="stroke:#038048;stroke-width:1.0;"/><text fill="#000000" font-family="sans-serif" font-size="14" lengthAdjust="spacing" textLength="324.4541" x="360.04" y="426.3676">CreateAccount(credentials: Credentials) : bool</text><ellipse cx="351.04" cy="439.3178" fill="#84BE84" rx="3" ry="3" style="stroke:#038048;stroke-width:1.0;"/><text fill="#000000" font-family="sans-serif" font-size="14" lengthAdjust="spacing" textLength="372.3125" x="360.04" y="442.6645">AccountAlreadyExists(credentials: Credentials) : bool</text></g><!--link RegisterManager to LoginManager--><g id="link_RegisterManager_LoginManager"><path codeLine="56" d="M475.2,84.02 C502.61,84.02 532.57,84.02 561.52,84.02 " fill="none" id="RegisterManager-LoginManager" style="stroke:#181818;stroke-width:1.0;"/><polygon fill="#000000" points="502.42,72.5864,493.3749,69.6475,493.3749,75.5253,502.42,72.5864" style="stroke:#000000;stroke-width:1.0;"/><text fill="#000000" font-family="sans-serif" font-size="13" lengthAdjust="spacing" textLength="37.0513" x="506.42" y="77.0869">starts</text></g><!--link RegisterManager to RegisterUI--><g id="link_RegisterManager_RegisterUI"><path codeLine="57" d="M317.09,161.19 C288.52,202.96 252.81,255.17 222.29,299.77 " fill="none" id="RegisterManager-RegisterUI" style="stroke:#181818;stroke-width:1.0;"/><polygon fill="#000000" points="277.2769,234.7432,284.8096,228.9371,279.9582,225.6184,277.2769,234.7432" style="stroke:#000000;stroke-width:1.0;"/><text fill="#000000" font-family="sans-serif" font-size="13" lengthAdjust="spacing" textLength="104.292" x="289.1" y="235.1169">gets credentials</text><text fill="#000000" font-family="sans-serif" font-size="13" lengthAdjust="spacing" textLength="8.271" x="303.9301" y="181.0682">1</text><text fill="#000000" font-family="sans-serif" font-size="13" lengthAdjust="spacing" textLength="8.271" x="218.8597" y="289.1223">1</text></g><!--link LoginManager to LoginUI--><g id="link_LoginManager_LoginUI"><path codeLine="58" d="M746.23,145.06 C776.92,188.88 819.16,249.22 854.57,299.79 " fill="none" id="LoginManager-LoginUI" style="stroke:#181818;stroke-width:1.0;"/><polygon fill="#000000" points="819.7078,234.7122,816.9273,225.6172,812.1124,228.9885,819.7078,234.7122" style="stroke:#000000;stroke-width:1.0;"/><text fill="#000000" font-family="sans-serif" font-size="13" lengthAdjust="spacing" textLength="104.292" x="825.84" y="235.1169">gets credentials</text><text fill="#000000" font-family="sans-serif" font-size="13" lengthAdjust="spacing" textLength="8.271" x="742.4044" y="164.63">1</text><text fill="#000000" font-family="sans-serif" font-size="13" lengthAdjust="spacing" textLength="8.271" x="841.3197" y="289.1438">1</text></g><!--link RegisterManager to AccountServer--><g id="link_RegisterManager_AccountServer"><path codeLine="59" d="M410.79,161.19 C441.85,218.08 483.48,294.34 510.81,344.38 " fill="none" id="RegisterManager-AccountServer" style="stroke:#181818;stroke-width:1.0;"/><text fill="#000000" font-family="sans-serif" font-size="13" lengthAdjust="spacing" textLength="111.9473" x="454.14" y="235.1169">send/receive info</text></g><!--link LoginManager to AccountServer--><g id="link_LoginManager_AccountServer"><path codeLine="60" d="M672.39,145.06 C641.72,202.93 595.79,289.6 566.67,344.54 " fill="none" id="LoginManager-AccountServer" style="stroke:#181818;stroke-width:1.0;"/><text fill="#000000" font-family="sans-serif" font-size="13" lengthAdjust="spacing" textLength="111.9473" x="632.3" y="235.1169">send/receive info</text></g><!--SRC=[tLJ1Rjim3BtxAuWSbXHUCEmQT06AfeS16GfatJbGBDhXfaY1fAJBXltxQ5joPAVBUjXfFjYq7lb8KOyQmzFZud46Jrjo84bKLko0JMqybAJT5YMSq8FG4fv9ATWWkCFcAnOUl86TaLHI8JmPxR9nDePxYnAr9w6WCDeBvfZ1mQ7LOeVm1lR2kMTZPPOLYarOOKNEe_qajAZGmktjlI8ccC_XPmRyJA7eA1tCaWGku3PGVFd8yAhx2MY5VXtpJsxOmtbBkahGMD8bAfH58K_hc05Rduqngl78mHvqitGq9BDVmqrnHN4JiOGrwVt13nF54bv2yuHkSXEM5kJsIfpEkTlb1skD_GDshH7vrKRauDBOQ4IVGHwNCaNZmhVhrT9KfA-SlghnvcYNmNgLBCQTvXHwn-q7qbJ3z0F1R_6ioP9GIKQRrP2jfM21YxfO4EuRrmx4Sy3ROrrByCIXavAiywqT2A9Km974zhJ6L3RpXBkzFxsjMPf9AWI_qiQ2kQmXx_MdQ_s7qUXyHX0ylJqrpcUDzflyZzGOkFv3ATuLXJbe_ndjiT5YQoHQ5As3MmWlDi8XCqGpP6GP2e-1Q998jAVGmIKItE_Qs-RXEml8_JsMoyw6joVNs1-eUhF2yW3CBtn7xqSmdKwRxogzGgjwODBfccSzpZHmsKtd2r73Z7LGlyTS7chvpcA1TAndg3JzNAyB-Gq0]--></g></svg>