<?xml version="1.0" encoding="UTF-8" standalone="no"?><svg xmlns="http://www.w3.org/2000/svg" xmlns:xlink="http://www.w3.org/1999/xlink" contentStyleType="text/css" height="180px" preserveAspectRatio="none" style="width:1210px;height:180px;background:#FFFFFF;" version="1.1" viewBox="0 0 1210 180" width="1210px" zoomAndPan="magnify"><defs/><g><!--cluster connection--><g id="cluster_connection"><rect fill="none" height="167" rx="2.5" ry="2.5" style="stroke:#181818;stroke-width:1.0;" width="795.85" x="147" y="7"/><text fill="#000000" font-family="sans-serif" font-size="14" font-weight="bold" lengthAdjust="spacing" textLength="74" x="507.925" y="23.9659">Connexion</text></g><!--entity check_auth_server--><g id="elem_check_auth_server"><path d="M998.5401,80.0865 C1002.7454,73.8842 1008.2871,74.3853 1011.7145,80.8929 C1015.7345,74.3382 1023.0321,72.9666 1027.2949,80.6267 C1030.9869,74.1318 1034.8242,73.8831 1039.6741,79.4371 C1043.7983,72.9203 1048.6198,72.0007 1053.3203,78.8487 C1058.3782,72.9618 1062.8383,72.5669 1066.562,80.1594 C1070.309,72.5582 1076.8339,72.9267 1081.2513,79.463 C1085.505,72.9783 1090.837,73.4977 1094.4913,80.0707 C1097.2974,73.1165 1102.222,72.6966 1106.7967,78.3436 C1111.3781,70.8318 1117.8535,72.0287 1121.9541,78.8521 C1126.9403,72.5621 1131.6814,73.1748 1135.4714,80.0776 C1139.638,72.7517 1144.5893,74.2271 1149.0184,79.8019 C1153.1619,72.5132 1157.9637,72.9688 1162.3539,79.5649 C1167.5284,74.4444 1173.0044,73.3284 1176.4765,81.3889 C1179.8864,75.8648 1184.9694,75.1361 1188.2129,81.5525 C1197.4459,80.9153 1202.0699,87.8771 1197.3293,96.0356 C1203.5023,105.8563 1200.2953,112.0835 1188.8575,113.2243 C1186.1573,121.1866 1179.7636,120.7638 1174.8242,115.6224 C1170.2965,120.6632 1166.5299,119.676 1163.2769,114.2202 C1159.6516,120.6964 1154.6151,122.9059 1149.3687,115.8914 C1145.7895,122.2156 1138.4804,123.7201 1134.1427,116.7609 C1130.5348,121.987 1125.0612,121.7495 1122.0427,116.105 C1118.2948,123.7786 1112.6296,122.912 1107.9995,117.018 C1104.2147,122.9659 1099.7029,123.0243 1095.4167,117.5713 C1090.8748,125.1464 1084.9986,122.9299 1081.007,116.9848 C1077.6671,122.7109 1070.9919,123.3614 1067.6411,116.9968 C1062.7057,123.2183 1058.4273,122.7614 1054.153,116.2942 C1048.7108,123.7851 1043.6898,123.0622 1038.6579,115.8615 C1035.3028,121.8696 1029.1485,121.3615 1026.3122,115.3295 C1021.1877,122.1494 1015.718,121.3414 1012.499,113.5304 C1008.8768,119.7693 1002.9951,120.9425 999.1402,113.762 C990.1576,110.2109 990.0835,104.07 996.5127,97.9567 C989.39,90.8922 988.9369,85.2535 998.5401,80.0865 " fill="#F1F1F1" style="stroke:#181818;stroke-width:0.5;"/><text fill="#000000" font-family="sans-serif" font-size="14" lengthAdjust="spacing" textLength="176" x="1004.85" y="101.4359">Serveur d'Authentification</text></g><g id="elem_signin"><ellipse cx="237.3944" cy="65.9989" fill="#F1F1F1" rx="74.3944" ry="17.2789" style="stroke:#181818;stroke-width:0.5;"/><text fill="#000000" font-family="sans-serif" font-size="14" lengthAdjust="spacing" textLength="87" x="190.8944" y="70.7318">Se connecter</text></g><g id="elem_authentify"><ellipse cx="514.2628" cy="64.0026" fill="#F1F1F1" rx="75.7128" ry="17.5426" style="stroke:#181818;stroke-width:0.5;"/><text fill="#000000" font-family="sans-serif" font-size="14" lengthAdjust="spacing" textLength="91" x="465.7628" y="68.7355">S'authentifier</text></g><g id="elem_create_account"><ellipse cx="514.2583" cy="136.0037" fill="#F1F1F1" rx="83.4683" ry="19.0937" style="stroke:#181818;stroke-width:0.5;"/><text fill="#000000" font-family="sans-serif" font-size="14" lengthAdjust="spacing" textLength="113" x="454.7583" y="140.7366">Créer un compte</text></g><g id="elem_check_auth"><ellipse cx="821.7945" cy="96.0029" fill="#F1F1F1" rx="105.0645" ry="23.4129" style="stroke:#181818;stroke-width:0.5;"/><text fill="#000000" font-family="sans-serif" font-size="14" lengthAdjust="spacing" textLength="167" x="735.2945" y="100.7359">Verifier l'authentification</text></g><!--entity user--><g id="elem_user"><ellipse cx="41" cy="84.97" fill="#F1F1F1" rx="8" ry="8" style="stroke:#181818;stroke-width:0.5;"/><path d="M41,92.97 L41,119.97 M28,100.97 L54,100.97 M41,119.97 L28,134.97 M41,119.97 L54,134.97 " fill="none" style="stroke:#181818;stroke-width:0.5;"/><text fill="#000000" font-family="sans-serif" font-size="14" lengthAdjust="spacing" textLength="70" x="6" y="151.4359">Utilisateur</text></g><!--link user to signin--><g id="link_user_signin"><path d="M76.31,107.18 C106.83,99.33 151.84,87.75 186.37,78.87 " fill="none" id="user-signin" style="stroke:#181818;stroke-width:1.0;"/></g><!--link user to create_account--><g id="link_user_create_account"><path d="M76.27,117.45 C150.4,120.6 327.39,128.11 431.96,132.55 " fill="none" id="user-create_account" style="stroke:#181818;stroke-width:1.0;"/></g><!--link check_auth to check_auth_server--><g id="link_check_auth_check_auth_server"><path d="M927.2,96 C947.74,96 969.25,96 989.71,96 " fill="none" id="check_auth-check_auth_server" style="stroke:#181818;stroke-width:1.0;"/></g><!--link signin to authentify--><g id="link_signin_authentify"><path d="M312.05,65.46 C349.18,65.19 394.3,64.87 432.39,64.59 " fill="none" id="signin-to-authentify" style="stroke:#181818;stroke-width:1.0;stroke-dasharray:7.0,7.0;"/><polygon fill="#181818" points="436.93,64.56,427.896,60.6373,431.9302,64.6029,427.9646,68.637,436.93,64.56" style="stroke:#181818;stroke-width:1.0;"/><text fill="#000000" font-family="sans-serif" font-size="13" lengthAdjust="spacing" textLength="57" x="342.79" y="60.717">«include»</text></g><!--link create_account to check_auth--><g id="link_create_account_check_auth"><path d="M587.66,126.52 C628.37,121.19 679.71,114.47 723.84,108.69 " fill="none" id="create_account-to-check_auth" style="stroke:#181818;stroke-width:1.0;stroke-dasharray:7.0,7.0;"/><polygon fill="#181818" points="728.8,108.04,719.3603,105.2307,723.8415,108.683,720.3892,113.1642,728.8,108.04" style="stroke:#181818;stroke-width:1.0;"/><text fill="#000000" font-family="sans-serif" font-size="13" lengthAdjust="spacing" textLength="57" x="628.73" y="109.507">«include»</text></g><!--link authentify to check_auth--><g id="link_authentify_check_auth"><path d="M583.82,71.18 C623.82,75.37 675.01,80.73 719.57,85.4 " fill="none" id="authentify-to-check_auth" style="stroke:#181818;stroke-width:1.0;stroke-dasharray:7.0,7.0;"/><polygon fill="#181818" points="724.3,85.89,715.7594,80.9851,719.3265,85.3755,714.9362,88.9427,724.3,85.89" style="stroke:#181818;stroke-width:1.0;"/><text fill="#000000" font-family="sans-serif" font-size="13" lengthAdjust="spacing" textLength="57" x="628.73" y="72.087">«include»</text></g><!--SRC=[XP3DRSCm38NlceBm9Sx17Q0831GPeMYlXa0pjb1LAYYgQ11aeCxHnIev_adZ0DMDulVU8sdf820Us7IzG6kOK8ntIgDuXXSnrWGj51bqW1Y8bHBVaVJ4S5AG7beVMoYUYJyprcwUOkewCGU3EdiLMOezuLkZKwi9cKm-MPpZjEiiGR7tpj7NpETg66MCoI_bemwKmoQ0UC23wPnnTy2DdgSPqVdZkCRt_FET5eiksRz_25r6OKeNQ3IYZqxKMlLAFDY3lKgxk_kWFQkpKlcKK5NJu5DvaxKeX-RwXkL5luM7gePoMMtx2BkTSMXZItMjoh- -8xxutU9NHl-Wy0i0]--></g></svg>