<svg xmlns="http://www.w3.org/2000/svg" xmlns:xlink="http://www.w3.org/1999/xlink" contentStyleType="text/css" height="703px" preserveAspectRatio="none" style="width:1503px;height:703px;background:#FFFFFF;" version="1.1" viewBox="0 0 1503 703" width="1503px" zoomAndPan="magnify"><defs/><g><!--class GameEngine--><g id="elem_GameEngine"><rect codeLine="3" fill="#F1F1F1" height="48" id="GameEngine" rx="2.5" ry="2.5" style="stroke:#181818;stroke-width:0.5;" width="121.6602" x="1113.67" y="23.3"/><ellipse cx="1128.67" cy="39.3" fill="#ADD1B2" rx="11" ry="11" style="stroke:#181818;stroke-width:1.0;"/><path d="M1131.6388,44.9406 Q1131.0606,45.2375 1130.42,45.3781 Q1129.7794,45.5344 1129.0763,45.5344 Q1126.5763,45.5344 1125.2481,43.8937 Q1123.9356,42.2375 1123.9356,39.1125 Q1123.9356,35.9875 1125.2481,34.3312 Q1126.5763,32.675 1129.0763,32.675 Q1129.7794,32.675 1130.42,32.8312 Q1131.0763,32.9875 1131.6388,33.2844 L1131.6388,36.0031 Q1131.0138,35.425 1130.42,35.1594 Q1129.8263,34.8781 1129.2013,34.8781 Q1127.8575,34.8781 1127.17,35.9562 Q1126.4825,37.0187 1126.4825,39.1125 Q1126.4825,41.2062 1127.17,42.2844 Q1127.8575,43.3469 1129.2013,43.3469 Q1129.8263,43.3469 1130.42,43.0812 Q1131.0138,42.8 1131.6388,42.2219 L1131.6388,44.9406 Z " fill="#000000"/><text fill="#000000" font-family="sans-serif" font-size="14" lengthAdjust="spacing" textLength="89.6602" x="1142.67" y="44.1467">GameEngine</text><line style="stroke:#181818;stroke-width:0.5;" x1="1114.67" x2="1234.3302" y1="55.3" y2="55.3"/><line style="stroke:#181818;stroke-width:0.5;" x1="1114.67" x2="1234.3302" y1="63.3" y2="63.3"/></g><!--class Player--><g id="elem_Player"><rect codeLine="7" fill="#F1F1F1" height="80.5938" id="Player" rx="2.5" ry="2.5" style="stroke:#181818;stroke-width:0.5;" width="142.4775" x="1270.26" y="7"/><ellipse cx="1315.4661" cy="23" fill="#ADD1B2" rx="11" ry="11" style="stroke:#181818;stroke-width:1.0;"/><path d="M1318.4348,28.6406 Q1317.8567,28.9375 1317.2161,29.0781 Q1316.5754,29.2344 1315.8723,29.2344 Q1313.3723,29.2344 1312.0442,27.5938 Q1310.7317,25.9375 1310.7317,22.8125 Q1310.7317,19.6875 1312.0442,18.0313 Q1313.3723,16.375 1315.8723,16.375 Q1316.5754,16.375 1317.2161,16.5313 Q1317.8723,16.6875 1318.4348,16.9844 L1318.4348,19.7031 Q1317.8098,19.125 1317.2161,18.8594 Q1316.6223,18.5781 1315.9973,18.5781 Q1314.6536,18.5781 1313.9661,19.6563 Q1313.2786,20.7188 1313.2786,22.8125 Q1313.2786,24.9063 1313.9661,25.9844 Q1314.6536,27.0469 1315.9973,27.0469 Q1316.6223,27.0469 1317.2161,26.7813 Q1317.8098,26.5 1318.4348,25.9219 L1318.4348,28.6406 Z " fill="#000000"/><text fill="#000000" font-family="sans-serif" font-size="14" lengthAdjust="spacing" textLength="43.5654" x="1335.9661" y="27.8467">Player</text><line style="stroke:#181818;stroke-width:0.5;" x1="1271.26" x2="1411.7375" y1="39" y2="39"/><rect fill="none" height="6" style="stroke:#C82930;stroke-width:1.0;" width="6" x="1278.26" y="49.6484"/><text fill="#000000" font-family="sans-serif" font-size="14" lengthAdjust="spacing" textLength="105.5537" x="1290.26" y="55.9951">isPlaying : bool</text><line style="stroke:#181818;stroke-width:0.5;" x1="1271.26" x2="1411.7375" y1="63.2969" y2="63.2969"/><ellipse cx="1281.26" cy="76.9453" fill="#84BE84" rx="3" ry="3" style="stroke:#038048;stroke-width:1.0;"/><text fill="#000000" font-family="sans-serif" font-size="14" lengthAdjust="spacing" textLength="116.4775" x="1290.26" y="80.292">isPlaying() : bool</text></g><!--class AbstractTetramino--><g id="elem_AbstractTetramino"><rect codeLine="14" fill="#F1F1F1" height="308.75" id="AbstractTetramino" rx="2.5" ry="2.5" style="stroke:#181818;stroke-width:0.5;" width="387.6621" x="554.67" y="148.59"/><ellipse cx="678.8892" cy="164.59" fill="#A9DCDF" rx="11" ry="11" style="stroke:#181818;stroke-width:1.0;"/><path d="M678.9986,159.9337 L677.8424,165.0119 L680.1705,165.0119 L678.9986,159.9337 Z M677.5142,157.6994 L680.4986,157.6994 L683.858,170.09 L681.4049,170.09 L680.6392,167.0275 L677.358,167.0275 L676.608,170.09 L674.1705,170.09 L677.5142,157.6994 Z " fill="#000000"/><text fill="#000000" font-family="sans-serif" font-size="14" font-style="italic" lengthAdjust="spacing" textLength="130.7236" x="699.3892" y="169.4367">AbstractTetramino</text><line style="stroke:#181818;stroke-width:0.5;" x1="555.67" x2="941.3321" y1="180.59" y2="180.59"/><rect fill="none" height="6" style="stroke:#C82930;stroke-width:1.0;" width="6" x="562.67" y="191.2384"/><text fill="#000000" font-family="sans-serif" font-size="14" lengthAdjust="spacing" textLength="70.458" x="574.67" y="197.5851">width : int</text><rect fill="none" height="6" style="stroke:#C82930;stroke-width:1.0;" width="6" x="562.67" y="207.5353"/><text fill="#000000" font-family="sans-serif" font-size="14" lengthAdjust="spacing" textLength="76.4941" x="574.67" y="213.882">height : int</text><rect fill="none" height="6" style="stroke:#C82930;stroke-width:1.0;" width="6" x="562.67" y="223.8322"/><text fill="#000000" font-family="sans-serif" font-size="14" lengthAdjust="spacing" textLength="193.1016" x="574.67" y="230.1789">body : vector&lt;Coordinate&gt;</text><text fill="#000000" font-family="sans-serif" font-size="14" lengthAdjust="spacing" textLength="4.4502" x="574.67" y="246.4757">&#160;</text><rect fill="none" height="6" style="stroke:#C82930;stroke-width:1.0;" width="6" x="562.67" y="256.4259"/><text fill="#000000" font-family="sans-serif" font-size="14" lengthAdjust="spacing" textLength="210.8135" x="574.67" y="262.7726">centers : vector&lt;Coordinate&gt;</text><rect fill="none" height="6" style="stroke:#C82930;stroke-width:1.0;" width="6" x="562.67" y="272.7228"/><text fill="#000000" font-family="sans-serif" font-size="14" lengthAdjust="spacing" textLength="202.1182" x="574.67" y="279.0695">rotationState : RotationState</text><line style="stroke:#181818;stroke-width:0.5;" x1="555.67" x2="941.3321" y1="286.3712" y2="286.3712"/><polygon fill="#FFFF44" points="565.67,295.0197,569.67,299.0197,565.67,303.0197,561.67,299.0197" style="stroke:#B38D22;stroke-width:1.0;"/><text fill="#000000" font-family="sans-serif" font-size="14" lengthAdjust="spacing" textLength="361.6621" x="574.67" y="303.3664">Tetramino(initializer_list&lt;Coordinate&gt; coordinates)</text><text fill="#000000" font-family="sans-serif" font-size="14" lengthAdjust="spacing" textLength="4.4502" x="574.67" y="319.6632">&#160;</text><ellipse cx="565.67" cy="332.6134" fill="#84BE84" rx="3" ry="3" style="stroke:#038048;stroke-width:1.0;"/><text fill="#000000" font-family="sans-serif" font-size="14" lengthAdjust="spacing" text-decoration="underline" textLength="231.8818" x="574.67" y="335.9601">factory(shape : TetraminoShape)</text><text fill="#000000" font-family="sans-serif" font-size="14" lengthAdjust="spacing" textLength="4.4502" x="574.67" y="352.257">&#160;</text><ellipse cx="565.67" cy="365.2072" fill="#84BE84" rx="3" ry="3" style="stroke:#038048;stroke-width:1.0;"/><text fill="#000000" font-family="sans-serif" font-size="14" lengthAdjust="spacing" textLength="106.7637" x="574.67" y="368.5539">getWidth() : int</text><ellipse cx="565.67" cy="381.5041" fill="#84BE84" rx="3" ry="3" style="stroke:#038048;stroke-width:1.0;"/><text fill="#000000" font-family="sans-serif" font-size="14" lengthAdjust="spacing" textLength="112.0615" x="574.67" y="384.8507">getHeight() : int</text><ellipse cx="565.67" cy="397.8009" fill="#84BE84" rx="3" ry="3" style="stroke:#038048;stroke-width:1.0;"/><text fill="#000000" font-family="sans-serif" font-size="14" lengthAdjust="spacing" textLength="101.124" x="574.67" y="401.1476">getBody() : int</text><text fill="#000000" font-family="sans-serif" font-size="14" lengthAdjust="spacing" textLength="4.4502" x="574.67" y="417.4445">&#160;</text><ellipse cx="565.67" cy="430.3947" fill="#84BE84" rx="3" ry="3" style="stroke:#038048;stroke-width:1.0;"/><text fill="#000000" font-family="sans-serif" font-size="14" lengthAdjust="spacing" textLength="206.8281" x="574.67" y="433.7414">tryMove(direction : Direction)</text><ellipse cx="565.67" cy="446.6916" fill="#84BE84" rx="3" ry="3" style="stroke:#038048;stroke-width:1.0;"/><text fill="#000000" font-family="sans-serif" font-size="14" lengthAdjust="spacing" textLength="76.918" x="574.67" y="450.0382">tryRotate()</text></g><!--class Coordinate--><g id="elem_Coordinate"><rect codeLine="39" fill="#F1F1F1" height="80.5938" id="Coordinate" rx="2.5" ry="2.5" style="stroke:#181818;stroke-width:0.5;" width="108.9932" x="7" y="575.08"/><ellipse cx="22" cy="591.08" fill="#ADD1B2" rx="11" ry="11" style="stroke:#181818;stroke-width:1.0;"/><path d="M24.9688,596.7206 Q24.3906,597.0175 23.75,597.1581 Q23.1094,597.3144 22.4063,597.3144 Q19.9063,597.3144 18.5781,595.6737 Q17.2656,594.0175 17.2656,590.8925 Q17.2656,587.7675 18.5781,586.1112 Q19.9063,584.455 22.4063,584.455 Q23.1094,584.455 23.75,584.6112 Q24.4063,584.7675 24.9688,585.0644 L24.9688,587.7831 Q24.3438,587.205 23.75,586.9394 Q23.1563,586.6581 22.5313,586.6581 Q21.1875,586.6581 20.5,587.7362 Q19.8125,588.7987 19.8125,590.8925 Q19.8125,592.9862 20.5,594.0644 Q21.1875,595.1269 22.5313,595.1269 Q23.1563,595.1269 23.75,594.8612 Q24.3438,594.58 24.9688,594.0019 L24.9688,596.7206 Z " fill="#000000"/><text fill="#000000" font-family="sans-serif" font-size="14" lengthAdjust="spacing" textLength="76.9932" x="36" y="595.9267">Coordinate</text><line style="stroke:#181818;stroke-width:0.5;" x1="8" x2="114.9932" y1="607.08" y2="607.08"/><ellipse cx="18" cy="620.7284" fill="none" rx="3" ry="3" style="stroke:#038048;stroke-width:1.0;"/><text fill="#000000" font-family="sans-serif" font-size="14" lengthAdjust="spacing" textLength="35.7041" x="27" y="624.0751">x: int</text><ellipse cx="18" cy="637.0253" fill="none" rx="3" ry="3" style="stroke:#038048;stroke-width:1.0;"/><text fill="#000000" font-family="sans-serif" font-size="14" lengthAdjust="spacing" textLength="35.7041" x="27" y="640.372">y: int</text><line style="stroke:#181818;stroke-width:0.5;" x1="8" x2="114.9932" y1="647.6737" y2="647.6737"/></g><!--class TetraminoShape--><g id="elem_TetraminoShape"><rect codeLine="44" fill="#F1F1F1" height="162.0781" id="TetraminoShape" rx="2.5" ry="2.5" style="stroke:#181818;stroke-width:0.5;" width="147.7939" x="150.6" y="534.34"/><ellipse cx="165.6" cy="550.34" fill="#EB937F" rx="11" ry="11" style="stroke:#181818;stroke-width:1.0;"/><path d="M169.7094,556.34 L161.9906,556.34 L161.9906,543.9494 L169.7094,543.9494 L169.7094,546.1056 L164.4438,546.1056 L164.4438,548.7775 L169.2094,548.7775 L169.2094,550.9337 L164.4438,550.9337 L164.4438,554.1837 L169.7094,554.1837 L169.7094,556.34 Z " fill="#000000"/><text fill="#000000" font-family="sans-serif" font-size="14" lengthAdjust="spacing" textLength="115.7939" x="179.6" y="555.1867">TetraminoShape</text><line style="stroke:#181818;stroke-width:0.5;" x1="151.6" x2="297.3939" y1="566.34" y2="566.34"/><text fill="#000000" font-family="sans-serif" font-size="14" lengthAdjust="spacing" textLength="4.1289" x="156.6" y="583.3351">I</text><text fill="#000000" font-family="sans-serif" font-size="14" lengthAdjust="spacing" textLength="11.0195" x="156.6" y="599.632">O</text><text fill="#000000" font-family="sans-serif" font-size="14" lengthAdjust="spacing" textLength="8.5518" x="156.6" y="615.9289">T</text><text fill="#000000" font-family="sans-serif" font-size="14" lengthAdjust="spacing" textLength="8.8867" x="156.6" y="632.2257">S</text><text fill="#000000" font-family="sans-serif" font-size="14" lengthAdjust="spacing" textLength="9.5908" x="156.6" y="648.5226">Z</text><text fill="#000000" font-family="sans-serif" font-size="14" lengthAdjust="spacing" textLength="7.7998" x="156.6" y="664.8195">L</text><text fill="#000000" font-family="sans-serif" font-size="14" lengthAdjust="spacing" textLength="4.1289" x="156.6" y="681.1164">J</text><line style="stroke:#181818;stroke-width:0.5;" x1="151.6" x2="297.3939" y1="688.4181" y2="688.4181"/></g><!--class Direction--><g id="elem_Direction"><rect codeLine="54" fill="#F1F1F1" height="96.8906" id="Direction" rx="2.5" ry="2.5" style="stroke:#181818;stroke-width:0.5;" width="95.5537" x="333.72" y="566.94"/><ellipse cx="348.72" cy="582.94" fill="#EB937F" rx="11" ry="11" style="stroke:#181818;stroke-width:1.0;"/><path d="M352.8294,588.94 L345.1106,588.94 L345.1106,576.5494 L352.8294,576.5494 L352.8294,578.7056 L347.5638,578.7056 L347.5638,581.3775 L352.3294,581.3775 L352.3294,583.5337 L347.5638,583.5337 L347.5638,586.7837 L352.8294,586.7837 L352.8294,588.94 Z " fill="#000000"/><text fill="#000000" font-family="sans-serif" font-size="14" lengthAdjust="spacing" textLength="63.5537" x="362.72" y="587.7867">Direction</text><line style="stroke:#181818;stroke-width:0.5;" x1="334.72" x2="428.2737" y1="598.94" y2="598.94"/><text fill="#000000" font-family="sans-serif" font-size="14" lengthAdjust="spacing" textLength="22.9209" x="339.72" y="615.9351">left</text><text fill="#000000" font-family="sans-serif" font-size="14" lengthAdjust="spacing" textLength="32.8945" x="339.72" y="632.232">right</text><text fill="#000000" font-family="sans-serif" font-size="14" lengthAdjust="spacing" textLength="37.7754" x="339.72" y="648.5289">down</text><line style="stroke:#181818;stroke-width:0.5;" x1="334.72" x2="428.2737" y1="655.8306" y2="655.8306"/></g><!--class RotationState--><g id="elem_RotationState"><rect codeLine="62" fill="#F1F1F1" height="96.8906" id="RotationState" rx="2.5" ry="2.5" style="stroke:#181818;stroke-width:0.5;" width="128.2363" x="977.38" y="254.52"/><ellipse cx="992.38" cy="270.52" fill="#ADD1B2" rx="11" ry="11" style="stroke:#181818;stroke-width:1.0;"/><path d="M995.3488,276.1606 Q994.7706,276.4575 994.13,276.5981 Q993.4894,276.7544 992.7863,276.7544 Q990.2863,276.7544 988.9581,275.1138 Q987.6456,273.4575 987.6456,270.3325 Q987.6456,267.2075 988.9581,265.5513 Q990.2863,263.895 992.7863,263.895 Q993.4894,263.895 994.13,264.0513 Q994.7863,264.2075 995.3488,264.5044 L995.3488,267.2231 Q994.7238,266.645 994.13,266.3794 Q993.5363,266.0981 992.9113,266.0981 Q991.5675,266.0981 990.88,267.1763 Q990.1925,268.2388 990.1925,270.3325 Q990.1925,272.4263 990.88,273.5044 Q991.5675,274.5669 992.9113,274.5669 Q993.5363,274.5669 994.13,274.3013 Q994.7238,274.02 995.3488,273.4419 L995.3488,276.1606 Z " fill="#000000"/><text fill="#000000" font-family="sans-serif" font-size="14" lengthAdjust="spacing" textLength="96.2363" x="1006.38" y="275.3667">RotationState</text><line style="stroke:#181818;stroke-width:0.5;" x1="978.38" x2="1104.6163" y1="286.52" y2="286.52"/><rect fill="none" height="6" style="stroke:#C82930;stroke-width:1.0;" width="6" x="985.38" y="297.1684"/><text fill="#000000" font-family="sans-serif" font-size="14" lengthAdjust="spacing" textLength="67.334" x="997.38" y="303.5151">state : int</text><line style="stroke:#181818;stroke-width:0.5;" x1="978.38" x2="1104.6163" y1="310.8169" y2="310.8169"/><ellipse cx="988.38" cy="324.4653" fill="#84BE84" rx="3" ry="3" style="stroke:#038048;stroke-width:1.0;"/><text fill="#000000" font-family="sans-serif" font-size="14" lengthAdjust="spacing" textLength="99.0459" x="997.38" y="327.812">operator() ++</text><ellipse cx="988.38" cy="340.7622" fill="#84BE84" rx="3" ry="3" style="stroke:#038048;stroke-width:1.0;"/><text fill="#000000" font-family="sans-serif" font-size="14" lengthAdjust="spacing" textLength="70.9707" x="997.38" y="344.1089">getState()</text></g><!--class Color--><g id="elem_Color"><rect codeLine="69" fill="#F1F1F1" height="48" id="Color" rx="2.5" ry="2.5" style="stroke:#181818;stroke-width:0.5;" width="68.5518" x="1140.22" y="278.97"/><ellipse cx="1155.22" cy="294.97" fill="#EB937F" rx="11" ry="11" style="stroke:#181818;stroke-width:1.0;"/><path d="M1159.3294,300.97 L1151.6106,300.97 L1151.6106,288.5794 L1159.3294,288.5794 L1159.3294,290.7356 L1154.0638,290.7356 L1154.0638,293.4075 L1158.8294,293.4075 L1158.8294,295.5637 L1154.0638,295.5637 L1154.0638,298.8137 L1159.3294,298.8137 L1159.3294,300.97 Z " fill="#000000"/><text fill="#000000" font-family="sans-serif" font-size="14" lengthAdjust="spacing" textLength="36.5518" x="1169.22" y="299.8167">Color</text><line style="stroke:#181818;stroke-width:0.5;" x1="1141.22" x2="1207.7718" y1="310.97" y2="310.97"/><line style="stroke:#181818;stroke-width:0.5;" x1="1141.22" x2="1207.7718" y1="318.97" y2="318.97"/></g><!--class Board--><g id="elem_Board"><rect codeLine="73" fill="#F1F1F1" height="64.2969" id="Board" rx="2.5" ry="2.5" style="stroke:#181818;stroke-width:0.5;" width="161.4678" x="1243.76" y="270.82"/><ellipse cx="1299.5481" cy="286.82" fill="#ADD1B2" rx="11" ry="11" style="stroke:#181818;stroke-width:1.0;"/><path d="M1302.5168,292.4606 Q1301.9387,292.7575 1301.2981,292.8981 Q1300.6575,293.0544 1299.9543,293.0544 Q1297.4543,293.0544 1296.1262,291.4137 Q1294.8137,289.7575 1294.8137,286.6325 Q1294.8137,283.5075 1296.1262,281.8512 Q1297.4543,280.195 1299.9543,280.195 Q1300.6575,280.195 1301.2981,280.3512 Q1301.9543,280.5075 1302.5168,280.8044 L1302.5168,283.5231 Q1301.8918,282.945 1301.2981,282.6794 Q1300.7043,282.3981 1300.0793,282.3981 Q1298.7356,282.3981 1298.0481,283.4762 Q1297.3606,284.5387 1297.3606,286.6325 Q1297.3606,288.7262 1298.0481,289.8044 Q1298.7356,290.8669 1300.0793,290.8669 Q1300.7043,290.8669 1301.2981,290.6012 Q1301.8918,290.32 1302.5168,289.7419 L1302.5168,292.4606 Z " fill="#000000"/><text fill="#000000" font-family="sans-serif" font-size="14" lengthAdjust="spacing" textLength="41.3916" x="1320.0481" y="291.6667">Board</text><line style="stroke:#181818;stroke-width:0.5;" x1="1244.76" x2="1404.2278" y1="302.82" y2="302.82"/><rect fill="none" height="6" style="stroke:#C82930;stroke-width:1.0;" width="6" x="1251.76" y="313.4684"/><text fill="#000000" font-family="sans-serif" font-size="14" lengthAdjust="spacing" textLength="135.4678" x="1263.76" y="319.8151">grid : array[20][10]</text><line style="stroke:#181818;stroke-width:0.5;" x1="1244.76" x2="1404.2278" y1="327.1169" y2="327.1169"/></g><!--class TetraminoI--><g id="elem_TetraminoI"><rect codeLine="79" fill="#F1F1F1" height="64.2969" id="TetraminoI" rx="2.5" ry="2.5" style="stroke:#181818;stroke-width:0.5;" width="113.0078" x="463.99" y="583.23"/><ellipse cx="481.2057" cy="599.23" fill="#ADD1B2" rx="11" ry="11" style="stroke:#181818;stroke-width:1.0;"/><path d="M484.1745,604.8706 Q483.5963,605.1675 482.9557,605.3081 Q482.3151,605.4644 481.612,605.4644 Q479.112,605.4644 477.7838,603.8237 Q476.4713,602.1675 476.4713,599.0425 Q476.4713,595.9175 477.7838,594.2612 Q479.112,592.605 481.612,592.605 Q482.3151,592.605 482.9557,592.7612 Q483.612,592.9175 484.1745,593.2144 L484.1745,595.9331 Q483.5495,595.355 482.9557,595.0894 Q482.362,594.8081 481.737,594.8081 Q480.3932,594.8081 479.7057,595.8862 Q479.0182,596.9487 479.0182,599.0425 Q479.0182,601.1362 479.7057,602.2144 Q480.3932,603.2769 481.737,603.2769 Q482.362,603.2769 482.9557,603.0112 Q483.5495,602.73 484.1745,602.1519 L484.1745,604.8706 Z " fill="#000000"/><text fill="#000000" font-family="sans-serif" font-size="14" lengthAdjust="spacing" textLength="76.084" x="495.6981" y="604.0767">TetraminoI</text><line style="stroke:#181818;stroke-width:0.5;" x1="464.99" x2="575.9978" y1="615.23" y2="615.23"/><line style="stroke:#181818;stroke-width:0.5;" x1="464.99" x2="575.9978" y1="623.23" y2="623.23"/><ellipse cx="474.99" cy="636.8784" fill="#84BE84" rx="3" ry="3" style="stroke:#038048;stroke-width:1.0;"/><text fill="#000000" font-family="sans-serif" font-size="14" lengthAdjust="spacing" textLength="87.0078" x="483.99" y="640.2251">TetraminoI()</text></g><!--class TetraminoO--><g id="elem_TetraminoO"><rect codeLine="83" fill="#F1F1F1" height="80.5938" id="TetraminoO" rx="2.5" ry="2.5" style="stroke:#181818;stroke-width:0.5;" width="119.8984" x="611.55" y="575.08"/><ellipse cx="628.7657" cy="591.08" fill="#ADD1B2" rx="11" ry="11" style="stroke:#181818;stroke-width:1.0;"/><path d="M631.7345,596.7206 Q631.1563,597.0175 630.5157,597.1581 Q629.8751,597.3144 629.172,597.3144 Q626.672,597.3144 625.3438,595.6737 Q624.0313,594.0175 624.0313,590.8925 Q624.0313,587.7675 625.3438,586.1112 Q626.672,584.455 629.172,584.455 Q629.8751,584.455 630.5157,584.6112 Q631.172,584.7675 631.7345,585.0644 L631.7345,587.7831 Q631.1095,587.205 630.5157,586.9394 Q629.922,586.6581 629.297,586.6581 Q627.9532,586.6581 627.2657,587.7362 Q626.5782,588.7987 626.5782,590.8925 Q626.5782,592.9862 627.2657,594.0644 Q627.9532,595.1269 629.297,595.1269 Q629.922,595.1269 630.5157,594.8612 Q631.1095,594.58 631.7345,594.0019 L631.7345,596.7206 Z " fill="#000000"/><text fill="#000000" font-family="sans-serif" font-size="14" lengthAdjust="spacing" textLength="82.9746" x="643.2581" y="595.9267">TetraminoO</text><line style="stroke:#181818;stroke-width:0.5;" x1="612.55" x2="730.4484" y1="607.08" y2="607.08"/><line style="stroke:#181818;stroke-width:0.5;" x1="612.55" x2="730.4484" y1="615.08" y2="615.08"/><text fill="#000000" font-family="sans-serif" font-size="14" lengthAdjust="spacing" textLength="76.918" x="631.55" y="632.0751">tryRotate()</text><ellipse cx="622.55" cy="645.0253" fill="#84BE84" rx="3" ry="3" style="stroke:#038048;stroke-width:1.0;"/><text fill="#000000" font-family="sans-serif" font-size="14" lengthAdjust="spacing" textLength="93.8984" x="631.55" y="648.372">TetraminoO()</text></g><!--class TetraminoT--><g id="elem_TetraminoT"><rect codeLine="90" fill="#F1F1F1" height="64.2969" id="TetraminoT" rx="2.5" ry="2.5" style="stroke:#181818;stroke-width:0.5;" width="117.4307" x="766.78" y="583.23"/><ellipse cx="783.9957" cy="599.23" fill="#ADD1B2" rx="11" ry="11" style="stroke:#181818;stroke-width:1.0;"/><path d="M786.9645,604.8706 Q786.3863,605.1675 785.7457,605.3081 Q785.1051,605.4644 784.402,605.4644 Q781.902,605.4644 780.5738,603.8237 Q779.2613,602.1675 779.2613,599.0425 Q779.2613,595.9175 780.5738,594.2612 Q781.902,592.605 784.402,592.605 Q785.1051,592.605 785.7457,592.7612 Q786.402,592.9175 786.9645,593.2144 L786.9645,595.9331 Q786.3395,595.355 785.7457,595.0894 Q785.152,594.8081 784.527,594.8081 Q783.1832,594.8081 782.4957,595.8862 Q781.8082,596.9487 781.8082,599.0425 Q781.8082,601.1362 782.4957,602.2144 Q783.1832,603.2769 784.527,603.2769 Q785.152,603.2769 785.7457,603.0112 Q786.3395,602.73 786.9645,602.1519 L786.9645,604.8706 Z " fill="#000000"/><text fill="#000000" font-family="sans-serif" font-size="14" lengthAdjust="spacing" textLength="80.5068" x="798.4881" y="604.0767">TetraminoT</text><line style="stroke:#181818;stroke-width:0.5;" x1="767.78" x2="883.2107" y1="615.23" y2="615.23"/><line style="stroke:#181818;stroke-width:0.5;" x1="767.78" x2="883.2107" y1="623.23" y2="623.23"/><ellipse cx="777.78" cy="636.8784" fill="#84BE84" rx="3" ry="3" style="stroke:#038048;stroke-width:1.0;"/><text fill="#000000" font-family="sans-serif" font-size="14" lengthAdjust="spacing" textLength="91.4307" x="786.78" y="640.2251">TetraminoT()</text></g><!--class TetraminoS--><g id="elem_TetraminoS"><rect codeLine="94" fill="#F1F1F1" height="64.2969" id="TetraminoS" rx="2.5" ry="2.5" style="stroke:#181818;stroke-width:0.5;" width="117.7656" x="919.61" y="583.23"/><ellipse cx="936.8257" cy="599.23" fill="#ADD1B2" rx="11" ry="11" style="stroke:#181818;stroke-width:1.0;"/><path d="M939.7945,604.8706 Q939.2163,605.1675 938.5757,605.3081 Q937.9351,605.4644 937.232,605.4644 Q934.732,605.4644 933.4038,603.8237 Q932.0913,602.1675 932.0913,599.0425 Q932.0913,595.9175 933.4038,594.2612 Q934.732,592.605 937.232,592.605 Q937.9351,592.605 938.5757,592.7612 Q939.232,592.9175 939.7945,593.2144 L939.7945,595.9331 Q939.1695,595.355 938.5757,595.0894 Q937.982,594.8081 937.357,594.8081 Q936.0132,594.8081 935.3257,595.8862 Q934.6382,596.9487 934.6382,599.0425 Q934.6382,601.1362 935.3257,602.2144 Q936.0132,603.2769 937.357,603.2769 Q937.982,603.2769 938.5757,603.0112 Q939.1695,602.73 939.7945,602.1519 L939.7945,604.8706 Z " fill="#000000"/><text fill="#000000" font-family="sans-serif" font-size="14" lengthAdjust="spacing" textLength="80.8418" x="951.3181" y="604.0767">TetraminoS</text><line style="stroke:#181818;stroke-width:0.5;" x1="920.61" x2="1036.3756" y1="615.23" y2="615.23"/><line style="stroke:#181818;stroke-width:0.5;" x1="920.61" x2="1036.3756" y1="623.23" y2="623.23"/><ellipse cx="930.61" cy="636.8784" fill="#84BE84" rx="3" ry="3" style="stroke:#038048;stroke-width:1.0;"/><text fill="#000000" font-family="sans-serif" font-size="14" lengthAdjust="spacing" textLength="91.7656" x="939.61" y="640.2251">TetraminoS()</text></g><!--class TetraminoZ--><g id="elem_TetraminoZ"><rect codeLine="98" fill="#F1F1F1" height="64.2969" id="TetraminoZ" rx="2.5" ry="2.5" style="stroke:#181818;stroke-width:0.5;" width="118.4697" x="1072.26" y="583.23"/><ellipse cx="1089.4757" cy="599.23" fill="#ADD1B2" rx="11" ry="11" style="stroke:#181818;stroke-width:1.0;"/><path d="M1092.4445,604.8706 Q1091.8663,605.1675 1091.2257,605.3081 Q1090.5851,605.4644 1089.882,605.4644 Q1087.382,605.4644 1086.0538,603.8237 Q1084.7413,602.1675 1084.7413,599.0425 Q1084.7413,595.9175 1086.0538,594.2612 Q1087.382,592.605 1089.882,592.605 Q1090.5851,592.605 1091.2257,592.7612 Q1091.882,592.9175 1092.4445,593.2144 L1092.4445,595.9331 Q1091.8195,595.355 1091.2257,595.0894 Q1090.632,594.8081 1090.007,594.8081 Q1088.6632,594.8081 1087.9757,595.8862 Q1087.2882,596.9487 1087.2882,599.0425 Q1087.2882,601.1362 1087.9757,602.2144 Q1088.6632,603.2769 1090.007,603.2769 Q1090.632,603.2769 1091.2257,603.0112 Q1091.8195,602.73 1092.4445,602.1519 L1092.4445,604.8706 Z " fill="#000000"/><text fill="#000000" font-family="sans-serif" font-size="14" lengthAdjust="spacing" textLength="81.5459" x="1103.9681" y="604.0767">TetraminoZ</text><line style="stroke:#181818;stroke-width:0.5;" x1="1073.26" x2="1189.7297" y1="615.23" y2="615.23"/><line style="stroke:#181818;stroke-width:0.5;" x1="1073.26" x2="1189.7297" y1="623.23" y2="623.23"/><ellipse cx="1083.26" cy="636.8784" fill="#84BE84" rx="3" ry="3" style="stroke:#038048;stroke-width:1.0;"/><text fill="#000000" font-family="sans-serif" font-size="14" lengthAdjust="spacing" textLength="92.4697" x="1092.26" y="640.2251">TetraminoZ()</text></g><!--class TetraminoL--><g id="elem_TetraminoL"><rect codeLine="102" fill="#F1F1F1" height="64.2969" id="TetraminoL" rx="2.5" ry="2.5" style="stroke:#181818;stroke-width:0.5;" width="116.6787" x="1226.16" y="583.23"/><ellipse cx="1243.3757" cy="599.23" fill="#ADD1B2" rx="11" ry="11" style="stroke:#181818;stroke-width:1.0;"/><path d="M1246.3445,604.8706 Q1245.7663,605.1675 1245.1257,605.3081 Q1244.4851,605.4644 1243.782,605.4644 Q1241.282,605.4644 1239.9538,603.8237 Q1238.6413,602.1675 1238.6413,599.0425 Q1238.6413,595.9175 1239.9538,594.2612 Q1241.282,592.605 1243.782,592.605 Q1244.4851,592.605 1245.1257,592.7612 Q1245.782,592.9175 1246.3445,593.2144 L1246.3445,595.9331 Q1245.7195,595.355 1245.1257,595.0894 Q1244.532,594.8081 1243.907,594.8081 Q1242.5632,594.8081 1241.8757,595.8862 Q1241.1882,596.9487 1241.1882,599.0425 Q1241.1882,601.1362 1241.8757,602.2144 Q1242.5632,603.2769 1243.907,603.2769 Q1244.532,603.2769 1245.1257,603.0112 Q1245.7195,602.73 1246.3445,602.1519 L1246.3445,604.8706 Z " fill="#000000"/><text fill="#000000" font-family="sans-serif" font-size="14" lengthAdjust="spacing" textLength="79.7549" x="1257.8681" y="604.0767">TetraminoL</text><line style="stroke:#181818;stroke-width:0.5;" x1="1227.16" x2="1341.8387" y1="615.23" y2="615.23"/><line style="stroke:#181818;stroke-width:0.5;" x1="1227.16" x2="1341.8387" y1="623.23" y2="623.23"/><ellipse cx="1237.16" cy="636.8784" fill="#84BE84" rx="3" ry="3" style="stroke:#038048;stroke-width:1.0;"/><text fill="#000000" font-family="sans-serif" font-size="14" lengthAdjust="spacing" textLength="90.6787" x="1246.16" y="640.2251">TetraminoL()</text></g><!--class TetraminoJ--><g id="elem_TetraminoJ"><rect codeLine="106" fill="#F1F1F1" height="64.2969" id="TetraminoJ" rx="2.5" ry="2.5" style="stroke:#181818;stroke-width:0.5;" width="118.4697" x="1378.26" y="583.23"/><ellipse cx="1397.9336" cy="599.23" fill="#ADD1B2" rx="11" ry="11" style="stroke:#181818;stroke-width:1.0;"/><path d="M1400.9023,604.8706 Q1400.3242,605.1675 1399.6836,605.3081 Q1399.043,605.4644 1398.3398,605.4644 Q1395.8398,605.4644 1394.5117,603.8237 Q1393.1992,602.1675 1393.1992,599.0425 Q1393.1992,595.9175 1394.5117,594.2612 Q1395.8398,592.605 1398.3398,592.605 Q1399.043,592.605 1399.6836,592.7612 Q1400.3398,592.9175 1400.9023,593.2144 L1400.9023,595.9331 Q1400.2773,595.355 1399.6836,595.0894 Q1399.0898,594.8081 1398.4648,594.8081 Q1397.1211,594.8081 1396.4336,595.8862 Q1395.7461,596.9487 1395.7461,599.0425 Q1395.7461,601.1362 1396.4336,602.2144 Q1397.1211,603.2769 1398.4648,603.2769 Q1399.0898,603.2769 1399.6836,603.0112 Q1400.2773,602.73 1400.9023,602.1519 L1400.9023,604.8706 Z " fill="#000000"/><text fill="#000000" font-family="sans-serif" font-size="14" lengthAdjust="spacing" textLength="76.084" x="1412.9722" y="604.0767">TetraminoJ</text><line style="stroke:#181818;stroke-width:0.5;" x1="1379.26" x2="1495.7297" y1="615.23" y2="615.23"/><line style="stroke:#181818;stroke-width:0.5;" x1="1379.26" x2="1495.7297" y1="623.23" y2="623.23"/><ellipse cx="1389.26" cy="636.8784" fill="#84BE84" rx="3" ry="3" style="stroke:#038048;stroke-width:1.0;"/><text fill="#000000" font-family="sans-serif" font-size="14" lengthAdjust="spacing" textLength="92.4697" x="1398.26" y="640.2251">TetraminoZ()</text></g><!--class AbstarctPiece--><g id="elem_AbstarctPiece"><rect fill="#F1F1F1" height="48" id="AbstarctPiece" rx="2.5" ry="2.5" style="stroke:#181818;stroke-width:0.5;" width="128.0244" x="684.48" y="23.3"/><ellipse cx="699.48" cy="39.3" fill="#ADD1B2" rx="11" ry="11" style="stroke:#181818;stroke-width:1.0;"/><path d="M702.4488,44.9406 Q701.8706,45.2375 701.23,45.3781 Q700.5894,45.5344 699.8863,45.5344 Q697.3863,45.5344 696.0581,43.8937 Q694.7456,42.2375 694.7456,39.1125 Q694.7456,35.9875 696.0581,34.3312 Q697.3863,32.675 699.8863,32.675 Q700.5894,32.675 701.23,32.8312 Q701.8863,32.9875 702.4488,33.2844 L702.4488,36.0031 Q701.8238,35.425 701.23,35.1594 Q700.6363,34.8781 700.0113,34.8781 Q698.6675,34.8781 697.98,35.9562 Q697.2925,37.0187 697.2925,39.1125 Q697.2925,41.2062 697.98,42.2844 Q698.6675,43.3469 700.0113,43.3469 Q700.6363,43.3469 701.23,43.0812 Q701.8238,42.8 702.4488,42.2219 L702.4488,44.9406 Z " fill="#000000"/><text fill="#000000" font-family="sans-serif" font-size="14" lengthAdjust="spacing" textLength="96.0244" x="713.48" y="44.1467">AbstarctPiece</text><line style="stroke:#181818;stroke-width:0.5;" x1="685.48" x2="811.5044" y1="55.3" y2="55.3"/><line style="stroke:#181818;stroke-width:0.5;" x1="685.48" x2="811.5044" y1="63.3" y2="63.3"/></g><!--reverse link AbstractTetramino to TetraminoI--><g id="link_AbstractTetramino_TetraminoI"><path d="M624.843,472.3161 C590.013,519.7261 565.72,552.8 543.65,582.86 " fill="none" id="AbstractTetramino-backto-TetraminoI" style="stroke:#181818;stroke-width:1.0;"/><polygon fill="none" points="635.5,457.81,620.0076,468.7638,629.6784,475.8685,635.5,457.81" style="stroke:#181818;stroke-width:1.0;"/></g><!--reverse link AbstractTetramino to TetraminoO--><g id="link_AbstractTetramino_TetraminoO"><path d="M706.0004,475.2815 C695.2704,518.5815 688.82,544.54 681.35,574.65 " fill="none" id="AbstractTetramino-backto-TetraminoO" style="stroke:#181818;stroke-width:1.0;"/><polygon fill="none" points="710.33,457.81,700.1766,473.8384,711.8243,476.7247,710.33,457.81" style="stroke:#181818;stroke-width:1.0;"/></g><!--reverse link AbstractTetramino to TetraminoT--><g id="link_AbstractTetramino_TetraminoT"><path d="M790.9936,475.2806 C802.7536,522.6906 810.22,552.8 817.68,582.86 " fill="none" id="AbstractTetramino-backto-TetraminoT" style="stroke:#181818;stroke-width:1.0;"/><polygon fill="none" points="786.66,457.81,785.17,476.7251,796.8171,473.836,786.66,457.81" style="stroke:#181818;stroke-width:1.0;"/></g><!--reverse link AbstractTetramino to TetraminoS--><g id="link_AbstractTetramino_TetraminoS"><path d="M873.2064,472.2724 C908.3364,519.6824 932.87,552.8 955.14,582.86 " fill="none" id="AbstractTetramino-backto-TetraminoS" style="stroke:#181818;stroke-width:1.0;"/><polygon fill="none" points="862.49,457.81,868.3856,475.8445,878.0271,468.7002,862.49,457.81" style="stroke:#181818;stroke-width:1.0;"/></g><!--reverse link AbstractTetramino to TetraminoZ--><g id="link_AbstractTetramino_TetraminoZ"><path d="M956.9793,457.1342 C1003.9893,492.4642 1032.6,514.94 1054.5,534.34 C1071.53,549.43 1089.22,567.61 1103.34,582.84 " fill="none" id="AbstractTetramino-backto-TetraminoZ" style="stroke:#181818;stroke-width:1.0;"/><polygon fill="none" points="942.59,446.32,953.3746,461.9306,960.5841,452.3378,942.59,446.32" style="stroke:#181818;stroke-width:1.0;"/></g><!--reverse link AbstractTetramino to TetraminoL--><g id="link_AbstractTetramino_TetraminoL"><path d="M958.568,457.2151 C964.138,460.2651 953.93,454.55 959.5,457.34 C1063.07,509.21 1110.08,473.24 1208.5,534.34 C1228.85,546.98 1247.44,566.35 1261.15,582.88 " fill="none" id="AbstractTetramino-backto-TetraminoL" style="stroke:#181818;stroke-width:1.0;"/><polygon fill="none" points="942.78,448.57,955.6863,462.4778,961.4497,451.9525,942.78,448.57" style="stroke:#181818;stroke-width:1.0;"/></g><!--reverse link AbstractTetramino to TetraminoJ--><g id="link_AbstractTetramino_TetraminoJ"><path d="M958.8556,457.5056 C964.4456,460.2256 953.88,454.93 959.5,457.34 C1027.61,486.52 1050.71,473.47 1123.5,487.34 C1228.98,507.45 1266.27,482.83 1360.5,534.34 C1381.98,546.09 1401.1,565.88 1414.91,582.84 " fill="none" id="AbstractTetramino-backto-TetraminoJ" style="stroke:#181818;stroke-width:1.0;"/><polygon fill="none" points="942.67,449.63,956.2304,462.9009,961.4808,452.1104,942.67,449.63" style="stroke:#181818;stroke-width:1.0;"/></g><!--link AbstarctPiece to AbstractTetramino--><g id="link_AbstarctPiece_AbstractTetramino"><path codeLine="110" d="M748.5,71.71 C748.5,90.35 748.5,100.22 748.5,130.19 " fill="none" id="AbstarctPiece-to-AbstractTetramino" style="stroke:#181818;stroke-width:1.0;"/><polygon fill="none" points="748.5,148.19,754.5,130.19,742.5,130.19,748.5,148.19" style="stroke:#181818;stroke-width:1.0;"/></g><!--reverse link AbstractTetramino to Coordinate--><g id="link_AbstractTetramino_Coordinate"><path codeLine="111" d="M542.7098,354.1249 C415.6498,390.7649 261.62,447 133.5,534.34 C117.44,545.29 102.54,560.55 90.52,574.82 " fill="none" id="AbstractTetramino-backto-Coordinate" style="stroke:#181818;stroke-width:1.0;"/><polygon fill="#181818" points="554.24,350.8,547.3666,348.6191,542.7098,354.1249,549.5832,356.3059,554.24,350.8" style="stroke:#181818;stroke-width:1.0;"/><text fill="#000000" font-family="sans-serif" font-size="13" lengthAdjust="spacing" textLength="29.7832" x="210.32" y="500.4069">uses</text></g><!--link AbstractTetramino to RotationState--><g id="link_AbstractTetramino_RotationState"><path codeLine="112" d="M942.78,302.97 C954.22,302.97 965.66,302.97 977.1,302.97 " fill="none" id="AbstractTetramino-RotationState" style="stroke:#181818;stroke-width:1.0;"/><text fill="#000000" font-family="sans-serif" font-size="13" lengthAdjust="spacing" textLength="8.271" x="961.2071" y="299.1779">1</text></g><!--link AbstractTetramino to TetraminoShape--><g id="link_AbstractTetramino_TetraminoShape"><path codeLine="113" d="M554.33,395.66 C477.94,434.74 390.88,483.13 316.5,534.34 C310.57,538.42 309.3326,539.1547 303.4226,543.7347 " fill="none" id="AbstractTetramino-to-TetraminoShape" style="stroke:#181818;stroke-width:1.0;stroke-dasharray:7.0,7.0;"/><polygon fill="#181818" points="298.68,547.41,308.2441,545.0588,302.6322,544.3472,303.3437,538.7353,298.68,547.41" style="stroke:#181818;stroke-width:1.0;"/><text fill="#000000" font-family="sans-serif" font-size="13" lengthAdjust="spacing" textLength="29.7832" x="384.63" y="500.4069">uses</text></g><!--link AbstractTetramino to Direction--><g id="link_AbstractTetramino_Direction"><path codeLine="114" d="M554.36,441.19 C517.22,470.41 479.63,502.2 446.5,534.34 C436.35,544.19 430.0813,550.946 421.0013,561.986 " fill="none" id="AbstractTetramino-to-Direction" style="stroke:#181818;stroke-width:1.0;stroke-dasharray:7.0,7.0;"/><polygon fill="#181818" points="417.19,566.62,425.9963,562.2099,420.3661,562.7583,419.8176,557.1281,417.19,566.62" style="stroke:#181818;stroke-width:1.0;"/><text fill="#000000" font-family="sans-serif" font-size="13" lengthAdjust="spacing" textLength="29.7832" x="493.28" y="500.4069">uses</text></g><!--SRC=[dLHTQzim57tthxXq3qaMFDgnfp0orcPiBHqfSs2GKePYtoG2HogI-k6b_U-x-h2j91uZyuDi7PzxxjMvalAIQGrVsGQ_Y1KNk4s0dkGrINBtvwPa5IhmSCgrdNEnWX4if2mTEcpG_Y36hKZ25jeebXlmSf_3T8Rqsd0XQsLuueLPKpWN9Y1hvAkrYQ3UR3gPZY2NfLJmAR0MigY8yuYvaUhZXPIgu88P72S-XkWr1789PesGep2eUXgMfCFA4Zw0aeOPBWLeUgCEsfwek-KzfGxCR1mHVyHpNy8RQ5RRvu8Rpah-6zMlaciJAqQLwa5T_PBPn9Kt6hQsF9w_rd1VhzczJTjao2mGeeUmGlFJ-keQGpP2YtzpxjO_MloS_6pG01jLVPUFs2-u8X-iJIEOrD-3bkGMZ_s1wtpOGEq2Gwk7y1odhFo48b0yRFOM4a8ktJXruyoDcHldRhnsurKZqLGMeajS-cJAhjXz5V99n4NkTAtUaJgqDF9DtgDYP3mPD1osdcL-sP0qDLouFRfDseDqBfagwjs-KhmWPQOKgsxVdzxTdftUGLnGOyCbuBD1KNGUdL1MI_RMxqbC_otHe-uggedESCy1SJDtSqm9wKWoEwREMMUTsJ4IMQV4_1Y9UQV4zJ4IrvqIL_zHXMKobPiRZZb2chwC3uEJGxctQHgVi14yQBgz3dafd9oTxDvD1wHtwNZ_-FrLpt8dqMtWQ7HT_040]--></g></svg>