<svg xmlns="http://www.w3.org/2000/svg" xmlns:xlink="http://www.w3.org/1999/xlink" contentStyleType="text/css" height="845px" preserveAspectRatio="none" style="width:3454px;height:845px;background:#FFFFFF;" version="1.1" viewBox="0 0 3454 845" width="3454px" zoomAndPan="magnify"><defs/><g><!--class AbstractTetromino--><g id="elem_AbstractTetromino"><rect codeLine="7" fill="#F1F1F1" height="563.1563" id="AbstractTetromino" rx="2.5" ry="2.5" style="stroke:#181818;stroke-width:0.5;" width="898.3682" x="1910.5" y="7"/><ellipse cx="2298.248" cy="23" fill="#A9DCDF" rx="11" ry="11" style="stroke:#181818;stroke-width:1;"/><path d="M2303.4512,27.5 L2301.0137,27.5 L2300.248,24.7656 L2296.4668,24.7656 L2295.7012,27.5 L2293.248,27.5 L2296.9199,16.2969 L2299.7793,16.2969 L2303.4512,27.5 Z M2298.3574,17.8125 Q2298.2793,18.1563 2298.1074,18.8594 Q2297.9355,19.5469 2296.9824,22.9219 L2299.7324,22.9219 Q2298.7637,19.5 2298.5918,18.8281 Q2298.4199,18.1563 2298.3574,17.8125 Z " fill="#000000"/><text fill="#000000" font-family="sans-serif" font-size="14" font-style="italic" lengthAdjust="spacing" textLength="114.3721" x="2318.748" y="28.0825">AbstractTetromino</text><line style="stroke:#181818;stroke-width:0.5;" x1="1911.5" x2="2807.8682" y1="39" y2="39"/><rect fill="none" height="6" style="stroke:#C82930;stroke-width:1;" width="6" x="1918.5" y="49.5493"/><text fill="#000000" font-family="sans-serif" font-size="14" lengthAdjust="spacing" textLength="66.9238" x="1930.5" y="56.1318">width_ : int</text><rect fill="none" height="6" style="stroke:#C82930;stroke-width:1;" width="6" x="1918.5" y="65.6479"/><text fill="#000000" font-family="sans-serif" font-size="14" lengthAdjust="spacing" textLength="72.3857" x="1930.5" y="72.2305">height_ : int</text><rect fill="none" height="6" style="stroke:#C82930;stroke-width:1;" width="6" x="1918.5" y="81.7466"/><text fill="#000000" font-family="sans-serif" font-size="14" lengthAdjust="spacing" textLength="161.1025" x="1930.5" y="88.3291">shape_ : TetraminoShape</text><rect fill="none" height="6" style="stroke:#C82930;stroke-width:1;" width="6" x="1918.5" y="97.8452"/><text fill="#000000" font-family="sans-serif" font-size="14" lengthAdjust="spacing" textLength="162.6611" x="1930.5" y="104.4277">anchorPoint_ : Coordinate</text><rect fill="none" height="6" style="stroke:#C82930;stroke-width:1;" width="6" x="1918.5" y="113.9438"/><text fill="#000000" font-family="sans-serif" font-size="14" lengthAdjust="spacing" textLength="172.7783" x="1930.5" y="120.5264">body_ : vector&lt;Coordinate&gt;</text><rect fill="none" height="6" style="stroke:#C82930;stroke-width:1;" width="6" x="1918.5" y="130.0425"/><text fill="#000000" font-family="sans-serif" font-size="14" lengthAdjust="spacing" textLength="163.4336" x="1930.5" y="136.625">rotationIdx_ : RotationIdx_</text><rect fill="none" height="6" style="stroke:#C82930;stroke-width:1;" width="6" x="1918.5" y="146.1411"/><text fill="#000000" font-family="sans-serif" font-size="14" lengthAdjust="spacing" textLength="188.3301" x="1930.5" y="152.7236">prevRotationIdx : RotationIdx_</text><rect fill="none" height="6" style="stroke:#C82930;stroke-width:1;" width="6" x="1918.5" y="162.2397"/><text fill="#000000" font-family="sans-serif" font-size="14" lengthAdjust="spacing" textLength="315.5742" x="1930.5" y="168.8223">offsetData_ : const &lt;vector&lt;vector&lt;Coordinate&gt;&gt;&amp;</text><text fill="#000000" font-family="sans-serif" font-size="14" lengthAdjust="spacing" textLength="3.8896" x="1930.5" y="184.9209">&#160;</text><polygon fill="none" points="1921.5,192.437,1925.5,196.437,1921.5,200.437,1917.5,196.437" style="stroke:#B38D22;stroke-width:1;"/><text fill="#000000" font-family="sans-serif" font-size="14" lengthAdjust="spacing" text-decoration="underline" textLength="345.4814" x="1930.5" y="201.0195">O_OFFSET_DATA : const vector&lt;vector&lt;Coordinate&gt;&gt;</text><polygon fill="none" points="1921.5,208.5356,1925.5,212.5356,1921.5,216.5356,1917.5,212.5356" style="stroke:#B38D22;stroke-width:1;"/><text fill="#000000" font-family="sans-serif" font-size="14" lengthAdjust="spacing" text-decoration="underline" textLength="338.4814" x="1930.5" y="217.1182">I_OFFSET_DATA : const vector&lt;vector&lt;Coordinate&gt;&gt;</text><polygon fill="none" points="1921.5,224.6343,1925.5,228.6343,1921.5,232.6343,1917.5,228.6343" style="stroke:#B38D22;stroke-width:1;"/><text fill="#000000" font-family="sans-serif" font-size="14" lengthAdjust="spacing" text-decoration="underline" textLength="375.8193" x="1930.5" y="233.2168">ZLSJT_OFFSET_DATA : const vector&lt;vector&lt;Coordinate&gt;&gt;</text><line style="stroke:#181818;stroke-width:0.5;" x1="1911.5" x2="2807.8682" y1="240.1836" y2="240.1836"/><polygon fill="#FFFF44" points="1921.5,248.7329,1925.5,252.7329,1921.5,256.7329,1917.5,252.7329" style="stroke:#B38D22;stroke-width:1;"/><text fill="#000000" font-family="sans-serif" font-size="14" lengthAdjust="spacing" textLength="872.3682" x="1930.5" y="257.3154">Tetromino(anchorPoint : Coordinate&amp;&amp;, body : vector&lt;Coordinate&gt;&amp;&amp;, offsetData : vector&lt;vector&lt;Coordinate&gt;&gt;&amp;, shape : TetrominoShape )</text><polygon fill="#FFFF44" points="1921.5,264.8315,1925.5,268.8315,1921.5,272.8315,1917.5,268.8315" style="stroke:#B38D22;stroke-width:1;"/><text fill="#000000" font-family="sans-serif" font-size="14" lengthAdjust="spacing" textLength="197.6201" x="1930.5" y="273.4141">Tetromino(other : Tetromino&amp;&amp;)</text><ellipse cx="1921.5" cy="285.9302" fill="#84BE84" rx="3" ry="3" style="stroke:#038048;stroke-width:1;"/><text fill="#000000" font-family="sans-serif" font-size="14" lengthAdjust="spacing" textLength="225.6338" x="1930.5" y="289.5127">Tetromino(other : const Tetromino&amp;)</text><ellipse cx="1921.5" cy="302.0288" fill="#84BE84" rx="3" ry="3" style="stroke:#038048;stroke-width:1;"/><text fill="#000000" font-family="sans-serif" font-size="14" lengthAdjust="spacing" textLength="137.3271" x="1930.5" y="305.6113">&#171;virtual&#187; ~Tetromino()</text><ellipse cx="1921.5" cy="318.1274" fill="#84BE84" rx="3" ry="3" style="stroke:#038048;stroke-width:1;"/><text fill="#000000" font-family="sans-serif" font-size="14" lengthAdjust="spacing" text-decoration="underline" textLength="598.4316" x="1930.5" y="321.71">makeTetromino(shape : TetrominoShape, anchorPoint : Coordinate&amp;&amp;) : unique_ptr&lt;Tetromino&gt;</text><ellipse cx="1921.5" cy="334.2261" fill="#84BE84" rx="3" ry="3" style="stroke:#038048;stroke-width:1;"/><text fill="#000000" font-family="sans-serif" font-size="14" lengthAdjust="spacing" textLength="147.834" x="1930.5" y="337.8086">&#171;virtual&#187; getWidth() : int</text><ellipse cx="1921.5" cy="350.3247" fill="#84BE84" rx="3" ry="3" style="stroke:#038048;stroke-width:1;"/><text fill="#000000" font-family="sans-serif" font-size="14" lengthAdjust="spacing" textLength="152.5166" x="1930.5" y="353.9072">&#171;virtual&#187; getHeight() : int</text><ellipse cx="1921.5" cy="366.4233" fill="#84BE84" rx="3" ry="3" style="stroke:#038048;stroke-width:1;"/><text fill="#000000" font-family="sans-serif" font-size="14" lengthAdjust="spacing" textLength="241.2471" x="1930.5" y="370.0059">&#171;virtual&#187; getShape() : TetrominoShape</text><ellipse cx="1921.5" cy="382.522" fill="#84BE84" rx="3" ry="3" style="stroke:#038048;stroke-width:1;"/><text fill="#000000" font-family="sans-serif" font-size="14" lengthAdjust="spacing" textLength="251.3574" x="1930.5" y="386.1045">&#171;virtual&#187; getAnchorPoint() : Coordinate&amp;</text><ellipse cx="1921.5" cy="398.6206" fill="#84BE84" rx="3" ry="3" style="stroke:#038048;stroke-width:1;"/><text fill="#000000" font-family="sans-serif" font-size="14" lengthAdjust="spacing" textLength="269.6504" x="1930.5" y="402.2031">&#171;virtual&#187; getBody() : vector&lt;Coordinate&gt;&gt;&amp;</text><ellipse cx="1921.5" cy="414.7192" fill="#84BE84" rx="3" ry="3" style="stroke:#038048;stroke-width:1;"/><text fill="#000000" font-family="sans-serif" font-size="14" lengthAdjust="spacing" textLength="279.3848" x="1930.5" y="418.3018">&#171;virtual&#187; getRotationIndex() : RotationIndex&amp;</text><ellipse cx="1921.5" cy="430.8179" fill="#84BE84" rx="3" ry="3" style="stroke:#038048;stroke-width:1;"/><text fill="#000000" font-family="sans-serif" font-size="14" lengthAdjust="spacing" textLength="308.1709" x="1930.5" y="434.4004">&#171;virtual&#187; getPrevRotationIndex() : RotationIndex&amp;</text><ellipse cx="1921.5" cy="446.9165" fill="#84BE84" rx="3" ry="3" style="stroke:#038048;stroke-width:1;"/><text fill="#000000" font-family="sans-serif" font-size="14" lengthAdjust="spacing" textLength="403.0947" x="1930.5" y="450.499">&#171;virtual&#187; getNthKick(kickIndex : uint8_t) : unique_ptr&lt;Tetromino&gt;</text><ellipse cx="1921.5" cy="463.0151" fill="#84BE84" rx="3" ry="3" style="stroke:#038048;stroke-width:1;"/><text fill="#000000" font-family="sans-serif" font-size="14" lengthAdjust="spacing" textLength="199.2197" x="1930.5" y="466.5977">&#171;virtual&#187; getColorId() : unsigned</text><ellipse cx="1921.5" cy="479.1138" fill="#84BE84" rx="3" ry="3" style="stroke:#038048;stroke-width:1;"/><text fill="#000000" font-family="sans-serif" font-size="14" lengthAdjust="spacing" textLength="362.6396" x="1930.5" y="482.6963">&#171;virtual&#187; setAnchorPoint(anchorPoint : const Coordinate&amp;)</text><ellipse cx="1921.5" cy="495.2124" fill="#84BE84" rx="3" ry="3" style="stroke:#038048;stroke-width:1;"/><text fill="#000000" font-family="sans-serif" font-size="14" lengthAdjust="spacing" textLength="238.8818" x="1930.5" y="498.7949">&#171;virtual&#187; rotate(rotateClockwise : bool)</text><ellipse cx="1921.5" cy="511.311" fill="#84BE84" rx="3" ry="3" style="stroke:#038048;stroke-width:1;"/><text fill="#000000" font-family="sans-serif" font-size="14" lengthAdjust="spacing" textLength="358.3193" x="1930.5" y="514.8936">&#171;virtual&#187; move(direction : Direction, reverse : bool = false)</text><ellipse cx="1921.5" cy="527.4097" fill="#84BE84" rx="3" ry="3" style="stroke:#038048;stroke-width:1;"/><text fill="#000000" font-family="sans-serif" font-size="14" lengthAdjust="spacing" textLength="326.0537" x="1930.5" y="530.9922">&#171;virtual&#187; operator==(other : const Tetromino&amp;) : bool</text><ellipse cx="1921.5" cy="543.5083" fill="#84BE84" rx="3" ry="3" style="stroke:#038048;stroke-width:1;"/><text fill="#000000" font-family="sans-serif" font-size="14" lengthAdjust="spacing" textLength="178.9375" x="1930.5" y="547.0908">tryMove(direction : Direction)</text><ellipse cx="1921.5" cy="559.6069" fill="#84BE84" rx="3" ry="3" style="stroke:#038048;stroke-width:1;"/><text fill="#000000" font-family="sans-serif" font-size="14" lengthAdjust="spacing" textLength="66.124" x="1930.5" y="563.1895">tryRotate()</text></g><!--class TetrominoShape--><g id="elem_TetrominoShape"><rect codeLine="58" fill="#F1F1F1" height="176.7891" id="TetrominoShape" rx="2.5" ry="2.5" style="stroke:#181818;stroke-width:0.5;" width="183.124" x="132" y="200"/><ellipse cx="168.4295" cy="216" fill="#EB937F" rx="11" ry="11" style="stroke:#181818;stroke-width:1;"/><path d="M164.0701,221.5 L164.0701,210.2969 L172.1014,210.2969 L172.1014,212.1875 L166.5232,212.1875 L166.5232,214.8906 L171.6014,214.8906 L171.6014,216.7813 L166.5232,216.7813 L166.5232,219.6094 L172.4451,219.6094 L172.4451,221.5 L164.0701,221.5 Z " fill="#000000"/><text fill="#000000" font-family="sans-serif" font-size="14" lengthAdjust="spacing" textLength="103.5029" x="187.1916" y="221.0825">TetrominoShape</text><line style="stroke:#181818;stroke-width:0.5;" x1="133" x2="314.124" y1="232" y2="232"/><text fill="#000000" font-family="sans-serif" font-size="14" lengthAdjust="spacing" textLength="8.5518" x="138" y="249.1318">Z</text><text fill="#000000" font-family="sans-serif" font-size="14" lengthAdjust="spacing" textLength="7.7861" x="138" y="265.2305">L</text><text fill="#000000" font-family="sans-serif" font-size="14" lengthAdjust="spacing" textLength="10.8896" x="138" y="281.3291">O</text><text fill="#000000" font-family="sans-serif" font-size="14" lengthAdjust="spacing" textLength="9.3379" x="138" y="297.4277">S</text><text fill="#000000" font-family="sans-serif" font-size="14" lengthAdjust="spacing" textLength="3.8896" x="138" y="313.5264">I</text><text fill="#000000" font-family="sans-serif" font-size="14" lengthAdjust="spacing" textLength="7" x="138" y="329.625">J</text><text fill="#000000" font-family="sans-serif" font-size="14" lengthAdjust="spacing" textLength="8.5518" x="138" y="345.7236">T</text><text fill="#000000" font-family="sans-serif" font-size="14" lengthAdjust="spacing" textLength="171.124" x="138" y="361.8223">NUM_TETROMINOSHAPE</text><line style="stroke:#181818;stroke-width:0.5;" x1="133" x2="314.124" y1="368.7891" y2="368.7891"/></g><!--class Direction--><g id="elem_Direction"><rect codeLine="70" fill="#F1F1F1" height="96.2959" id="Direction" rx="2.5" ry="2.5" style="stroke:#181818;stroke-width:0.5;" width="87.2412" x="350" y="240.5"/><ellipse cx="365" cy="256.5" fill="#EB937F" rx="11" ry="11" style="stroke:#181818;stroke-width:1;"/><path d="M360.6406,262 L360.6406,250.7969 L368.6719,250.7969 L368.6719,252.6875 L363.0938,252.6875 L363.0938,255.3906 L368.1719,255.3906 L368.1719,257.2813 L363.0938,257.2813 L363.0938,260.1094 L369.0156,260.1094 L369.0156,262 L360.6406,262 Z " fill="#000000"/><text fill="#000000" font-family="sans-serif" font-size="14" lengthAdjust="spacing" textLength="55.2412" x="379" y="261.5825">Direction</text><line style="stroke:#181818;stroke-width:0.5;" x1="351" x2="436.2412" y1="272.5" y2="272.5"/><text fill="#000000" font-family="sans-serif" font-size="14" lengthAdjust="spacing" textLength="18.6758" x="356" y="289.6318">left</text><text fill="#000000" font-family="sans-serif" font-size="14" lengthAdjust="spacing" textLength="27.2344" x="356" y="305.7305">right</text><text fill="#000000" font-family="sans-serif" font-size="14" lengthAdjust="spacing" textLength="33.4688" x="356" y="321.8291">down</text><line style="stroke:#181818;stroke-width:0.5;" x1="351" x2="436.2412" y1="328.7959" y2="328.7959"/></g><!--class Color--><g id="elem_Color"><rect codeLine="77" fill="#F1F1F1" height="48" id="Color" rx="2.5" ry="2.5" style="stroke:#181818;stroke-width:0.5;" width="65.4551" x="472" y="264.5"/><ellipse cx="487" cy="280.5" fill="#EB937F" rx="11" ry="11" style="stroke:#181818;stroke-width:1;"/><path d="M482.6406,286 L482.6406,274.7969 L490.6719,274.7969 L490.6719,276.6875 L485.0938,276.6875 L485.0938,279.3906 L490.1719,279.3906 L490.1719,281.2813 L485.0938,281.2813 L485.0938,284.1094 L491.0156,284.1094 L491.0156,286 L482.6406,286 Z " fill="#000000"/><text fill="#000000" font-family="sans-serif" font-size="14" lengthAdjust="spacing" textLength="33.4551" x="501" y="285.5825">Color</text><line style="stroke:#181818;stroke-width:0.5;" x1="473" x2="536.4551" y1="296.5" y2="296.5"/><line style="stroke:#181818;stroke-width:0.5;" x1="473" x2="536.4551" y1="304.5" y2="304.5"/></g><!--class TetrominoI--><g id="elem_TetrominoI"><rect codeLine="82" fill="#F1F1F1" height="64.0986" id="TetrominoI" rx="2.5" ry="2.5" style="stroke:#181818;stroke-width:0.5;" width="329.4814" x="1215" y="702.5"/><ellipse cx="1342.0356" cy="718.5" fill="#ADD1B2" rx="11" ry="11" style="stroke:#181818;stroke-width:1;"/><path d="M1339.6919,718.3438 Q1339.6919,720.2188 1340.27,721.2344 Q1340.8481,722.2344 1342.0044,722.2344 Q1343.3481,722.2344 1344.0044,720.2188 L1346.27,720.6406 Q1345.1606,724.1719 1341.9888,724.1719 Q1339.645,724.1719 1338.4263,722.6875 Q1337.2075,721.2031 1337.2075,718.3438 Q1337.2075,712.625 1341.9106,712.625 Q1343.4575,712.625 1344.4888,713.4375 Q1345.5356,714.25 1346.0356,715.8594 L1343.77,716.4063 Q1343.5356,715.5313 1343.0513,715.0469 Q1342.5669,714.5469 1341.9419,714.5469 Q1339.6919,714.5469 1339.6919,718.3438 Z " fill="#000000"/><text fill="#000000" font-family="sans-serif" font-size="14" lengthAdjust="spacing" textLength="66.9102" x="1362.5356" y="723.5825">TetrominoI</text><line style="stroke:#181818;stroke-width:0.5;" x1="1216" x2="1543.4814" y1="734.5" y2="734.5"/><line style="stroke:#181818;stroke-width:0.5;" x1="1216" x2="1543.4814" y1="742.5" y2="742.5"/><ellipse cx="1226" cy="756.0493" fill="#84BE84" rx="3" ry="3" style="stroke:#038048;stroke-width:1;"/><text fill="#000000" font-family="sans-serif" font-size="14" lengthAdjust="spacing" textLength="303.4814" x="1235" y="759.6318">&#171;move&#187;TetrominoI(anchorPoint : Coordinate&amp;&amp; )</text></g><!--class TetrominoO--><g id="elem_TetrominoO"><rect codeLine="86" fill="#F1F1F1" height="64.0986" id="TetrominoO" rx="2.5" ry="2.5" style="stroke:#181818;stroke-width:0.5;" width="286.6748" x="1579" y="702.5"/><ellipse cx="1681.1323" cy="718.5" fill="#ADD1B2" rx="11" ry="11" style="stroke:#181818;stroke-width:1;"/><path d="M1678.7886,718.3438 Q1678.7886,720.2188 1679.3667,721.2344 Q1679.9448,722.2344 1681.1011,722.2344 Q1682.4448,722.2344 1683.1011,720.2188 L1685.3667,720.6406 Q1684.2573,724.1719 1681.0854,724.1719 Q1678.7417,724.1719 1677.5229,722.6875 Q1676.3042,721.2031 1676.3042,718.3438 Q1676.3042,712.625 1681.0073,712.625 Q1682.5542,712.625 1683.5854,713.4375 Q1684.6323,714.25 1685.1323,715.8594 L1682.8667,716.4063 Q1682.6323,715.5313 1682.1479,715.0469 Q1681.6636,714.5469 1681.0386,714.5469 Q1678.7886,714.5469 1678.7886,718.3438 Z " fill="#000000"/><text fill="#000000" font-family="sans-serif" font-size="14" lengthAdjust="spacing" textLength="73.9102" x="1701.6323" y="723.5825">TetrominoO</text><line style="stroke:#181818;stroke-width:0.5;" x1="1580" x2="1864.6748" y1="734.5" y2="734.5"/><line style="stroke:#181818;stroke-width:0.5;" x1="1580" x2="1864.6748" y1="742.5" y2="742.5"/><ellipse cx="1590" cy="756.0493" fill="#84BE84" rx="3" ry="3" style="stroke:#038048;stroke-width:1;"/><text fill="#000000" font-family="sans-serif" font-size="14" lengthAdjust="spacing" textLength="260.6748" x="1599" y="759.6318">TetrominoO(anchorPoint : Coordinate&amp;&amp; )</text></g><!--class TetrominoT--><g id="elem_TetrominoT"><rect codeLine="90" fill="#F1F1F1" height="64.0986" id="TetrominoT" rx="2.5" ry="2.5" style="stroke:#181818;stroke-width:0.5;" width="280.4473" x="1901.5" y="702.5"/><ellipse cx="2001.6875" cy="718.5" fill="#ADD1B2" rx="11" ry="11" style="stroke:#181818;stroke-width:1;"/><path d="M1999.3438,718.3438 Q1999.3438,720.2188 1999.9219,721.2344 Q2000.5,722.2344 2001.6563,722.2344 Q2003,722.2344 2003.6563,720.2188 L2005.9219,720.6406 Q2004.8125,724.1719 2001.6406,724.1719 Q1999.2969,724.1719 1998.0781,722.6875 Q1996.8594,721.2031 1996.8594,718.3438 Q1996.8594,712.625 2001.5625,712.625 Q2003.1094,712.625 2004.1406,713.4375 Q2005.1875,714.25 2005.6875,715.8594 L2003.4219,716.4063 Q2003.1875,715.5313 2002.7031,715.0469 Q2002.2188,714.5469 2001.5938,714.5469 Q1999.3438,714.5469 1999.3438,718.3438 Z " fill="#000000"/><text fill="#000000" font-family="sans-serif" font-size="14" lengthAdjust="spacing" textLength="71.5723" x="2022.1875" y="723.5825">TetrominoT</text><line style="stroke:#181818;stroke-width:0.5;" x1="1902.5" x2="2180.9473" y1="734.5" y2="734.5"/><line style="stroke:#181818;stroke-width:0.5;" x1="1902.5" x2="2180.9473" y1="742.5" y2="742.5"/><ellipse cx="1912.5" cy="756.0493" fill="#84BE84" rx="3" ry="3" style="stroke:#038048;stroke-width:1;"/><text fill="#000000" font-family="sans-serif" font-size="14" lengthAdjust="spacing" textLength="254.4473" x="1921.5" y="759.6318">TetrominoT(anchorPoint : Coordinate&amp;&amp;)</text></g><!--class TetrominoS--><g id="elem_TetrominoS"><rect codeLine="94" fill="#F1F1F1" height="64.0986" id="TetrominoS" rx="2.5" ry="2.5" style="stroke:#181818;stroke-width:0.5;" width="285.123" x="2217" y="702.5"/><ellipse cx="2319.1323" cy="718.5" fill="#ADD1B2" rx="11" ry="11" style="stroke:#181818;stroke-width:1;"/><path d="M2316.7886,718.3438 Q2316.7886,720.2188 2317.3667,721.2344 Q2317.9448,722.2344 2319.1011,722.2344 Q2320.4448,722.2344 2321.1011,720.2188 L2323.3667,720.6406 Q2322.2573,724.1719 2319.0854,724.1719 Q2316.7417,724.1719 2315.5229,722.6875 Q2314.3042,721.2031 2314.3042,718.3438 Q2314.3042,712.625 2319.0073,712.625 Q2320.5542,712.625 2321.5854,713.4375 Q2322.6323,714.25 2323.1323,715.8594 L2320.8667,716.4063 Q2320.6323,715.5313 2320.1479,715.0469 Q2319.6636,714.5469 2319.0386,714.5469 Q2316.7886,714.5469 2316.7886,718.3438 Z " fill="#000000"/><text fill="#000000" font-family="sans-serif" font-size="14" lengthAdjust="spacing" textLength="72.3584" x="2339.6323" y="723.5825">TetrominoS</text><line style="stroke:#181818;stroke-width:0.5;" x1="2218" x2="2501.123" y1="734.5" y2="734.5"/><line style="stroke:#181818;stroke-width:0.5;" x1="2218" x2="2501.123" y1="742.5" y2="742.5"/><ellipse cx="2228" cy="756.0493" fill="#84BE84" rx="3" ry="3" style="stroke:#038048;stroke-width:1;"/><text fill="#000000" font-family="sans-serif" font-size="14" lengthAdjust="spacing" textLength="259.123" x="2237" y="759.6318">TetrominoS(anchorPoint : Coordinate&amp;&amp; )</text></g><!--class TetrominoZ--><g id="elem_TetrominoZ"><rect codeLine="98" fill="#F1F1F1" height="64.0986" id="TetrominoZ" rx="2.5" ry="2.5" style="stroke:#181818;stroke-width:0.5;" width="280.4473" x="2537.5" y="702.5"/><ellipse cx="2637.6875" cy="718.5" fill="#ADD1B2" rx="11" ry="11" style="stroke:#181818;stroke-width:1;"/><path d="M2635.3438,718.3438 Q2635.3438,720.2188 2635.9219,721.2344 Q2636.5,722.2344 2637.6563,722.2344 Q2639,722.2344 2639.6563,720.2188 L2641.9219,720.6406 Q2640.8125,724.1719 2637.6406,724.1719 Q2635.2969,724.1719 2634.0781,722.6875 Q2632.8594,721.2031 2632.8594,718.3438 Q2632.8594,712.625 2637.5625,712.625 Q2639.1094,712.625 2640.1406,713.4375 Q2641.1875,714.25 2641.6875,715.8594 L2639.4219,716.4063 Q2639.1875,715.5313 2638.7031,715.0469 Q2638.2188,714.5469 2637.5938,714.5469 Q2635.3438,714.5469 2635.3438,718.3438 Z " fill="#000000"/><text fill="#000000" font-family="sans-serif" font-size="14" lengthAdjust="spacing" textLength="71.5723" x="2658.1875" y="723.5825">TetrominoZ</text><line style="stroke:#181818;stroke-width:0.5;" x1="2538.5" x2="2816.9473" y1="734.5" y2="734.5"/><line style="stroke:#181818;stroke-width:0.5;" x1="2538.5" x2="2816.9473" y1="742.5" y2="742.5"/><ellipse cx="2548.5" cy="756.0493" fill="#84BE84" rx="3" ry="3" style="stroke:#038048;stroke-width:1;"/><text fill="#000000" font-family="sans-serif" font-size="14" lengthAdjust="spacing" textLength="254.4473" x="2557.5" y="759.6318">TetrominoZ(anchorPoint : Coordinate&amp;&amp;)</text></g><!--class TetrominoL--><g id="elem_TetrominoL"><rect codeLine="102" fill="#F1F1F1" height="64.0986" id="TetrominoL" rx="2.5" ry="2.5" style="stroke:#181818;stroke-width:0.5;" width="279.6816" x="2852.5" y="702.5"/><ellipse cx="2952.6875" cy="718.5" fill="#ADD1B2" rx="11" ry="11" style="stroke:#181818;stroke-width:1;"/><path d="M2950.3438,718.3438 Q2950.3438,720.2188 2950.9219,721.2344 Q2951.5,722.2344 2952.6563,722.2344 Q2954,722.2344 2954.6563,720.2188 L2956.9219,720.6406 Q2955.8125,724.1719 2952.6406,724.1719 Q2950.2969,724.1719 2949.0781,722.6875 Q2947.8594,721.2031 2947.8594,718.3438 Q2947.8594,712.625 2952.5625,712.625 Q2954.1094,712.625 2955.1406,713.4375 Q2956.1875,714.25 2956.6875,715.8594 L2954.4219,716.4063 Q2954.1875,715.5313 2953.7031,715.0469 Q2953.2188,714.5469 2952.5938,714.5469 Q2950.3438,714.5469 2950.3438,718.3438 Z " fill="#000000"/><text fill="#000000" font-family="sans-serif" font-size="14" lengthAdjust="spacing" textLength="70.8066" x="2973.1875" y="723.5825">TetrominoL</text><line style="stroke:#181818;stroke-width:0.5;" x1="2853.5" x2="3131.1816" y1="734.5" y2="734.5"/><line style="stroke:#181818;stroke-width:0.5;" x1="2853.5" x2="3131.1816" y1="742.5" y2="742.5"/><ellipse cx="2863.5" cy="756.0493" fill="#84BE84" rx="3" ry="3" style="stroke:#038048;stroke-width:1;"/><text fill="#000000" font-family="sans-serif" font-size="14" lengthAdjust="spacing" textLength="253.6816" x="2872.5" y="759.6318">TetrominoL(anchorPoint : Coordinate&amp;&amp;)</text></g><!--class TetrominoJ--><g id="elem_TetrominoJ"><rect codeLine="106" fill="#F1F1F1" height="64.0986" id="TetrominoJ" rx="2.5" ry="2.5" style="stroke:#181818;stroke-width:0.5;" width="280.4473" x="3167.5" y="702.5"/><ellipse cx="3268.4634" cy="718.5" fill="#ADD1B2" rx="11" ry="11" style="stroke:#181818;stroke-width:1;"/><path d="M3266.1196,718.3438 Q3266.1196,720.2188 3266.6978,721.2344 Q3267.2759,722.2344 3268.4321,722.2344 Q3269.7759,722.2344 3270.4321,720.2188 L3272.6978,720.6406 Q3271.5884,724.1719 3268.4165,724.1719 Q3266.0728,724.1719 3264.854,722.6875 Q3263.6353,721.2031 3263.6353,718.3438 Q3263.6353,712.625 3268.3384,712.625 Q3269.8853,712.625 3270.9165,713.4375 Q3271.9634,714.25 3272.4634,715.8594 L3270.1978,716.4063 Q3269.9634,715.5313 3269.479,715.0469 Q3268.9946,714.5469 3268.3696,714.5469 Q3266.1196,714.5469 3266.1196,718.3438 Z " fill="#000000"/><text fill="#000000" font-family="sans-serif" font-size="14" lengthAdjust="spacing" textLength="70.0205" x="3288.9634" y="723.5825">TetrominoJ</text><line style="stroke:#181818;stroke-width:0.5;" x1="3168.5" x2="3446.9473" y1="734.5" y2="734.5"/><line style="stroke:#181818;stroke-width:0.5;" x1="3168.5" x2="3446.9473" y1="742.5" y2="742.5"/><ellipse cx="3178.5" cy="756.0493" fill="#84BE84" rx="3" ry="3" style="stroke:#038048;stroke-width:1;"/><text fill="#000000" font-family="sans-serif" font-size="14" lengthAdjust="spacing" textLength="254.4473" x="3187.5" y="759.6318">TetrominoZ(anchorPoint : Coordinate&amp;&amp;)</text></g><!--class Tetris--><g id="elem_Tetris"><rect codeLine="2" fill="#F1F1F1" height="112.3945" id="Tetris" rx="2.5" ry="2.5" style="stroke:#181818;stroke-width:0.5;" width="432.957" x="7" y="678.5"/><ellipse cx="201.7285" cy="694.5" fill="#ADD1B2" rx="11" ry="11" style="stroke:#181818;stroke-width:1;"/><path d="M199.3848,694.3438 Q199.3848,696.2188 199.9629,697.2344 Q200.541,698.2344 201.6973,698.2344 Q203.041,698.2344 203.6973,696.2188 L205.9629,696.6406 Q204.8535,700.1719 201.6816,700.1719 Q199.3379,700.1719 198.1191,698.6875 Q196.9004,697.2031 196.9004,694.3438 Q196.9004,688.625 201.6035,688.625 Q203.1504,688.625 204.1816,689.4375 Q205.2285,690.25 205.7285,691.8594 L203.4629,692.4063 Q203.2285,691.5313 202.7441,691.0469 Q202.2598,690.5469 201.6348,690.5469 Q199.3848,690.5469 199.3848,694.3438 Z " fill="#000000"/><text fill="#000000" font-family="sans-serif" font-size="14" lengthAdjust="spacing" textLength="35" x="222.2285" y="699.5825">Tetris</text><line style="stroke:#181818;stroke-width:0.5;" x1="8" x2="438.957" y1="710.5" y2="710.5"/><rect fill="none" height="6" style="stroke:#C82930;stroke-width:1;" width="6" x="15" y="721.0493"/><text fill="#000000" font-family="sans-serif" font-size="14" lengthAdjust="spacing" textLength="92.6201" x="27" y="727.6318">board_ : Board</text><rect fill="none" height="6" style="stroke:#C82930;stroke-width:1;" width="6" x="15" y="737.1479"/><text fill="#000000" font-family="sans-serif" font-size="14" lengthAdjust="spacing" textLength="291.04" x="27" y="743.7305">activeTetromino_ : std::unique_ptr&lt;Tetromino&gt;</text><line style="stroke:#181818;stroke-width:0.5;" x1="8" x2="438.957" y1="750.6973" y2="750.6973"/><ellipse cx="18" cy="764.2466" fill="#84BE84" rx="3" ry="3" style="stroke:#038048;stroke-width:1;"/><text fill="#000000" font-family="sans-serif" font-size="14" lengthAdjust="spacing" textLength="406.957" x="27" y="767.8291">tryRotateActive( rotateClockwise : bool, shouldOffset : bool) : void</text><ellipse cx="18" cy="780.3452" fill="#84BE84" rx="3" ry="3" style="stroke:#038048;stroke-width:1;"/><text fill="#000000" font-family="sans-serif" font-size="14" lengthAdjust="spacing" textLength="258.3027" x="27" y="783.9277">tryMoveActive( direction : Direction) : void</text></g><!--class Coordinate--><g id="elem_Coordinate"><rect codeLine="2" fill="#F1F1F1" height="208.9863" id="Coordinate" rx="2.5" ry="2.5" style="stroke:#181818;stroke-width:0.5;" width="551.2734" x="475" y="630"/><ellipse cx="712.1421" cy="646" fill="#ADD1B2" rx="11" ry="11" style="stroke:#181818;stroke-width:1;"/><path d="M709.7983,645.8438 Q709.7983,647.7188 710.3765,648.7344 Q710.9546,649.7344 712.1108,649.7344 Q713.4546,649.7344 714.1108,647.7188 L716.3765,648.1406 Q715.2671,651.6719 712.0952,651.6719 Q709.7515,651.6719 708.5327,650.1875 Q707.314,648.7031 707.314,645.8438 Q707.314,640.125 712.0171,640.125 Q713.564,640.125 714.5952,640.9375 Q715.6421,641.75 716.1421,643.3594 L713.8765,643.9063 Q713.6421,643.0313 713.1577,642.5469 Q712.6733,642.0469 712.0483,642.0469 Q709.7983,642.0469 709.7983,645.8438 Z " fill="#000000"/><text fill="#000000" font-family="sans-serif" font-size="14" lengthAdjust="spacing" textLength="68.4893" x="732.6421" y="651.0825">Coordinate</text><line style="stroke:#181818;stroke-width:0.5;" x1="476" x2="1025.2734" y1="662" y2="662"/><rect fill="none" height="6" style="stroke:#C82930;stroke-width:1;" width="6" x="483" y="672.5493"/><text fill="#000000" font-family="sans-serif" font-size="14" lengthAdjust="spacing" textLength="52.1377" x="495" y="679.1318">col_ : int</text><rect fill="none" height="6" style="stroke:#C82930;stroke-width:1;" width="6" x="483" y="688.6479"/><text fill="#000000" font-family="sans-serif" font-size="14" lengthAdjust="spacing" textLength="56.7998" x="495" y="695.2305">row_ : int</text><line style="stroke:#181818;stroke-width:0.5;" x1="476" x2="1025.2734" y1="702.1973" y2="702.1973"/><ellipse cx="486" cy="715.7466" fill="#84BE84" rx="3" ry="3" style="stroke:#038048;stroke-width:1;"/><text fill="#000000" font-family="sans-serif" font-size="14" lengthAdjust="spacing" textLength="83.248" x="495" y="719.3291">getRow() : int</text><ellipse cx="486" cy="731.8452" fill="#84BE84" rx="3" ry="3" style="stroke:#038048;stroke-width:1;"/><text fill="#000000" font-family="sans-serif" font-size="14" lengthAdjust="spacing" textLength="76.248" x="495" y="735.4277">getCol() : int</text><ellipse cx="486" cy="747.9438" fill="#84BE84" rx="3" ry="3" style="stroke:#038048;stroke-width:1;"/><text fill="#000000" font-family="sans-serif" font-size="14" lengthAdjust="spacing" textLength="146.2617" x="495" y="751.5264">setRow( row: int ) : void</text><ellipse cx="486" cy="764.0425" fill="#84BE84" rx="3" ry="3" style="stroke:#038048;stroke-width:1;"/><text fill="#000000" font-family="sans-serif" font-size="14" lengthAdjust="spacing" textLength="134.5996" x="495" y="767.625">setCol( col: int ) : void</text><ellipse cx="486" cy="780.1411" fill="#84BE84" rx="3" ry="3" style="stroke:#038048;stroke-width:1;"/><text fill="#000000" font-family="sans-serif" font-size="14" lengthAdjust="spacing" textLength="165.71" x="495" y="783.7236">moveRow( row : int ) : void</text><ellipse cx="486" cy="796.2397" fill="#84BE84" rx="3" ry="3" style="stroke:#038048;stroke-width:1;"/><text fill="#000000" font-family="sans-serif" font-size="14" lengthAdjust="spacing" textLength="150.1582" x="495" y="799.8223">moveCol( col: int ) : void</text><text fill="#000000" font-family="sans-serif" font-size="14" lengthAdjust="spacing" textLength="3.8896" x="495" y="815.9209">&#160;</text><ellipse cx="486" cy="828.437" fill="#84BE84" rx="3" ry="3" style="stroke:#038048;stroke-width:1;"/><text fill="#000000" font-family="sans-serif" font-size="14" lengthAdjust="spacing" textLength="525.2734" x="495" y="832.0195">rotateAround( rotationCenter : const Coordinate, rotateClockwise : bool ): Coordinate</text></g><!--class RotationIndex--><g id="elem_RotationIndex"><rect codeLine="2" fill="#F1F1F1" height="96.2959" id="RotationIndex" rx="2.5" ry="2.5" style="stroke:#181818;stroke-width:0.5;" width="118.3926" x="1061.5" y="686.5"/><ellipse cx="1076.5" cy="702.5" fill="#ADD1B2" rx="11" ry="11" style="stroke:#181818;stroke-width:1;"/><path d="M1074.1563,702.3438 Q1074.1563,704.2188 1074.7344,705.2344 Q1075.3125,706.2344 1076.4688,706.2344 Q1077.8125,706.2344 1078.4688,704.2188 L1080.7344,704.6406 Q1079.625,708.1719 1076.4531,708.1719 Q1074.1094,708.1719 1072.8906,706.6875 Q1071.6719,705.2031 1071.6719,702.3438 Q1071.6719,696.625 1076.375,696.625 Q1077.9219,696.625 1078.9531,697.4375 Q1080,698.25 1080.5,699.8594 L1078.2344,700.4063 Q1078,699.5313 1077.5156,699.0469 Q1077.0313,698.5469 1076.4063,698.5469 Q1074.1563,698.5469 1074.1563,702.3438 Z " fill="#000000"/><text fill="#000000" font-family="sans-serif" font-size="14" lengthAdjust="spacing" textLength="86.3926" x="1090.5" y="707.5825">RotationIndex</text><line style="stroke:#181818;stroke-width:0.5;" x1="1062.5" x2="1178.8926" y1="718.5" y2="718.5"/><rect fill="none" height="6" style="stroke:#C82930;stroke-width:1;" width="6" x="1069.5" y="729.0493"/><text fill="#000000" font-family="sans-serif" font-size="14" lengthAdjust="spacing" textLength="87.1719" x="1081.5" y="735.6318">index_ : int8_t</text><line style="stroke:#181818;stroke-width:0.5;" x1="1062.5" x2="1178.8926" y1="742.5986" y2="742.5986"/><ellipse cx="1072.5" cy="756.1479" fill="#84BE84" rx="3" ry="3" style="stroke:#038048;stroke-width:1;"/><text fill="#000000" font-family="sans-serif" font-size="14" lengthAdjust="spacing" textLength="81.71" x="1081.5" y="759.7305">operator() ++</text><ellipse cx="1072.5" cy="772.2466" fill="#84BE84" rx="3" ry="3" style="stroke:#038048;stroke-width:1;"/><text fill="#000000" font-family="sans-serif" font-size="14" lengthAdjust="spacing" textLength="81.71" x="1081.5" y="775.8291">operator() +=</text></g><!--reverse link AbstractTetromino to TetrominoI--><g id="link_AbstractTetromino_TetrominoI"><path d="M1893.8532,477.6255 C1778.9332,526.8355 1672.92,574.77 1561.5,630 C1516.23,652.44 1466.46,681.02 1430.43,702.47 " fill="none" id="AbstractTetromino-backto-TetrominoI" style="stroke:#181818;stroke-width:1;"/><polygon fill="none" points="1910.4,470.54,1891.4914,472.1099,1896.2151,483.1411,1910.4,470.54" style="stroke:#181818;stroke-width:1;"/></g><!--reverse link AbstractTetromino to TetrominoO--><g id="link_AbstractTetromino_TetrominoO"><path d="M1942.2134,580.3531 C1865.4334,633.8731 1810.44,672.21 1767.34,702.24 " fill="none" id="AbstractTetromino-backto-TetrominoO" style="stroke:#181818;stroke-width:1;"/><polygon fill="none" points="1956.98,570.06,1938.7824,575.4309,1945.6445,585.2753,1956.98,570.06" style="stroke:#181818;stroke-width:1;"/></g><!--reverse link AbstractTetromino to TetrominoT--><g id="link_AbstractTetromino_TetrominoT"><path d="M2148.0794,584.6941 C2109.7494,638.2141 2085.4,672.21 2063.89,702.24 " fill="none" id="AbstractTetromino-backto-TetrominoT" style="stroke:#181818;stroke-width:1;"/><polygon fill="none" points="2158.56,570.06,2143.2013,581.2005,2152.9574,588.1876,2158.56,570.06" style="stroke:#181818;stroke-width:1;"/></g><!--reverse link AbstractTetromino to TetrominoS--><g id="link_AbstractTetromino_TetrominoS"><path d="M2359.5,588.06 C2359.5,641.58 2359.5,672.21 2359.5,702.24 " fill="none" id="AbstractTetromino-backto-TetrominoS" style="stroke:#181818;stroke-width:1;"/><polygon fill="none" points="2359.5,570.06,2353.5,588.06,2365.5,588.06,2359.5,570.06" style="stroke:#181818;stroke-width:1;"/></g><!--reverse link AbstractTetromino to TetrominoZ--><g id="link_AbstractTetromino_TetrominoZ"><path d="M2570.9206,584.6941 C2609.2506,638.2141 2633.6,672.21 2655.11,702.24 " fill="none" id="AbstractTetromino-backto-TetrominoZ" style="stroke:#181818;stroke-width:1;"/><polygon fill="none" points="2560.44,570.06,2566.0426,588.1876,2575.7987,581.2005,2560.44,570.06" style="stroke:#181818;stroke-width:1;"/></g><!--reverse link AbstractTetromino to TetrominoL--><g id="link_AbstractTetromino_TetrominoL"><path d="M2774.2262,580.3966 C2850.5262,633.9166 2905.11,672.21 2947.94,702.24 " fill="none" id="AbstractTetromino-backto-TetrominoL" style="stroke:#181818;stroke-width:1;"/><polygon fill="none" points="2759.49,570.06,2770.7807,585.3086,2777.6717,575.4845,2759.49,570.06" style="stroke:#181818;stroke-width:1;"/></g><!--reverse link AbstractTetromino to TetrominoJ--><g id="link_AbstractTetromino_TetrominoJ"><path d="M2825.2175,473.7234 C2938.6375,522.8434 3042.35,571.67 3150.5,630 C3190.73,651.7 3233.91,680.62 3264.79,702.37 " fill="none" id="AbstractTetromino-backto-TetrominoJ" style="stroke:#181818;stroke-width:1;"/><polygon fill="none" points="2808.7,466.57,2822.8331,479.2293,2827.602,468.2176,2808.7,466.57" style="stroke:#181818;stroke-width:1;"/></g><!--SRC=[TP1DYy9W38Jl_HMf5rsbibxtPcNPgwpU9RuD9PWcyduSbk9_jqLNgjGSvvaPoEIiJb95iAVehM4r2ikpeCRKIFwPPVdGm6zOQUYhSRGnynKhHXhdlnOnikaklbgc44wiP_JOW1CC0LhenFvATAVQMz9gOs8UriAEIadKyKkVlFb_iA5lhLcfpVhOCzqA_f67zjvPSEWLrle0Nt0qapjOFC3iuvyCszR743sw-5WGvaKn-BlBf41Xr5d0P3LvcY2x0W00]--></g></svg>