<svg xmlns="http://www.w3.org/2000/svg" xmlns:xlink="http://www.w3.org/1999/xlink" contentStyleType="text/css" height="545px" preserveAspectRatio="none" style="width:1503px;height:545px;background:#FFFFFF;" version="1.1" viewBox="0 0 1503 545" width="1503px" zoomAndPan="magnify"><defs/><g><!--class Coordinate--><g id="elem_Coordinate"><rect codeLine="2" fill="#F1F1F1" height="80.5938" id="Coordinate" rx="2.5" ry="2.5" style="stroke:#181818;stroke-width:0.5;" width="108.9932" x="7" y="417.19"/><ellipse cx="22" cy="433.19" fill="#ADD1B2" rx="11" ry="11" style="stroke:#181818;stroke-width:1.0;"/><path d="M24.9688,438.8306 Q24.3906,439.1275 23.75,439.2681 Q23.1094,439.4244 22.4063,439.4244 Q19.9063,439.4244 18.5781,437.7837 Q17.2656,436.1275 17.2656,433.0025 Q17.2656,429.8775 18.5781,428.2212 Q19.9063,426.565 22.4063,426.565 Q23.1094,426.565 23.75,426.7212 Q24.4063,426.8775 24.9688,427.1744 L24.9688,429.8931 Q24.3438,429.315 23.75,429.0494 Q23.1563,428.7681 22.5313,428.7681 Q21.1875,428.7681 20.5,429.8462 Q19.8125,430.9087 19.8125,433.0025 Q19.8125,435.0962 20.5,436.1744 Q21.1875,437.2369 22.5313,437.2369 Q23.1563,437.2369 23.75,436.9712 Q24.3438,436.69 24.9688,436.1119 L24.9688,438.8306 Z " fill="#000000"/><text fill="#000000" font-family="sans-serif" font-size="14" lengthAdjust="spacing" textLength="76.9932" x="36" y="438.0367">Coordinate</text><line style="stroke:#181818;stroke-width:0.5;" x1="8" x2="114.9932" y1="449.19" y2="449.19"/><ellipse cx="18" cy="462.8384" fill="none" rx="3" ry="3" style="stroke:#038048;stroke-width:1.0;"/><text fill="#000000" font-family="sans-serif" font-size="14" lengthAdjust="spacing" textLength="35.7041" x="27" y="466.1851">x: int</text><ellipse cx="18" cy="479.1353" fill="none" rx="3" ry="3" style="stroke:#038048;stroke-width:1.0;"/><text fill="#000000" font-family="sans-serif" font-size="14" lengthAdjust="spacing" textLength="35.7041" x="27" y="482.482">y: int</text><line style="stroke:#181818;stroke-width:0.5;" x1="8" x2="114.9932" y1="489.7837" y2="489.7837"/></g><!--class TetraminoShape--><g id="elem_TetraminoShape"><rect codeLine="7" fill="#F1F1F1" height="162.0781" id="TetraminoShape" rx="2.5" ry="2.5" style="stroke:#181818;stroke-width:0.5;" width="147.7939" x="150.6" y="376.45"/><ellipse cx="165.6" cy="392.45" fill="#EB937F" rx="11" ry="11" style="stroke:#181818;stroke-width:1.0;"/><path d="M169.7094,398.45 L161.9906,398.45 L161.9906,386.0594 L169.7094,386.0594 L169.7094,388.2156 L164.4438,388.2156 L164.4438,390.8875 L169.2094,390.8875 L169.2094,393.0437 L164.4438,393.0437 L164.4438,396.2937 L169.7094,396.2937 L169.7094,398.45 Z " fill="#000000"/><text fill="#000000" font-family="sans-serif" font-size="14" lengthAdjust="spacing" textLength="115.7939" x="179.6" y="397.2967">TetraminoShape</text><line style="stroke:#181818;stroke-width:0.5;" x1="151.6" x2="297.3939" y1="408.45" y2="408.45"/><text fill="#000000" font-family="sans-serif" font-size="14" lengthAdjust="spacing" textLength="4.1289" x="156.6" y="425.4451">I</text><text fill="#000000" font-family="sans-serif" font-size="14" lengthAdjust="spacing" textLength="11.0195" x="156.6" y="441.742">O</text><text fill="#000000" font-family="sans-serif" font-size="14" lengthAdjust="spacing" textLength="8.5518" x="156.6" y="458.0389">T</text><text fill="#000000" font-family="sans-serif" font-size="14" lengthAdjust="spacing" textLength="8.8867" x="156.6" y="474.3357">S</text><text fill="#000000" font-family="sans-serif" font-size="14" lengthAdjust="spacing" textLength="9.5908" x="156.6" y="490.6326">Z</text><text fill="#000000" font-family="sans-serif" font-size="14" lengthAdjust="spacing" textLength="7.7998" x="156.6" y="506.9295">L</text><text fill="#000000" font-family="sans-serif" font-size="14" lengthAdjust="spacing" textLength="4.1289" x="156.6" y="523.2264">J</text><line style="stroke:#181818;stroke-width:0.5;" x1="151.6" x2="297.3939" y1="530.5281" y2="530.5281"/></g><!--class Direction--><g id="elem_Direction"><rect codeLine="17" fill="#F1F1F1" height="96.8906" id="Direction" rx="2.5" ry="2.5" style="stroke:#181818;stroke-width:0.5;" width="95.5537" x="333.72" y="409.05"/><ellipse cx="348.72" cy="425.05" fill="#EB937F" rx="11" ry="11" style="stroke:#181818;stroke-width:1.0;"/><path d="M352.8294,431.05 L345.1106,431.05 L345.1106,418.6594 L352.8294,418.6594 L352.8294,420.8156 L347.5638,420.8156 L347.5638,423.4875 L352.3294,423.4875 L352.3294,425.6437 L347.5638,425.6437 L347.5638,428.8937 L352.8294,428.8937 L352.8294,431.05 Z " fill="#000000"/><text fill="#000000" font-family="sans-serif" font-size="14" lengthAdjust="spacing" textLength="63.5537" x="362.72" y="429.8967">Direction</text><line style="stroke:#181818;stroke-width:0.5;" x1="334.72" x2="428.2737" y1="441.05" y2="441.05"/><text fill="#000000" font-family="sans-serif" font-size="14" lengthAdjust="spacing" textLength="22.9209" x="339.72" y="458.0451">left</text><text fill="#000000" font-family="sans-serif" font-size="14" lengthAdjust="spacing" textLength="32.8945" x="339.72" y="474.342">right</text><text fill="#000000" font-family="sans-serif" font-size="14" lengthAdjust="spacing" textLength="37.7754" x="339.72" y="490.6389">down</text><line style="stroke:#181818;stroke-width:0.5;" x1="334.72" x2="428.2737" y1="497.9406" y2="497.9406"/></g><!--class Tetramino--><g id="elem_Tetramino"><rect codeLine="23" fill="#F1F1F1" height="292.4531" id="Tetramino" rx="2.5" ry="2.5" style="stroke:#181818;stroke-width:0.5;" width="387.6621" x="554.67" y="7"/><ellipse cx="708.2735" cy="23" fill="#A9DCDF" rx="11" ry="11" style="stroke:#181818;stroke-width:1.0;"/><path d="M708.3829,18.3438 L707.2266,23.4219 L709.5548,23.4219 L708.3829,18.3438 Z M706.8985,16.1094 L709.8829,16.1094 L713.2423,28.5 L710.7891,28.5 L710.0235,25.4375 L706.7423,25.4375 L705.9923,28.5 L703.5548,28.5 L706.8985,16.1094 Z " fill="#000000"/><text fill="#000000" font-family="sans-serif" font-size="14" font-style="italic" lengthAdjust="spacing" textLength="71.9551" x="728.7735" y="27.8467">Tetramino</text><line style="stroke:#181818;stroke-width:0.5;" x1="555.67" x2="941.3321" y1="39" y2="39"/><rect fill="none" height="6" style="stroke:#C82930;stroke-width:1.0;" width="6" x="562.67" y="49.6484"/><text fill="#000000" font-family="sans-serif" font-size="14" lengthAdjust="spacing" textLength="70.458" x="574.67" y="55.9951">width : int</text><rect fill="none" height="6" style="stroke:#C82930;stroke-width:1.0;" width="6" x="562.67" y="65.9453"/><text fill="#000000" font-family="sans-serif" font-size="14" lengthAdjust="spacing" textLength="76.4941" x="574.67" y="72.292">height : int</text><rect fill="none" height="6" style="stroke:#C82930;stroke-width:1.0;" width="6" x="562.67" y="82.2422"/><text fill="#000000" font-family="sans-serif" font-size="14" lengthAdjust="spacing" textLength="193.1016" x="574.67" y="88.5889">body : vector&lt;Coordinate&gt;</text><text fill="#000000" font-family="sans-serif" font-size="14" lengthAdjust="spacing" textLength="4.4502" x="574.67" y="104.8857">&#160;</text><rect fill="none" height="6" style="stroke:#C82930;stroke-width:1.0;" width="6" x="562.67" y="114.8359"/><text fill="#000000" font-family="sans-serif" font-size="14" lengthAdjust="spacing" textLength="162.7773" x="574.67" y="121.1826">centers : Coordinate[4]</text><line style="stroke:#181818;stroke-width:0.5;" x1="555.67" x2="941.3321" y1="128.4844" y2="128.4844"/><polygon fill="#FFFF44" points="565.67,137.1328,569.67,141.1328,565.67,145.1328,561.67,141.1328" style="stroke:#B38D22;stroke-width:1.0;"/><text fill="#000000" font-family="sans-serif" font-size="14" lengthAdjust="spacing" textLength="361.6621" x="574.67" y="145.4795">Tetramino(initializer_list&lt;Coordinate&gt; coordinates)</text><text fill="#000000" font-family="sans-serif" font-size="14" lengthAdjust="spacing" textLength="4.4502" x="574.67" y="161.7764">&#160;</text><ellipse cx="565.67" cy="174.7266" fill="#84BE84" rx="3" ry="3" style="stroke:#038048;stroke-width:1.0;"/><text fill="#000000" font-family="sans-serif" font-size="14" lengthAdjust="spacing" text-decoration="underline" textLength="293.4736" x="574.67" y="178.0732">makeTetramino(shape : TetraminoShape)</text><text fill="#000000" font-family="sans-serif" font-size="14" lengthAdjust="spacing" textLength="4.4502" x="574.67" y="194.3701">&#160;</text><ellipse cx="565.67" cy="207.3203" fill="#84BE84" rx="3" ry="3" style="stroke:#038048;stroke-width:1.0;"/><text fill="#000000" font-family="sans-serif" font-size="14" lengthAdjust="spacing" textLength="97.8906" x="574.67" y="210.667">getWidt() : int</text><ellipse cx="565.67" cy="223.6172" fill="#84BE84" rx="3" ry="3" style="stroke:#038048;stroke-width:1.0;"/><text fill="#000000" font-family="sans-serif" font-size="14" lengthAdjust="spacing" textLength="103.1885" x="574.67" y="226.9639">getHeigt() : int</text><ellipse cx="565.67" cy="239.9141" fill="#84BE84" rx="3" ry="3" style="stroke:#038048;stroke-width:1.0;"/><text fill="#000000" font-family="sans-serif" font-size="14" lengthAdjust="spacing" textLength="101.124" x="574.67" y="243.2607">getBody() : int</text><text fill="#000000" font-family="sans-serif" font-size="14" lengthAdjust="spacing" textLength="4.4502" x="574.67" y="259.5576">&#160;</text><ellipse cx="565.67" cy="272.5078" fill="#84BE84" rx="3" ry="3" style="stroke:#038048;stroke-width:1.0;"/><text fill="#000000" font-family="sans-serif" font-size="14" lengthAdjust="spacing" textLength="206.8281" x="574.67" y="275.8545">tryMove(direction : Direction)</text><ellipse cx="565.67" cy="288.8047" fill="#84BE84" rx="3" ry="3" style="stroke:#038048;stroke-width:1.0;"/><text fill="#000000" font-family="sans-serif" font-size="14" lengthAdjust="spacing" textLength="76.918" x="574.67" y="292.1514">tryRotate()</text></g><!--class TetraminoI--><g id="elem_TetraminoI"><rect codeLine="45" fill="#F1F1F1" height="64.2969" id="TetraminoI" rx="2.5" ry="2.5" style="stroke:#181818;stroke-width:0.5;" width="113.0078" x="463.99" y="425.34"/><ellipse cx="481.2057" cy="441.34" fill="#ADD1B2" rx="11" ry="11" style="stroke:#181818;stroke-width:1.0;"/><path d="M484.1745,446.9806 Q483.5963,447.2775 482.9557,447.4181 Q482.3151,447.5744 481.612,447.5744 Q479.112,447.5744 477.7838,445.9338 Q476.4713,444.2775 476.4713,441.1525 Q476.4713,438.0275 477.7838,436.3713 Q479.112,434.715 481.612,434.715 Q482.3151,434.715 482.9557,434.8713 Q483.612,435.0275 484.1745,435.3244 L484.1745,438.0431 Q483.5495,437.465 482.9557,437.1994 Q482.362,436.9181 481.737,436.9181 Q480.3932,436.9181 479.7057,437.9963 Q479.0182,439.0588 479.0182,441.1525 Q479.0182,443.2463 479.7057,444.3244 Q480.3932,445.3869 481.737,445.3869 Q482.362,445.3869 482.9557,445.1213 Q483.5495,444.84 484.1745,444.2619 L484.1745,446.9806 Z " fill="#000000"/><text fill="#000000" font-family="sans-serif" font-size="14" lengthAdjust="spacing" textLength="76.084" x="495.6981" y="446.1867">TetraminoI</text><line style="stroke:#181818;stroke-width:0.5;" x1="464.99" x2="575.9978" y1="457.34" y2="457.34"/><line style="stroke:#181818;stroke-width:0.5;" x1="464.99" x2="575.9978" y1="465.34" y2="465.34"/><ellipse cx="474.99" cy="478.9884" fill="#84BE84" rx="3" ry="3" style="stroke:#038048;stroke-width:1.0;"/><text fill="#000000" font-family="sans-serif" font-size="14" lengthAdjust="spacing" textLength="87.0078" x="483.99" y="482.3351">TetraminoI()</text></g><!--class TetraminoO--><g id="elem_TetraminoO"><rect codeLine="49" fill="#F1F1F1" height="64.2969" id="TetraminoO" rx="2.5" ry="2.5" style="stroke:#181818;stroke-width:0.5;" width="119.8984" x="611.55" y="425.34"/><ellipse cx="628.7657" cy="441.34" fill="#ADD1B2" rx="11" ry="11" style="stroke:#181818;stroke-width:1.0;"/><path d="M631.7345,446.9806 Q631.1563,447.2775 630.5157,447.4181 Q629.8751,447.5744 629.172,447.5744 Q626.672,447.5744 625.3438,445.9338 Q624.0313,444.2775 624.0313,441.1525 Q624.0313,438.0275 625.3438,436.3713 Q626.672,434.715 629.172,434.715 Q629.8751,434.715 630.5157,434.8713 Q631.172,435.0275 631.7345,435.3244 L631.7345,438.0431 Q631.1095,437.465 630.5157,437.1994 Q629.922,436.9181 629.297,436.9181 Q627.9532,436.9181 627.2657,437.9963 Q626.5782,439.0588 626.5782,441.1525 Q626.5782,443.2463 627.2657,444.3244 Q627.9532,445.3869 629.297,445.3869 Q629.922,445.3869 630.5157,445.1213 Q631.1095,444.84 631.7345,444.2619 L631.7345,446.9806 Z " fill="#000000"/><text fill="#000000" font-family="sans-serif" font-size="14" lengthAdjust="spacing" textLength="82.9746" x="643.2581" y="446.1867">TetraminoO</text><line style="stroke:#181818;stroke-width:0.5;" x1="612.55" x2="730.4484" y1="457.34" y2="457.34"/><line style="stroke:#181818;stroke-width:0.5;" x1="612.55" x2="730.4484" y1="465.34" y2="465.34"/><ellipse cx="622.55" cy="478.9884" fill="#84BE84" rx="3" ry="3" style="stroke:#038048;stroke-width:1.0;"/><text fill="#000000" font-family="sans-serif" font-size="14" lengthAdjust="spacing" textLength="93.8984" x="631.55" y="482.3351">TetraminoO()</text></g><!--class TetraminoT--><g id="elem_TetraminoT"><rect codeLine="53" fill="#F1F1F1" height="64.2969" id="TetraminoT" rx="2.5" ry="2.5" style="stroke:#181818;stroke-width:0.5;" width="117.4307" x="766.78" y="425.34"/><ellipse cx="783.9957" cy="441.34" fill="#ADD1B2" rx="11" ry="11" style="stroke:#181818;stroke-width:1.0;"/><path d="M786.9645,446.9806 Q786.3863,447.2775 785.7457,447.4181 Q785.1051,447.5744 784.402,447.5744 Q781.902,447.5744 780.5738,445.9338 Q779.2613,444.2775 779.2613,441.1525 Q779.2613,438.0275 780.5738,436.3713 Q781.902,434.715 784.402,434.715 Q785.1051,434.715 785.7457,434.8713 Q786.402,435.0275 786.9645,435.3244 L786.9645,438.0431 Q786.3395,437.465 785.7457,437.1994 Q785.152,436.9181 784.527,436.9181 Q783.1832,436.9181 782.4957,437.9963 Q781.8082,439.0588 781.8082,441.1525 Q781.8082,443.2463 782.4957,444.3244 Q783.1832,445.3869 784.527,445.3869 Q785.152,445.3869 785.7457,445.1213 Q786.3395,444.84 786.9645,444.2619 L786.9645,446.9806 Z " fill="#000000"/><text fill="#000000" font-family="sans-serif" font-size="14" lengthAdjust="spacing" textLength="80.5068" x="798.4881" y="446.1867">TetraminoT</text><line style="stroke:#181818;stroke-width:0.5;" x1="767.78" x2="883.2107" y1="457.34" y2="457.34"/><line style="stroke:#181818;stroke-width:0.5;" x1="767.78" x2="883.2107" y1="465.34" y2="465.34"/><ellipse cx="777.78" cy="478.9884" fill="#84BE84" rx="3" ry="3" style="stroke:#038048;stroke-width:1.0;"/><text fill="#000000" font-family="sans-serif" font-size="14" lengthAdjust="spacing" textLength="91.4307" x="786.78" y="482.3351">TetraminoT()</text></g><!--class TetraminoS--><g id="elem_TetraminoS"><rect codeLine="57" fill="#F1F1F1" height="64.2969" id="TetraminoS" rx="2.5" ry="2.5" style="stroke:#181818;stroke-width:0.5;" width="117.7656" x="919.61" y="425.34"/><ellipse cx="936.8257" cy="441.34" fill="#ADD1B2" rx="11" ry="11" style="stroke:#181818;stroke-width:1.0;"/><path d="M939.7945,446.9806 Q939.2163,447.2775 938.5757,447.4181 Q937.9351,447.5744 937.232,447.5744 Q934.732,447.5744 933.4038,445.9338 Q932.0913,444.2775 932.0913,441.1525 Q932.0913,438.0275 933.4038,436.3713 Q934.732,434.715 937.232,434.715 Q937.9351,434.715 938.5757,434.8713 Q939.232,435.0275 939.7945,435.3244 L939.7945,438.0431 Q939.1695,437.465 938.5757,437.1994 Q937.982,436.9181 937.357,436.9181 Q936.0132,436.9181 935.3257,437.9963 Q934.6382,439.0588 934.6382,441.1525 Q934.6382,443.2463 935.3257,444.3244 Q936.0132,445.3869 937.357,445.3869 Q937.982,445.3869 938.5757,445.1213 Q939.1695,444.84 939.7945,444.2619 L939.7945,446.9806 Z " fill="#000000"/><text fill="#000000" font-family="sans-serif" font-size="14" lengthAdjust="spacing" textLength="80.8418" x="951.3181" y="446.1867">TetraminoS</text><line style="stroke:#181818;stroke-width:0.5;" x1="920.61" x2="1036.3756" y1="457.34" y2="457.34"/><line style="stroke:#181818;stroke-width:0.5;" x1="920.61" x2="1036.3756" y1="465.34" y2="465.34"/><ellipse cx="930.61" cy="478.9884" fill="#84BE84" rx="3" ry="3" style="stroke:#038048;stroke-width:1.0;"/><text fill="#000000" font-family="sans-serif" font-size="14" lengthAdjust="spacing" textLength="91.7656" x="939.61" y="482.3351">TetraminoS()</text></g><!--class TetraminoZ--><g id="elem_TetraminoZ"><rect codeLine="61" fill="#F1F1F1" height="64.2969" id="TetraminoZ" rx="2.5" ry="2.5" style="stroke:#181818;stroke-width:0.5;" width="118.4697" x="1072.26" y="425.34"/><ellipse cx="1089.4757" cy="441.34" fill="#ADD1B2" rx="11" ry="11" style="stroke:#181818;stroke-width:1.0;"/><path d="M1092.4445,446.9806 Q1091.8663,447.2775 1091.2257,447.4181 Q1090.5851,447.5744 1089.882,447.5744 Q1087.382,447.5744 1086.0538,445.9338 Q1084.7413,444.2775 1084.7413,441.1525 Q1084.7413,438.0275 1086.0538,436.3713 Q1087.382,434.715 1089.882,434.715 Q1090.5851,434.715 1091.2257,434.8713 Q1091.882,435.0275 1092.4445,435.3244 L1092.4445,438.0431 Q1091.8195,437.465 1091.2257,437.1994 Q1090.632,436.9181 1090.007,436.9181 Q1088.6632,436.9181 1087.9757,437.9963 Q1087.2882,439.0588 1087.2882,441.1525 Q1087.2882,443.2463 1087.9757,444.3244 Q1088.6632,445.3869 1090.007,445.3869 Q1090.632,445.3869 1091.2257,445.1213 Q1091.8195,444.84 1092.4445,444.2619 L1092.4445,446.9806 Z " fill="#000000"/><text fill="#000000" font-family="sans-serif" font-size="14" lengthAdjust="spacing" textLength="81.5459" x="1103.9681" y="446.1867">TetraminoZ</text><line style="stroke:#181818;stroke-width:0.5;" x1="1073.26" x2="1189.7297" y1="457.34" y2="457.34"/><line style="stroke:#181818;stroke-width:0.5;" x1="1073.26" x2="1189.7297" y1="465.34" y2="465.34"/><ellipse cx="1083.26" cy="478.9884" fill="#84BE84" rx="3" ry="3" style="stroke:#038048;stroke-width:1.0;"/><text fill="#000000" font-family="sans-serif" font-size="14" lengthAdjust="spacing" textLength="92.4697" x="1092.26" y="482.3351">TetraminoZ()</text></g><!--class TetraminoL--><g id="elem_TetraminoL"><rect codeLine="65" fill="#F1F1F1" height="64.2969" id="TetraminoL" rx="2.5" ry="2.5" style="stroke:#181818;stroke-width:0.5;" width="116.6787" x="1226.16" y="425.34"/><ellipse cx="1243.3757" cy="441.34" fill="#ADD1B2" rx="11" ry="11" style="stroke:#181818;stroke-width:1.0;"/><path d="M1246.3445,446.9806 Q1245.7663,447.2775 1245.1257,447.4181 Q1244.4851,447.5744 1243.782,447.5744 Q1241.282,447.5744 1239.9538,445.9338 Q1238.6413,444.2775 1238.6413,441.1525 Q1238.6413,438.0275 1239.9538,436.3713 Q1241.282,434.715 1243.782,434.715 Q1244.4851,434.715 1245.1257,434.8713 Q1245.782,435.0275 1246.3445,435.3244 L1246.3445,438.0431 Q1245.7195,437.465 1245.1257,437.1994 Q1244.532,436.9181 1243.907,436.9181 Q1242.5632,436.9181 1241.8757,437.9963 Q1241.1882,439.0588 1241.1882,441.1525 Q1241.1882,443.2463 1241.8757,444.3244 Q1242.5632,445.3869 1243.907,445.3869 Q1244.532,445.3869 1245.1257,445.1213 Q1245.7195,444.84 1246.3445,444.2619 L1246.3445,446.9806 Z " fill="#000000"/><text fill="#000000" font-family="sans-serif" font-size="14" lengthAdjust="spacing" textLength="79.7549" x="1257.8681" y="446.1867">TetraminoL</text><line style="stroke:#181818;stroke-width:0.5;" x1="1227.16" x2="1341.8387" y1="457.34" y2="457.34"/><line style="stroke:#181818;stroke-width:0.5;" x1="1227.16" x2="1341.8387" y1="465.34" y2="465.34"/><ellipse cx="1237.16" cy="478.9884" fill="#84BE84" rx="3" ry="3" style="stroke:#038048;stroke-width:1.0;"/><text fill="#000000" font-family="sans-serif" font-size="14" lengthAdjust="spacing" textLength="90.6787" x="1246.16" y="482.3351">TetraminoL()</text></g><!--class TetraminoJ--><g id="elem_TetraminoJ"><rect codeLine="69" fill="#F1F1F1" height="64.2969" id="TetraminoJ" rx="2.5" ry="2.5" style="stroke:#181818;stroke-width:0.5;" width="118.4697" x="1378.26" y="425.34"/><ellipse cx="1397.9336" cy="441.34" fill="#ADD1B2" rx="11" ry="11" style="stroke:#181818;stroke-width:1.0;"/><path d="M1400.9023,446.9806 Q1400.3242,447.2775 1399.6836,447.4181 Q1399.043,447.5744 1398.3398,447.5744 Q1395.8398,447.5744 1394.5117,445.9338 Q1393.1992,444.2775 1393.1992,441.1525 Q1393.1992,438.0275 1394.5117,436.3713 Q1395.8398,434.715 1398.3398,434.715 Q1399.043,434.715 1399.6836,434.8713 Q1400.3398,435.0275 1400.9023,435.3244 L1400.9023,438.0431 Q1400.2773,437.465 1399.6836,437.1994 Q1399.0898,436.9181 1398.4648,436.9181 Q1397.1211,436.9181 1396.4336,437.9963 Q1395.7461,439.0588 1395.7461,441.1525 Q1395.7461,443.2463 1396.4336,444.3244 Q1397.1211,445.3869 1398.4648,445.3869 Q1399.0898,445.3869 1399.6836,445.1213 Q1400.2773,444.84 1400.9023,444.2619 L1400.9023,446.9806 Z " fill="#000000"/><text fill="#000000" font-family="sans-serif" font-size="14" lengthAdjust="spacing" textLength="76.084" x="1412.9722" y="446.1867">TetraminoJ</text><line style="stroke:#181818;stroke-width:0.5;" x1="1379.26" x2="1495.7297" y1="457.34" y2="457.34"/><line style="stroke:#181818;stroke-width:0.5;" x1="1379.26" x2="1495.7297" y1="465.34" y2="465.34"/><ellipse cx="1389.26" cy="478.9884" fill="#84BE84" rx="3" ry="3" style="stroke:#038048;stroke-width:1.0;"/><text fill="#000000" font-family="sans-serif" font-size="14" lengthAdjust="spacing" textLength="92.4697" x="1398.26" y="482.3351">TetraminoZ()</text></g><!--reverse link Tetramino to TetraminoI--><g id="link_Tetramino_TetraminoI"><path d="M627.9996,313.9696 C592.3996,361.1596 567.09,394.73 544.27,424.98 " fill="none" id="Tetramino-backto-TetraminoI" style="stroke:#181818;stroke-width:1.0;"/><polygon fill="none" points="638.84,299.6,623.2097,310.3561,632.7895,317.5831,638.84,299.6" style="stroke:#181818;stroke-width:1.0;"/></g><!--reverse link Tetramino to TetraminoO--><g id="link_Tetramino_TetraminoO"><path d="M707.017,317.043 C694.997,364.233 687.23,394.73 679.52,424.98 " fill="none" id="Tetramino-backto-TetraminoO" style="stroke:#181818;stroke-width:1.0;"/><polygon fill="none" points="711.46,299.6,701.2026,315.562,712.8313,318.524,711.46,299.6" style="stroke:#181818;stroke-width:1.0;"/></g><!--reverse link Tetramino to TetraminoT--><g id="link_Tetramino_TetraminoT"><path d="M789.973,317.043 C801.993,364.233 809.76,394.73 817.47,424.98 " fill="none" id="Tetramino-backto-TetraminoT" style="stroke:#181818;stroke-width:1.0;"/><polygon fill="none" points="785.53,299.6,784.1587,318.524,795.7874,315.562,785.53,299.6" style="stroke:#181818;stroke-width:1.0;"/></g><!--reverse link Tetramino to TetraminoS--><g id="link_Tetramino_TetraminoS"><path d="M870.0183,313.9257 C905.9183,361.1157 931.5,394.73 954.52,424.98 " fill="none" id="Tetramino-backto-TetraminoS" style="stroke:#181818;stroke-width:1.0;"/><polygon fill="none" points="859.12,299.6,865.2431,317.5585,874.7936,310.2929,859.12,299.6" style="stroke:#181818;stroke-width:1.0;"/></g><!--reverse link Tetramino to TetraminoZ--><g id="link_Tetramino_TetraminoZ"><path d="M957.1177,298.0261 C995.1477,326.2861 1019.59,346.05 1054.5,376.45 C1071.8,391.52 1089.66,409.87 1103.81,425.2 " fill="none" id="Tetramino-backto-TetraminoZ" style="stroke:#181818;stroke-width:1.0;"/><polygon fill="none" points="942.67,287.29,953.539,302.842,960.6964,293.2102,942.67,287.29" style="stroke:#181818;stroke-width:1.0;"/></g><!--reverse link Tetramino to TetraminoL--><g id="link_Tetramino_TetraminoL"><path d="M959.1616,236.5885 C1044.6916,274.2785 1127.46,317.29 1208.5,376.45 C1227.38,390.24 1245.52,409.06 1259.35,424.99 " fill="none" id="Tetramino-backto-TetraminoL" style="stroke:#181818;stroke-width:1.0;"/><polygon fill="none" points="942.69,229.33,956.7421,242.079,961.5811,231.0979,942.69,229.33" style="stroke:#181818;stroke-width:1.0;"/></g><!--reverse link Tetramino to TetraminoJ--><g id="link_Tetramino_TetraminoJ"><path d="M959.9534,205.0788 C1085.7834,240.5888 1232.21,293.04 1360.5,376.45 C1380.54,389.49 1399.23,408.67 1413.18,424.99 " fill="none" id="Tetramino-backto-TetraminoJ" style="stroke:#181818;stroke-width:1.0;"/><polygon fill="none" points="942.63,200.19,958.3238,210.8532,961.583,199.3043,942.63,200.19" style="stroke:#181818;stroke-width:1.0;"/></g><!--link Tetramino to Coordinate--><g id="link_Tetramino_Coordinate"><path codeLine="73" d="M554.22,198.1 C427.14,232.9 261.58,290.23 133.5,376.45 C117.37,387.31 106.3338,397.9597 94.3138,412.2397 " fill="none" id="Tetramino-to-Coordinate" style="stroke:#181818;stroke-width:1.0;stroke-dasharray:7.0,7.0;"/><polygon fill="#181818" points="90.45,416.83,99.3059,412.5204,93.6699,413.0047,93.1855,407.3687,90.45,416.83" style="stroke:#181818;stroke-width:1.0;"/><text fill="#000000" font-family="sans-serif" font-size="13" lengthAdjust="spacing" textLength="29.7832" x="210.3" y="342.5169">uses</text></g><!--link Tetramino to TetraminoShape--><g id="link_Tetramino_TetraminoShape"><path codeLine="74" d="M554.4,241.65 C477.91,279.25 390.77,326.12 316.5,376.45 C310.63,380.43 309.4806,381.088 303.6406,385.568 " fill="none" id="Tetramino-to-TetraminoShape" style="stroke:#181818;stroke-width:1.0;stroke-dasharray:7.0,7.0;"/><polygon fill="#181818" points="298.88,389.22,308.4555,386.9158,302.8472,386.1767,303.5862,380.5683,298.88,389.22" style="stroke:#181818;stroke-width:1.0;"/><text fill="#000000" font-family="sans-serif" font-size="13" lengthAdjust="spacing" textLength="29.7832" x="384.5" y="342.5169">uses</text></g><!--link Tetramino to Direction--><g id="link_Tetramino_Direction"><path codeLine="75" d="M554.52,285.59 C517.27,313.92 479.59,344.9 446.5,376.45 C436.26,386.21 429.9613,392.936 420.8813,403.976 " fill="none" id="Tetramino-to-Direction" style="stroke:#181818;stroke-width:1.0;stroke-dasharray:7.0,7.0;"/><polygon fill="#181818" points="417.07,408.61,425.8763,404.1999,420.2461,404.7483,419.6976,399.1181,417.07,408.61" style="stroke:#181818;stroke-width:1.0;"/><text fill="#000000" font-family="sans-serif" font-size="13" lengthAdjust="spacing" textLength="29.7832" x="493.12" y="342.5169">uses</text></g><!--SRC=[bLHTQuCm57tlhxYmXogbU-gJZ0wsFgobGvZ2e6ECLAyrp2OZIJzSwNzVZAcnnGVdmzLSppdtvfwGf21ImZFd8gMCA8JJ0FGpWcC0b2cxAEl5UJ10jjj2Z4gGBMKyoidFXJ8tCJGnDZ4oSMNYqiH58p6Z0XD5ERFi0hEwcA2RlFvA-O5LUBAMkboY836zDiKjSmm7cgeSNBzZoB5IQQM6SJWB0qXumGKyMjIQfwN6x7KZN3ou6Km7DKV3cx7m35IEa21JA8OICgr3YW8c8BWYPYDIlr5QxHeejRpJ_PXyriftRXCUPLHHKj1V55y5bQhTHwi1wL-QoaZLRccTELLLQNA6BVb6fogDCS6DKrPZ11jKxtfedWzjbtNsHG-k8_sa9zLaRLg9yfNlqKiR9mFdgkz0RzLyqFChAsySd0CU5RBqobIegGxKIGtxKCDEQjo76dTIepxKg9EwwaDTTLANVQZBJkhY7rKTuduyRLy90UoaFjZN_s_kW4xCh7Kqp6_u0m00]--></g></svg>