<?xml version="1.0" encoding="UTF-8" standalone="no"?><svg xmlns="http://www.w3.org/2000/svg" xmlns:xlink="http://www.w3.org/1999/xlink" contentStyleType="text/css" height="589px" preserveAspectRatio="none" style="width:1555px;height:589px;background:#FFFFFF;" version="1.1" viewBox="0 0 1555 589" width="1555px" zoomAndPan="magnify"><defs/><g><!--cluster main_menu--><g id="cluster_main_menu"><rect fill="none" height="576" rx="2.5" ry="2.5" style="stroke:#181818;stroke-width:1.0;" width="1426.86" x="123" y="7"/><text fill="#000000" font-family="sans-serif" font-size="14" font-weight="bold" lengthAdjust="spacing" textLength="103" x="784.93" y="23.9659">Menu Principal</text></g><g id="elem_play_game"><ellipse cx="259.271" cy="138.0002" fill="#F1F1F1" rx="82.001" ry="18.8002" style="stroke:#181818;stroke-width:0.5;"/><text fill="#000000" font-family="sans-serif" font-size="14" lengthAdjust="spacing" textLength="109" x="201.771" y="142.7332">Jouer une partie</text></g><g id="elem_join_friend_game"><ellipse cx="259.2742" cy="221.0048" fill="#F1F1F1" rx="120.2742" ry="26.4548" style="stroke:#181818;stroke-width:0.5;"/><text fill="#000000" font-family="sans-serif" font-size="14" lengthAdjust="spacing" textLength="202" x="155.9786" y="225.4673">Rejoindre partie sur invitation</text></g><g id="elem_invite_friend"><ellipse cx="647.5518" cy="63.0024" fill="#F1F1F1" rx="77.0618" ry="17.8124" style="stroke:#181818;stroke-width:0.5;"/><text fill="#000000" font-family="sans-serif" font-size="14" lengthAdjust="spacing" textLength="95" x="597.0518" y="67.7353">Inviter un ami</text></g><g id="elem_choose_gamemode"><ellipse cx="647.5529" cy="138.0026" fill="#F1F1F1" rx="100.8629" ry="22.5726" style="stroke:#181818;stroke-width:0.5;"/><text fill="#000000" font-family="sans-serif" font-size="14" lengthAdjust="spacing" textLength="157" x="566.0529" y="142.7356">Choisir un mode de jeu</text></g><g id="elem_manage_profile"><ellipse cx="259.266" cy="301.0032" fill="#F1F1F1" rx="80.916" ry="18.5832" style="stroke:#181818;stroke-width:0.5;"/><text fill="#000000" font-family="sans-serif" font-size="14" lengthAdjust="spacing" textLength="106" x="203.266" y="305.7362">Gérer son profil</text></g><g id="elem_manage_friendlist"><ellipse cx="259.275" cy="375.003" fill="#F1F1F1" rx="91.515" ry="20.703" style="stroke:#181818;stroke-width:0.5;"/><text fill="#000000" font-family="sans-serif" font-size="14" lengthAdjust="spacing" textLength="134" x="189.275" y="379.736">Gérer la liste d'amis</text></g><g id="elem_chat_with_friend"><ellipse cx="259.2716" cy="457.0043" fill="#F1F1F1" rx="117.1716" ry="25.8343" style="stroke:#181818;stroke-width:0.5;"/><text fill="#000000" font-family="sans-serif" font-size="14" lengthAdjust="spacing" textLength="195" x="158.7988" y="461.7272">Envoyer un mesage à un ami</text></g><g id="elem_choose_friend_to_chat"><ellipse cx="647.5514" cy="535.0003" fill="#F1F1F1" rx="149.0014" ry="32.2003" style="stroke:#181818;stroke-width:0.5;"/><text fill="#000000" font-family="sans-serif" font-size="14" lengthAdjust="spacing" textLength="264" x="515.5514" y="538.4323">Choisir l'ami a qui envoyer un message</text></g><g id="elem_choose_friend"><ellipse cx="1427.5188" cy="118.9978" fill="#F1F1F1" rx="106.3388" ry="23.6678" style="stroke:#181818;stroke-width:0.5;"/><text fill="#000000" font-family="sans-serif" font-size="14" lengthAdjust="spacing" textLength="170" x="1339.5188" y="123.7307">Choisir un ou des ami(es)</text></g><g id="elem_change_password"><ellipse cx="647.5509" cy="220.0022" fill="#F1F1F1" rx="111.0609" ry="24.6122" style="stroke:#181818;stroke-width:0.5;"/><text fill="#000000" font-family="sans-serif" font-size="14" lengthAdjust="spacing" textLength="181" x="554.0509" y="224.7351">Modifier son mot-de-passe</text></g><g id="elem_change_nickname"><ellipse cx="647.555" cy="301.001" fill="#F1F1F1" rx="93.505" ry="21.101" style="stroke:#181818;stroke-width:0.5;"/><text fill="#000000" font-family="sans-serif" font-size="14" lengthAdjust="spacing" textLength="139" x="575.055" y="305.734">Modifier son pseudo</text></g><g id="elem_add_friend"><ellipse cx="647.5485" cy="374.9977" fill="#F1F1F1" rx="78.7885" ry="18.1577" style="stroke:#181818;stroke-width:0.5;"/><text fill="#000000" font-family="sans-serif" font-size="14" lengthAdjust="spacing" textLength="100" x="594.5485" y="379.7307">Ajouter un ami</text></g><g id="elem_remove_friend"><ellipse cx="647.5527" cy="447.9965" fill="#F1F1F1" rx="87.2327" ry="19.8465" style="stroke:#181818;stroke-width:0.5;"/><text fill="#000000" font-family="sans-serif" font-size="14" lengthAdjust="spacing" textLength="123" x="583.0527" y="452.7295">Supprimer un ami</text></g><g id="elem_invite_friend_as_player"><ellipse cx="1058.3715" cy="170.9963" fill="#F1F1F1" rx="130.7315" ry="28.5463" style="stroke:#181818;stroke-width:0.5;"/><text fill="#000000" font-family="sans-serif" font-size="14" lengthAdjust="spacing" textLength="225" x="945.5635" y="174.5814">Inviter un ami en tant que joueur</text></g><g id="elem_invite_friend_as_viewer"><ellipse cx="1058.3743" cy="76.0029" fill="#F1F1F1" rx="143.8143" ry="31.1629" style="stroke:#181818;stroke-width:0.5;"/><text fill="#000000" font-family="sans-serif" font-size="14" lengthAdjust="spacing" textLength="253" x="931.8743" y="79.4348">Inviter un ami en tant qu'observateur</text></g><g id="elem_view_ranking"><ellipse cx="259.2655" cy="538.9951" fill="#F1F1F1" rx="95.9255" ry="21.5851" style="stroke:#181818;stroke-width:0.5;"/><text fill="#000000" font-family="sans-serif" font-size="14" lengthAdjust="spacing" textLength="145" x="183.7655" y="543.7281">Regarder Classement</text></g><!--entity user--><g id="elem_user"><ellipse cx="41" cy="315.97" fill="#F1F1F1" rx="8" ry="8" style="stroke:#181818;stroke-width:0.5;"/><path d="M41,323.97 L41,350.97 M28,331.97 L54,331.97 M41,350.97 L28,365.97 M41,350.97 L54,365.97 " fill="none" style="stroke:#181818;stroke-width:0.5;"/><text fill="#000000" font-family="sans-serif" font-size="14" lengthAdjust="spacing" textLength="70" x="6" y="382.4359">Utilisateur</text></g><!--reverse link play_game to invite_friend--><g id="link_play_game_invite_friend"><path d="M328.86,124.68 C402.31,110.42 517.68,88.02 587.32,74.5 " fill="none" id="play_game-backto-invite_friend" style="stroke:#181818;stroke-width:1.0;stroke-dasharray:7.0,7.0;"/><polygon fill="#181818" points="324.25,125.58,333.8437,127.8074,329.1599,124.6352,332.3321,119.9515,324.25,125.58" style="stroke:#181818;stroke-width:1.0;"/><text fill="#000000" font-family="sans-serif" font-size="13" lengthAdjust="spacing" textLength="56" x="411.05" y="94.147">«extend»</text></g><!--link play_game to choose_gamemode--><g id="link_play_game_choose_gamemode"><path d="M341.72,138 C399.39,138 477.31,138 539.93,138 " fill="none" id="play_game-to-choose_gamemode" style="stroke:#181818;stroke-width:1.0;stroke-dasharray:7.0,7.0;"/><polygon fill="#181818" points="544.81,138,535.81,134,539.81,138,535.81,142,544.81,138" style="stroke:#181818;stroke-width:1.0;"/><text fill="#000000" font-family="sans-serif" font-size="13" lengthAdjust="spacing" textLength="57" x="410.55" y="133.897">«include»</text></g><!--reverse link manage_friendlist to add_friend--><g id="link_manage_friendlist_add_friend"><path d="M357.09,375 C422.35,375 507.33,375 568.31,375 " fill="none" id="manage_friendlist-backto-add_friend" style="stroke:#181818;stroke-width:1.0;stroke-dasharray:7.0,7.0;"/><polygon fill="#181818" points="352.35,375,361.35,379,357.35,375,361.35,371,352.35,375" style="stroke:#181818;stroke-width:1.0;"/><text fill="#000000" font-family="sans-serif" font-size="13" lengthAdjust="spacing" textLength="56" x="411.05" y="370.897">«extend»</text></g><!--reverse link manage_friendlist to remove_friend--><g id="link_manage_friendlist_remove_friend"><path d="M336.98,389.5 C407.7,402.86 511.65,422.51 579.22,435.28 " fill="none" id="manage_friendlist-backto-remove_friend" style="stroke:#181818;stroke-width:1.0;stroke-dasharray:7.0,7.0;"/><polygon fill="#181818" points="332.16,388.59,340.2608,394.1915,337.0731,389.5183,341.7462,386.3306,332.16,388.59" style="stroke:#181818;stroke-width:1.0;"/><text fill="#000000" font-family="sans-serif" font-size="13" lengthAdjust="spacing" textLength="56" x="411.05" y="400.857">«extend»</text></g><!--reverse link manage_profile to change_password--><g id="link_manage_profile_change_password"><path d="M326.5,287.11 C392.72,273.23 494.65,251.85 565.62,236.97 " fill="none" id="manage_profile-backto-change_password" style="stroke:#181818;stroke-width:1.0;stroke-dasharray:7.0,7.0;"/><polygon fill="#181818" points="321.69,288.12,331.3198,290.1858,326.5834,287.0928,329.6763,282.3564,321.69,288.12" style="stroke:#181818;stroke-width:1.0;"/><text fill="#000000" font-family="sans-serif" font-size="13" lengthAdjust="spacing" textLength="56" x="411.05" y="253.967">«extend»</text></g><!--reverse link manage_profile to change_nickname--><g id="link_manage_profile_change_nickname"><path d="M346.57,301 C408.11,301 490.75,301 553.71,301 " fill="none" id="manage_profile-backto-change_nickname" style="stroke:#181818;stroke-width:1.0;stroke-dasharray:7.0,7.0;"/><polygon fill="#181818" points="341.82,301,350.82,305,346.82,301,350.82,297,341.82,301" style="stroke:#181818;stroke-width:1.0;"/><text fill="#000000" font-family="sans-serif" font-size="13" lengthAdjust="spacing" textLength="56" x="411.05" y="296.897">«extend»</text></g><!--reverse link invite_friend to invite_friend_as_player--><g id="link_invite_friend_invite_friend_as_player"><path d="M710.16,76.98 C736.79,83.17 768.27,90.7 796.55,98 C857.9,113.83 926.93,133.22 978.55,148.04 " fill="none" id="invite_friend-backto-invite_friend_as_player" style="stroke:#181818;stroke-width:1.0;stroke-dasharray:7.0,7.0;"/><polygon fill="#181818" points="705.33,75.86,713.195,81.788,710.201,76.9885,715.0006,73.9945,705.33,75.86" style="stroke:#181818;stroke-width:1.0;"/><text fill="#000000" font-family="sans-serif" font-size="13" lengthAdjust="spacing" textLength="56" x="827.55" y="103.247">«extend»</text></g><!--reverse link invite_friend to invite_friend_as_viewer--><g id="link_invite_friend_invite_friend_as_viewer"><path d="M730.39,65.6 C783.39,67.29 853.83,69.53 915.76,71.5 " fill="none" id="invite_friend-backto-invite_friend_as_viewer" style="stroke:#181818;stroke-width:1.0;stroke-dasharray:7.0,7.0;"/><polygon fill="#181818" points="725.52,65.45,734.3777,69.756,730.5171,65.6213,734.6518,61.7607,725.52,65.45" style="stroke:#181818;stroke-width:1.0;"/><text fill="#000000" font-family="sans-serif" font-size="13" lengthAdjust="spacing" textLength="56" x="827.55" y="64.617">«extend»</text></g><!--link chat_with_friend to choose_friend_to_chat--><g id="link_chat_with_friend_choose_friend_to_chat"><path d="M346.96,474.5 C401.37,485.49 472.17,499.79 531.28,511.72 " fill="none" id="chat_with_friend-to-choose_friend_to_chat" style="stroke:#181818;stroke-width:1.0;stroke-dasharray:7.0,7.0;"/><polygon fill="#181818" points="535.84,512.64,527.8216,506.9211,530.941,511.6402,526.2219,514.7596,535.84,512.64" style="stroke:#181818;stroke-width:1.0;"/><text fill="#000000" font-family="sans-serif" font-size="13" lengthAdjust="spacing" textLength="57" x="410.55" y="484.907">«include»</text></g><!--link invite_friend_as_player to choose_friend--><g id="link_invite_friend_as_player_choose_friend"><path d="M1169.03,155.47 C1220.39,148.19 1281.03,139.61 1330.56,132.59 " fill="none" id="invite_friend_as_player-to-choose_friend" style="stroke:#181818;stroke-width:1.0;stroke-dasharray:7.0,7.0;"/><polygon fill="#181818" points="1335.35,131.91,1325.8715,129.2345,1330.4011,132.6231,1327.0125,137.1527,1335.35,131.91" style="stroke:#181818;stroke-width:1.0;"/><text fill="#000000" font-family="sans-serif" font-size="13" lengthAdjust="spacing" textLength="57" x="1233.18" y="134.707">«include»</text></g><!--link invite_friend_as_viewer to choose_friend--><g id="link_invite_friend_as_viewer_choose_friend"><path d="M1185.72,90.8 C1231.69,96.18 1282.97,102.19 1326.36,107.27 " fill="none" id="invite_friend_as_viewer-to-choose_friend" style="stroke:#181818;stroke-width:1.0;stroke-dasharray:7.0,7.0;"/><polygon fill="#181818" points="1331.2,107.84,1322.7315,102.8116,1326.2345,107.2533,1321.7928,110.7563,1331.2,107.84" style="stroke:#181818;stroke-width:1.0;"/><text fill="#000000" font-family="sans-serif" font-size="13" lengthAdjust="spacing" textLength="57" x="1233.18" y="93.397">«include»</text></g><!--link user to play_game--><g id="link_user_play_game"><path d="M48.81,307.07 C57.51,268.33 76.33,210.61 115,177 C133.97,160.51 159.27,150.93 183.33,145.38 " fill="none" id="user-play_game" style="stroke:#181818;stroke-width:1.0;"/></g><!--link user to join_friend_game--><g id="link_user_join_friend_game"><path d="M69.96,307.2 C82.27,292.15 97.84,276.02 115,265 C132.08,254.04 152.05,245.67 171.57,239.33 " fill="none" id="user-join_friend_game" style="stroke:#181818;stroke-width:1.0;"/></g><!--link user to manage_profile--><g id="link_user_manage_profile"><path d="M76.17,338.8 C85.8,336.54 96.3,334.12 106,332 C135.78,325.48 168.94,318.68 196.69,313.11 " fill="none" id="user-manage_profile" style="stroke:#181818;stroke-width:1.0;"/></g><!--link user to manage_friendlist--><g id="link_user_manage_friendlist"><path d="M76.27,351.44 C103.78,355 143.52,360.14 178.85,364.72 " fill="none" id="user-manage_friendlist" style="stroke:#181818;stroke-width:1.0;"/></g><!--link user to chat_with_friend--><g id="link_user_chat_with_friend"><path d="M76.29,383.65 C87.77,394.3 101.18,405.15 115,413 C133.78,423.67 155.44,432.04 176.14,438.49 " fill="none" id="user-chat_with_friend" style="stroke:#181818;stroke-width:1.0;"/></g><!--link user to view_ranking--><g id="link_user_view_ranking"><path d="M51.06,387.02 C60.98,421.81 80.32,471.05 115,500 C131.72,513.96 153.01,522.96 174.04,528.74 " fill="none" id="user-view_ranking" style="stroke:#181818;stroke-width:1.0;"/></g><!--SRC=[bLLBRjim4Dtp58DaONlX72080XHf6xH0u299WUu4LgIbIIHIvSTfKFGktVOSkLY7b6IBajocXXSsDU_DyBsPqIBNTQqLU2jpRYLijO6QArx8R6jGAb6XTS2L04j_ibfQIyyOg-JMWTDWi2WT23GoTwWLuxaZXiyE2SUTz0Qu3UI6iH32LL59EBcHoiCdWoh7XbSd8QRcg8YUpdymeC_YzFGKhdajux- -l9EFsai3Nabek74e8xQf-7DMJ69lvOD69KmV2vRAGRL3nqEj4HeYkflEC7m8mJ4Vy1eZ8E9xSTfAGvMWcy1fK_nLgT5YnDTQIA3lW_IH9o-rjZBc38_OuT9tEaTUfKJNBxyDrM79gSReBVQQHQFQ4pcBg3W41odrWcvWXx23lododThfv_RIP3T5mikleG9voLtsXAuSYZ2vSXNo0OTl7a4cZ85oA46dljDPO6P75TIUzBEXZAMqgob39-5Dl5qdqn5VRhJ0BNQ2rjgjXLmttDg-BcfJafKEdhGHVu4sLdgXXo25-QFg-wYlfQql6Z5Vpvi7xKTzneMOrVVEDut1EWqsr4Exj2dRreNtRUhDNDQqkyabeFbqv1XrAOsPDzE6pxZDmhJHFB-EQg6_ql3luYgOfzkXV0hhOT__jrmzeYh6irnm8oZ3LHLyeaNX8br0PwP3_6HikTy5AxXOdy4ooRSwXuiB-TtHpylB9FPiVGdBqKp6QDfHbHSoX4_cfajni6h4VmoGs3MFwTgt0umwyZyWVJ-c4BQutxpTdCDzYHPigNqbuAkaQQrqWJcluClcbesacv7pq0qhI4jw5RHrVWHbo_5-ISr9jyN88dQylYd7sDwZzVqJoi8B3jRhmOkeFvcyN_PFHijxT3nOplsJoTxTFqc6WFq1]--></g></svg>